<?xml version="1.0" standalone="no"?>
<!DOCTYPE svg PUBLIC "-//W3C//DTD SVG 1.1//EN" "http://www.w3.org/Graphics/SVG/1.1/DTD/svg11.dtd" >
<svg>
<metadata>
Created by FontForge 20090914 at Mon Dec 22 06:12:16 2014
 By www-data
Font data copyright Google 2013
</metadata>
<defs>
<font id="RobotoSlab-Thin" horiz-adv-x="1472" >
  <font-face 
    font-family="Roboto Slab"
    font-weight="250"
    font-stretch="normal"
    units-per-em="2048"
    panose-1="0 0 0 0 0 0 0 0 0 0"
    ascent="1638"
    descent="-410"
    x-height="1082"
    cap-height="1456"
    bbox="-770 -554.996 2638 2146"
    underline-thickness="100"
    underline-position="-100"
    unicode-range="U+0002-U+FFFD"
  />
<missing-glyph horiz-adv-x="490" 
 />
    <glyph glyph-name="fi" unicode="fi" horiz-adv-x="1183" 
d="M96 54h163.001v973h-188v55h188v158c0 108.667 28.5 192.667 85.5 252s136.167 89 237.5 89c44.667 0 89.667 -4.5 135 -13.5s89.666 -23.5 132.999 -43.5l-8 -52c-44 19.333 -84.5 33.333 -121.5 42s-82.833 13 -137.5 13c-84 0 -150 -25.333 -198 -76
s-72 -121 -72 -211v-158h626v-1028h163v-54h-380v54h163v973h-572v-973h163v-54h-380v54z" />
    <glyph glyph-name="uniFB02" unicode="fl" horiz-adv-x="1303" 
d="M784 54h163v1419c-45.333 18 -91.666 31.5 -138.999 40.5s-102.333 13.5 -165 13.5c-112.667 0 -195.834 -26.333 -249.501 -79s-80.5 -128.667 -80.5 -228v-138h304v-55h-304v-973h163v-54h-380v54h163v973h-170v55h170v138c0 114.667 33.833 203.5 101.5 266.5
s161.5 94.5 281.5 94.5c58.667 0 118.5 -5.83301 179.5 -17.5s119.167 -30.5 174.5 -56.5h5v-1453h163v-54h-380v54z" />
    <glyph glyph-name=".notdef" horiz-adv-x="490" 
 />
    <glyph glyph-name="uni0009" horiz-adv-x="0" 
 />
    <glyph glyph-name="uni0009" horiz-adv-x="0" 
 />
    <glyph glyph-name="uni0002" horiz-adv-x="0" 
 />
    <glyph glyph-name="nonmarkingreturn" unicode="&#xd;" horiz-adv-x="490" 
 />
    <glyph glyph-name="space" unicode=" " horiz-adv-x="490" 
 />
    <glyph glyph-name="exclam" unicode="!" horiz-adv-x="437" 
d="M217 478h-54v978h54v-978zM238 0h-95v134h95v-134z" />
    <glyph glyph-name="quotedbl" unicode="&#x22;" horiz-adv-x="665" 
d="M226 1393l-10 -271h-50l5 268v170h55v-167zM407 1393l-10 -271h-50l6 268v170h54v-167z" />
    <glyph glyph-name="numbersign" unicode="#" horiz-adv-x="1246" 
d="M754 410h-364l-74 -410h-56l74 410h-271v52h281l95 524h-300v54h310l75 416h56l-76 -416h365l76 416h56l-76 -416h254v-54h-264l-96 -524h285v-52h-294l-75 -410h-56zM400 462h363l96 524h-365z" />
    <glyph glyph-name="dollar" unicode="$" horiz-adv-x="1086" 
d="M903 344c0 86.667 -26.335 155.171 -79.002 205.504s-150 101.166 -292 152.499c-143.333 47.333 -247.166 99.333 -311.499 156s-96.5 140.667 -96.5 252c0 106.667 34.833 193.167 104.5 259.5s163.5 101.833 281.5 106.5v187h55v-187
c120.667 -6.66699 214.5 -46.834 281.5 -120.501s99.5 -174.834 97.5 -303.501l-2 -5h-47c0 110.667 -31.667 201.167 -95 271.5s-151.666 105.5 -264.999 105.5c-116 0 -204.5 -30.5 -265.5 -91.5s-91.5 -134.5 -91.5 -220.5c0 -87.333 24.5 -156.666 73.5 -207.999
s148.167 -101.333 297.5 -150c140 -48.667 243 -101.334 309 -158.001s99 -140 99 -250c0 -107.333 -34.667 -193.5 -104 -258.5s-161.666 -100.833 -276.999 -107.5v-188h-55v187c-126 4 -231.333 40 -316 108s-125.334 173.333 -122.001 316l2 6h46
c0 -132.667 40.5 -228.667 121.5 -288s177.5 -89 289.5 -89c108.667 0 196 30.667 262 92s99 134.666 99 219.999z" />
    <glyph glyph-name="percent" unicode="%" horiz-adv-x="1457" 
d="M77 1176c0 84 25.333 155.167 76 213.5s116 87.5 196 87.5c79.333 0 144.333 -29.167 195 -87.5s76 -129.5 76 -213.5v-77c0 -84 -25.167 -154.833 -75.5 -212.5s-114.833 -86.5 -193.5 -86.5c-81.333 0 -147.333 28.833 -198 86.5s-76 128.5 -76 212.5v77zM132 1099
c0 -66.667 18.833 -124.001 56.5 -172.001s91.834 -72 162.501 -72c68 0 120.667 24 158 72s56 105.333 56 172v77c0 66.667 -18.833 124.334 -56.5 173.001s-90.834 73 -159.501 73s-122 -24.5 -160 -73.5s-57 -106.5 -57 -172.5v-77zM833 356.999
c0 83.333 25.167 154.167 75.5 212.5s115.5 87.5 195.5 87.5s145.333 -29 196 -87s76 -129 76 -213v-78c0 -84 -25.167 -155 -75.5 -213s-115.166 -87 -194.499 -87c-80.667 0 -146.334 29 -197.001 87s-76 129 -76 213v78zM888 279c0 -67.333 18.668 -125 56.001 -173
s91.333 -72 162 -72c68.667 0 121.667 24 159 72s56 105.667 56 173v78c0 70.667 -18.667 129.167 -56 175.5s-91 69.5 -161 69.5c-68.667 0 -121.834 -23.333 -159.501 -70s-56.5 -105 -56.5 -175v-78zM439.001 131l-45 31l711 1138l45 -31z" />
    <glyph glyph-name="ampersand" unicode="&#x26;" horiz-adv-x="1253" 
d="M381 803c-54.667 68.667 -94.998 131.33 -120.998 187.997s-39 115.334 -39 176.001c0 99.333 27.167 175.833 81.5 229.5s128.833 80.5 223.5 80.5c88 0 156 -24 204 -72s72 -111.333 72 -190c0 -56 -12.833 -103.5 -38.5 -142.5s-61.834 -77.167 -108.501 -114.5
l-202 -161l475 -540c36 50.667 64.167 107.667 84.5 171s30.5 131.333 30.5 204h55c0 -83.333 -11.667 -159.166 -35 -227.499s-56 -131.166 -98 -188.499l185 -211l-2 -5h-60l-157 177l-8 -8c-2 -2 -3.33301 -3.66699 -4 -5c-60 -59.333 -122.833 -105 -188.5 -137
s-139.834 -48 -222.501 -48c-134.667 0 -240.667 33.5 -318 100.5s-116 157.833 -116 272.5c0 76 22.5 146.333 67.5 211s107.833 131 188.5 199zM508.002 32.9961c73.333 0 143.667 15.832 211 47.499s126.333 76.834 177 135.501l-449 509
c-5.33301 5.33301 -10.5 11 -15.5 17l-18.5 22l-52 -41c-91.333 -78.667 -153 -147.167 -185 -205.5s-48 -113.5 -48 -165.5c0 -89.333 32.667 -164.833 98 -226.5s159.333 -92.5 282 -92.5zM276.003 1169c0 -52.667 11.667 -107.001 35 -163.001s60 -113.333 110 -172
l209 166c40 33.333 69.333 67.833 88 103.5s28 72.834 28 111.501c0 62.667 -18.833 113 -56.5 151s-92.167 57 -163.5 57c-80 0 -141.667 -24.167 -185 -72.5s-65 -108.833 -65 -181.5z" />
    <glyph glyph-name="quotesingle" unicode="'" horiz-adv-x="421" 
d="M236 1391l-20 -269h-50l15 267v171h55v-169z" />
    <glyph glyph-name="parenleft" unicode="(" horiz-adv-x="615" 
d="M114 586c0 225.333 40.1689 436.168 120.502 632.501s177.166 328.833 290.499 397.5h6l16 -36c-102 -67.333 -190.667 -196.5 -266 -387.5s-113 -391.833 -113 -602.5v-26c0 -211.333 37.667 -412.5 113 -603.5s164 -320.167 266 -387.5l-16 -36h-6
c-114.667 70 -211.834 200.167 -291.501 390.5s-119.5 403.166 -119.5 638.499v20z" />
    <glyph glyph-name="parenright" unicode=")" horiz-adv-x="608" 
d="M444 566c0 -235.333 -40.001 -448.168 -120.001 -638.501s-177 -320.5 -291 -390.5h-6l-16 36c101.333 67.333 189.833 196.5 265.5 387.5s113.5 392.167 113.5 603.5v26c0 210.667 -37.833 411.5 -113.5 602.5s-164.167 320.167 -265.5 387.5l16 36h6
c112.667 -68.667 209.334 -201.167 290.001 -397.5s121 -407.166 121 -632.499v-20z" />
    <glyph glyph-name="asterisk" unicode="*" horiz-adv-x="948" 
d="M429 1017l-363 124l18 54l362 -133l1 394h56l-7 -395l352 143l20 -53l-360 -137l249 -317l-47 -33l-242 322l-228 -325l-45 32z" />
    <glyph glyph-name="plus" unicode="+" horiz-adv-x="1145" 
d="M590 702h481v-53h-481v-503h-55v503h-462v53h462v504h55v-504z" />
    <glyph glyph-name="comma" unicode="," horiz-adv-x="383" 
d="M235 27c0 -58.667 -9.33301 -111.334 -28 -158.001s-44.667 -88 -78 -124l-37 32c30.667 40.667 53.167 79.834 67.5 117.501s21.5 81.167 21.5 130.5v134h54v-132z" />
    <glyph glyph-name="hyphen" unicode="-" horiz-adv-x="789" 
d="M624 599h-470v54h470v-54z" />
    <glyph glyph-name="period" unicode="." horiz-adv-x="444" 
d="M231 0h-86v130h86v-130z" />
    <glyph glyph-name="slash" unicode="/" horiz-adv-x="776" 
d="M59 -125h-59l608 1581h59z" />
    <glyph glyph-name="zero" unicode="0" horiz-adv-x="1150" 
d="M1008 574c0 -190 -38.501 -336.667 -115.501 -440s-185.833 -155 -326.5 -155s-250 51.833 -328 155.5s-117 250.167 -117 439.5v308c0 189.333 38.667 335.833 116 439.5s186.333 155.5 327 155.5s249.834 -51.833 327.501 -155.5s116.5 -250.167 116.5 -439.5v-308z
M953.999 882c0 169.333 -33.332 301.832 -99.999 397.499s-163.334 143.5 -290.001 143.5s-223.167 -47.833 -289.5 -143.5s-99.5 -228.167 -99.5 -397.5v-306c0 -168 33.5 -300.5 100.5 -397.5s163.833 -145.5 290.5 -145.5c126 0 222.167 48.333 288.5 145
s99.5 229.334 99.5 398.001v306z" />
    <glyph glyph-name="one" unicode="1" horiz-adv-x="821" 
d="M108 54h293v1352l-338 -76v50l392 84v-1410h293v-54h-640v54z" />
    <glyph glyph-name="two" unicode="2" horiz-adv-x="1104" 
d="M106 0l-0.00292969 54l477 550c90.667 104.667 156.834 195 198.501 271s62.5 146.333 62.5 211c0 106 -29.333 188.667 -88 248s-144.334 89 -257.001 89c-119.333 0 -211.666 -35 -276.999 -105s-98 -160.667 -98 -272h-46l-2 6
c-3.33301 118 33.834 218.333 111.501 301s181.5 124 311.5 124c120.667 0 217.5 -34.167 290.5 -102.5s109.5 -164.5 109.5 -288.5c0 -80.667 -26.167 -163 -78.5 -247s-126.166 -181.667 -221.499 -293l-417 -487l2 -5h739v239h54v-293h-871z" />
    <glyph glyph-name="three" unicode="3" horiz-adv-x="1098" 
d="M383 771l111.001 -0.000976562c122 0 218 30.333 288 91s105 135.334 105 224.001c0 98 -30.167 178.667 -90.5 242s-149.166 95 -266.499 95c-108 0 -197.667 -31.667 -269 -95s-107 -147.666 -107 -252.999h-46l-2 6c-3.33301 118 36.167 213.5 118.5 286.5
s184.166 109.5 305.499 109.5c125.333 0 225.166 -35.5 299.499 -106.5s111.5 -167.167 111.5 -288.5c0 -76.667 -24.167 -145.334 -72.5 -206.001s-113.5 -104.334 -195.5 -131.001c94.667 -23.333 168.334 -65.666 221.001 -126.999s79 -138.666 79 -231.999
c0 -126.667 -40.333 -226.167 -121 -298.5s-185 -108.5 -313 -108.5c-123.333 0 -232.333 36.5 -327 109.5s-140.334 176.5 -137.001 310.5l2 6h46c0 -108 39.5 -197 118.5 -267s178.167 -105 297.5 -105c120 0 213.333 30.833 280 92.5s100 147.167 100 256.5
c0 113.333 -38.167 197.166 -114.5 251.499s-179.833 81.5 -310.5 81.5h-111v56z" />
    <glyph glyph-name="four" unicode="4" horiz-adv-x="1170" 
d="M823 451h252v-54h-252v-343h163v-54h-380v54h163v343h-706v30l695 1029h65v-1005zM147 451h622v929l-6 2l-78 -129z" />
    <glyph glyph-name="five" unicode="5" horiz-adv-x="1061" 
d="M834 1265v138.001h-597l-61 -618c42 42 87.833 73.667 137.5 95s122.834 33.333 219.501 36c116 3.33301 211.667 -36.334 287 -119.001s113 -193.667 113 -333c0 -148.667 -35 -266.667 -105 -354s-178.333 -131 -325 -131c-118 0 -216 33.5 -294 100.5
s-115.333 166.167 -112 297.5l2 6h47c0 -114.667 32 -201.667 96 -261s151 -89 261 -89c129.333 0 224.166 35.667 284.499 107s90.5 178.666 90.5 321.999c0 122.667 -30.167 219.334 -90.5 290.001s-144.833 106 -253.5 106c-106.667 0 -190.5 -17.833 -251.5 -53.5
s-104.833 -88.5 -131.5 -158.5l-41 16l78 794h700v-191h-54z" />
    <glyph glyph-name="six" unicode="6" horiz-adv-x="1107" 
d="M574 1477c50.667 0 100.17 -5.50098 148.503 -16.501s93.833 -28.833 136.5 -53.5l-21 -51c-44 25.333 -84.833 42.833 -122.5 52.5s-84.834 14.5 -141.501 14.5c-116.667 0 -212.334 -44.833 -287.001 -134.5s-112 -225.5 -112 -407.5v-175
c31.333 72.667 81.5 132.667 150.5 180s148.833 71 239.5 71c131.333 0 234.333 -45.333 309 -136s112 -211 112 -361c0 -138 -40.5 -252.667 -121.5 -344s-184.167 -137 -309.5 -137c-128.667 0 -233.167 50 -313.5 150s-120.5 241 -120.5 423v328
c0 194.667 42.667 342.834 128 444.501s193.666 152.5 324.999 152.5zM175.003 555.999v-3c0 -165.333 34.667 -293.5 104 -384.5s161.333 -136.5 276 -136.5c111.333 0 202 42 272 126s105 184.667 105 302c0 134.667 -32 242.167 -96 322.5s-156.667 120.5 -278 120.5
c-102 0 -191.167 -34.167 -267.5 -102.5s-114.5 -149.833 -114.5 -244.5h-1z" />
    <glyph glyph-name="seven" unicode="7" horiz-adv-x="1104" 
d="M1006 1402c-143.333 -166.667 -265.169 -356.834 -365.502 -570.501s-165.5 -460.5 -195.5 -740.5l-6 -91h-54l6 91c28.667 262.667 89.834 502.334 183.501 719.001s215.834 414 366.501 592h-811v-239h-54v293h930v-54z" />
    <glyph glyph-name="eight" unicode="8" horiz-adv-x="1123" 
d="M978 1086c0 -81.333 -24.833 -152.333 -74.5 -213s-114.834 -103.334 -195.501 -128.001c92.667 -25.333 167.834 -70.666 225.501 -135.999s86.5 -142 86.5 -230c0 -128 -43.5 -226.667 -130.5 -296s-197.833 -104 -332.5 -104c-137.333 0 -249.166 34.667 -335.499 104
s-129.5 168 -129.5 296c0 88.667 28.167 165.667 84.5 231s131.166 110.333 224.499 135c-81.333 24.667 -146.333 67.167 -195 127.5s-73 131.5 -73 213.5c0 122.667 39.5 218.5 118.5 287.5s180.167 103.5 303.5 103.5c122 0 223 -34.667 303 -104s120 -165 120 -287z
M965 374c0 102.667 -39.333 185.667 -118 249s-176 95 -292 95c-118 0 -215.667 -31.667 -293 -95s-116 -146.333 -116 -249c0 -107.333 38.333 -191 115 -251s175.334 -90 296.001 -90c117.333 0 214.666 30.167 291.999 90.5s116 143.833 116 250.5zM924 1091
c0 95.333 -35.668 174.5 -107.001 237.5s-158.666 94.5 -261.999 94.5c-107.333 0 -195.5 -30.167 -264.5 -90.5s-103.5 -140.833 -103.5 -241.5c0 -97.333 34.667 -174.833 104 -232.5s158 -86.5 266 -86.5c104.667 0 192 29 262 87s105 135.333 105 232z" />
    <glyph glyph-name="nine" unicode="9" horiz-adv-x="1125" 
d="M501 33c125.333 0 223.167 46.001 293.5 138.001s105.5 227.667 105.5 407v123c-37.333 -72.667 -90.166 -129.667 -158.499 -171s-144.833 -62 -229.5 -62c-125.333 0 -228 47.833 -308 143.5s-120 211.167 -120 346.5c0 143.333 41 265.666 123 366.999
s186.333 152 313 152c133.333 0 240.333 -45.333 321 -136s121 -230 121 -418v-343c0 -199.333 -41.333 -349.333 -124 -450s-195 -151 -337 -151c-52 0 -104 5.33301 -156 16s-104.333 26.334 -157 47.001l16 57c50 -22.667 97.667 -39.334 143 -50.001
s96.666 -16 153.999 -16zM512.001 521.001c98.667 0 181.331 28.498 247.998 85.498s113.334 125.167 140.001 204.5v111c0 170.667 -34.167 296.834 -102.5 378.501s-159.5 122.5 -273.5 122.5c-112 0 -203 -46.667 -273 -140s-105 -201.666 -105 -324.999
c0 -118.667 33.333 -221.167 100 -307.5s155.334 -129.5 266.001 -129.5z" />
    <glyph glyph-name="colon" unicode=":" horiz-adv-x="364" 
d="M204 0h-86v130h86v-130zM204 949h-86v130h86v-130z" />
    <glyph glyph-name="semicolon" unicode=";" horiz-adv-x="364" 
d="M211 952h-86v130h86v-130zM219 27c0 -58.667 -9.33301 -111.334 -28 -158.001s-44.667 -88 -78 -124l-37 32c30.667 40.667 53.167 79.834 67.5 117.501s21.5 81.167 21.5 130.5v134h54v-132z" />
    <glyph glyph-name="less" unicode="&#x3c;" horiz-adv-x="1027" 
d="M252 577l-119 -37v-6l119 -36l661 -303v-59l-837 379v50l837 378v-58z" />
    <glyph glyph-name="equal" unicode="=" horiz-adv-x="1127" 
d="M981 843h-834v54h834v-54zM981 436h-834v54h834v-54z" />
    <glyph glyph-name="greater" unicode="&#x3e;" horiz-adv-x="1052" 
d="M125 886v58l836 -378v-50l-836 -379v59l660 307l118 36v6l-118 37z" />
    <glyph glyph-name="question" unicode="?" horiz-adv-x="901" 
d="M362 400c0.666992 78 7.49902 133.168 20.499 165.501s47.833 74.5 104.5 126.5c80.667 77.333 138.667 143.166 174 197.499s53 128.5 53 222.5c0 97.333 -26 173.666 -78 228.999s-125.667 83 -221 83c-94.667 0 -168 -28.167 -220 -84.5s-79 -130.833 -81 -223.5h-46
l-3 6c-1.33301 113.333 30.834 200.833 96.501 262.5s150.167 92.5 253.5 92.5c109.333 0 195.5 -33.667 258.5 -101s94.5 -156 94.5 -266c0 -94 -20.833 -175 -62.5 -243s-105.167 -140.333 -190.5 -217c-46 -35.333 -74 -69.166 -84 -101.499s-15 -81.833 -15 -148.5h-54z
M439.999 0.000976562h-82v106h82v-106z" />
    <glyph glyph-name="at" unicode="@" horiz-adv-x="1799" 
d="M1724 523c-6.66699 -146 -44.667 -273.17 -114 -381.503s-168 -162.5 -296 -162.5c-55.333 0 -100.333 20.333 -135 61s-55 97 -61 169c-36.667 -76 -83 -133.333 -139 -172s-120.333 -58 -193 -58c-90.667 0 -158.334 39.667 -203.001 119s-60.667 185.333 -48 318
c15.333 166.667 63.333 300.334 144 401.001s178.334 151 293.001 151c55.333 0 100.333 -9.16699 135 -27.5s73 -45.833 115 -82.5l-49 -565c-7.33301 -101.333 4.83398 -169.833 36.501 -205.5s67.5 -53.5 107.5 -53.5c105.333 0 188.166 44.833 248.499 134.5
s94.166 207.834 101.499 354.501c13.333 264 -38 468.5 -154 613.5s-302.333 217.5 -559 217.5c-224 0 -412.167 -79.833 -564.5 -239.5s-235.166 -371.834 -248.499 -636.501c-13.333 -255.333 44.834 -465.166 174.501 -629.499s313.5 -246.5 551.5 -246.5
c58 0 117.167 7.33301 177.5 22s111.166 34 152.499 58l24 -46c-41.333 -26.667 -96 -48.167 -164 -64.5s-132.667 -24.5 -194 -24.5c-253.333 0 -449.333 83.167 -588 249.5s-201.667 393.5 -189 681.5c12 284.667 97.167 511.334 255.5 680.001s363.833 253 616.5 253
c268 0 465.5 -78 592.5 -234s184.833 -374 173.5 -654zM589 415.997c-12.667 -111.333 -2.16602 -202.999 31.501 -274.999s88.167 -108 163.5 -108c72 0 136.667 22.167 194 66.5s105.333 126.166 144 245.499l42 486c-22.667 26 -50.167 46.167 -82.5 60.5
s-69.833 21.5 -112.5 21.5c-94.667 0 -177.334 -42.167 -248.001 -126.5s-114.667 -207.833 -132 -370.5z" />
    <glyph glyph-name="A" unicode="A" 
d="M55 54h107l524 1402h66l525 -1402h107v-54h-309v54h143l-143 381h-712l-142 -381h143v-54h-309v54zM383 489h672l-305 820l-28 82h-6l-27 -82z" />
    <glyph glyph-name="B" unicode="B" horiz-adv-x="1303" 
d="M617 1456c150.667 0 267.666 -31 350.999 -93s125 -155.333 125 -280c0 -86.667 -22.333 -159.667 -67 -219s-107.667 -96.333 -189 -111c90.667 -12 167 -51.667 229 -119s93 -145 93 -233c0 -127.333 -41.167 -226 -123.5 -296s-191.166 -105 -326.499 -105h-638v54
h163v1348h-163v54h163h383zM287.999 719l-0.000976562 -665.001h421c122.667 0 219.334 30.333 290.001 91s106 145.334 106 254.001c0 89.333 -33.833 165 -101.5 227s-162.5 93 -284.5 93h-431zM287.998 772.999h349c132.667 0 232.667 25.833 300 77.5
s101 130.5 101 236.5c0 104 -35.5 182.5 -106.5 235.5s-175.833 79.5 -314.5 79.5h-329v-629z" />
    <glyph glyph-name="C" unicode="C" horiz-adv-x="1373" 
d="M1256 992l-54.9951 -0.00195312v234c-44.667 60 -104.334 107.833 -179.001 143.5s-159.667 53.5 -255 53.5c-172.667 0 -313 -63 -421 -189s-162 -291 -162 -495v-20c0 -204.667 53.667 -370.167 161 -496.5s244.666 -189.5 411.999 -189.5c96 0 183 17.833 261 53.5
s139 83.5 183 143.5v234h55v-254c-48.667 -71.333 -117.334 -127.666 -206.001 -168.999s-186.334 -62 -293.001 -62c-184.667 0 -335.334 68.5 -452.001 205.5s-175 315.167 -175 534.5v18c0 220 58.667 398.333 176 535s271 205 461 205
c105.333 0 200.833 -20.667 286.5 -62s153.167 -97.666 202.5 -168.999v-254z" />
    <glyph glyph-name="D" unicode="D" horiz-adv-x="1386" 
d="M637 1456c167.333 0 309.333 -59.999 426 -179.999s175 -273 175 -459v-178c0 -186.667 -58.333 -339.834 -175 -459.501s-258.667 -179.5 -426 -179.5h-566v54h163v1348h-163v54h163h403zM288 1402v-1348h349c151.333 0 280.333 55.333 387 166s160 250.334 160 419.001
v181c0 166.667 -53.333 305.334 -160 416.001s-235.667 166 -387 166h-349z" />
    <glyph glyph-name="E" unicode="E" horiz-adv-x="1270" 
d="M71 0v54h163v1348h-163v54h1049v-293h-54v239h-778v-616h630v-54h-630v-678h778v239h54v-293h-1049z" />
    <glyph glyph-name="F" unicode="F" horiz-adv-x="1246" 
d="M71 54h163v1348h-163v54h1065v-293h-54v239h-794v-630h646v-56h-646v-662h163v-54h-380v54z" />
    <glyph glyph-name="G" unicode="G" horiz-adv-x="1449" 
d="M1248 156c-30.667 -42.667 -89.5 -82.835 -176.5 -120.502s-193.833 -56.5 -320.5 -56.5c-184.667 0 -334.334 68.5 -449.001 205.5s-172 315.5 -172 535.5v38c0 212.667 57.667 385.667 173 519s265.666 200 450.999 200c110.667 0 208.834 -19.167 294.501 -57.5
s153.834 -92.833 204.501 -163.5v-244h-54l1 224c-46 59.333 -106.667 105.333 -182 138s-163.333 49 -264 49c-171.333 0 -309.166 -61.667 -413.499 -185s-156.5 -282.666 -156.5 -477.999v-40c0 -203.333 51.833 -368.666 155.5 -495.999s240.834 -191 411.501 -191
c107.333 0 201.166 15.667 281.499 47s134.166 65 161.499 101v384h-315v55h369v-464z" />
    <glyph glyph-name="H" unicode="H" horiz-adv-x="1506" 
d="M71 1402v54h380v-54h-163v-653h930v653h-163v54h163h54h163v-54h-163v-1348h163v-54h-380v54h163v641h-930v-641h163v-54h-380v54h163v1348h-163z" />
    <glyph glyph-name="I" unicode="I" horiz-adv-x="598" 
d="M109 1402v54h380v-54h-163v-1348h163v-54h-380v54h163v1348h-163z" />
    <glyph glyph-name="J" unicode="J" horiz-adv-x="1137" 
d="M1043 1402h-162.999v-980c0 -135.333 -38.167 -243 -114.5 -323s-174.5 -120 -294.5 -120c-133.333 0 -238.333 35.333 -315 106s-113.334 174 -110.001 310l2 6h46c0 -118.667 32.333 -209.667 97 -273s158 -95 280 -95c102 0 186.667 35 254 105s101 164.667 101 284
v980h-163v54h380v-54z" />
    <glyph glyph-name="K" unicode="K" horiz-adv-x="1388" 
d="M71 54h163v1348h-163v54h380v-54h-163v-638h238l565 633l-2 5h-168v54h361v-54h-115l-596 -672l639 -676h118v-54h-361v54h163l3 6l-622 651h-223v-657h163v-54h-380v54z" />
    <glyph glyph-name="L" unicode="L" horiz-adv-x="1161" 
d="M71 0v54h163v1348h-163v54h163h55h163v-54h-163v-1348h693v239h54v-293h-965z" />
    <glyph glyph-name="M" unicode="M" horiz-adv-x="1824" 
d="M932 0h-43l-595 1356l-6 -2v-1300h163v-54h-380v54h163v1348h-163v54h163h77l596 -1370h6l598 1370h242v-54h-163v-1348h163v-54h-380v54h163v1307l-6 2z" />
    <glyph glyph-name="N" unicode="N" horiz-adv-x="1517" 
d="M1446 1456v-54h-163v-1402h-54l-934 1356l-6 -2v-1300h163v-54h-381v54h163v1348h-163v54h163h55l934 -1353l6 2v1297h-163v54h217h163z" />
    <glyph glyph-name="O" unicode="O" horiz-adv-x="1488" 
d="M1348 719c0 -224 -56.167 -403.333 -168.5 -538s-258.833 -202 -439.5 -202c-181.333 0 -328.333 67.5 -441 202.5s-169 314.167 -169 537.5v18c0 223.333 56 402.5 168 537.5s258.667 202.5 440 202.5c180.667 0 327.5 -67.5 440.5 -202.5s169.5 -314.167 169.5 -537.5
v-18zM1294 739c0 206 -50.501 371.5 -151.501 496.5s-235.833 187.5 -404.5 187.5c-168 0 -302.167 -62.5 -402.5 -187.5s-150.5 -290.5 -150.5 -496.5v-20c0 -207.333 50.333 -373.5 151 -498.5s235.334 -187.5 404.001 -187.5s303.167 62.5 403.5 187.5
s150.5 291.167 150.5 498.5v20z" />
    <glyph glyph-name="P" unicode="P" horiz-adv-x="1255" 
d="M639 1456c150.667 0 266.667 -37.833 348 -113.5s122 -176.167 122 -301.5c0 -126.667 -40.5 -227.667 -121.5 -303s-197.167 -113 -348.5 -113h-351v-571h163v-54h-380v54h163v1348h-163v54h163h405zM288 679h351c138 0 241.833 34.333 311.5 103
s104.5 154.334 104.5 257.001c0 105.333 -34.667 192.166 -104 260.499s-173.333 102.5 -312 102.5h-351v-723z" />
    <glyph glyph-name="Q" unicode="Q" horiz-adv-x="1478" 
d="M1348 719c0 -154.667 -27.832 -289.5 -83.499 -404.5s-132.834 -201.167 -231.501 -258.5l310 -221l-39 -38l-325 231c-36.667 -16.667 -75 -29 -115 -37s-81.333 -12 -124 -12c-181.333 0 -328.333 67.5 -441 202.5s-169 314.167 -169 537.5v18
c0 223.333 56 402.5 168 537.5s258.667 202.5 440 202.5c180.667 0 327.5 -67.5 440.5 -202.5s169.5 -314.167 169.5 -537.5v-18zM1294 739c0 206 -50.501 371.5 -151.501 496.5s-235.833 187.5 -404.5 187.5c-168 0 -302.167 -62.5 -402.5 -187.5
s-150.5 -290.5 -150.5 -496.5v-20c0 -207.333 50.333 -373.5 151 -498.5s235.334 -187.5 404.001 -187.5s303.167 62.5 403.5 187.5s150.5 291.167 150.5 498.5v20z" />
    <glyph glyph-name="R" unicode="R" horiz-adv-x="1364" 
d="M648 1455c153.333 0 271.333 -33.168 354 -99.501s124 -163.166 124 -290.499c0 -82 -26.167 -156.5 -78.5 -223.5s-123.833 -110.5 -214.5 -130.5c104.667 -18 179.667 -56.333 225 -115s68 -133.667 68 -225v-147c0 -57.333 9.83301 -100 29.5 -128
s48.834 -42 87.501 -42h51v-54h-51c-64.667 -0 -109.334 21.833 -134.001 65.5s-37 97.167 -37 160.5v143c0 98.667 -33.833 175.667 -101.5 231s-164.167 83 -289.5 83h-393v-630h163v-54h-380v54h163v1348h-163v54h163h414zM288 736.999l350 -0.000976562
c148.667 0 258.167 31.333 328.5 94s105.5 140.667 105.5 234c0 108.667 -35.5 191.834 -106.5 249.501s-176.833 86.5 -317.5 86.5h-360v-664z" />
    <glyph glyph-name="S" unicode="S" horiz-adv-x="1198" 
d="M1077 1022l-54.001 0.00195312v204c-42.667 64.667 -99.834 113.667 -171.501 147s-156.5 50 -254.5 50c-132 0 -236.5 -29.5 -313.5 -88.5s-115.5 -129.833 -115.5 -212.5s31.833 -151.334 95.5 -206.001s178.834 -103.334 345.501 -146.001
c161.333 -42.667 283.166 -94.834 365.499 -156.501s123.5 -149.167 123.5 -262.5c0 -115.333 -47 -206.166 -141 -272.499s-211.667 -99.5 -353 -99.5c-97.333 0 -190.833 18.167 -280.5 54.5s-164.167 93.166 -223.5 170.499v240h54v-217
c52 -68 118.333 -117.333 199 -148s164.334 -46 251.001 -46c128 0 233.167 29.333 315.5 88s123.5 134.667 123.5 228c0 91.333 -33.5 164.333 -100.5 219s-183.167 104.667 -348.5 150c-166 44.667 -287.5 95.5 -364.5 152.5s-115.5 140.167 -115.5 249.5
c0 108.667 45.333 195.334 136 260.001s206.334 97 347.001 97c109.333 0 204.833 -18.833 286.5 -56.5s146.167 -94.167 193.5 -169.5v-229z" />
    <glyph glyph-name="T" unicode="T" horiz-adv-x="1277" 
d="M1194 1456v-293h-54v239h-476v-1348h163v-54h-380v54h163v1348h-476v-239h-54v293h1114z" />
    <glyph glyph-name="U" unicode="U" horiz-adv-x="1441" 
d="M440 1456v-54h-163v-933c0 -136.667 41.333 -243.5 124 -320.5s189.334 -115.5 320.001 -115.5c130 0 236.333 38.5 319 115.5s124 183.833 124 320.5v933h-163v54h217h163v-54h-163v-933c0 -158.667 -46 -280 -138 -364s-211.667 -126 -359 -126
c-148.667 0 -268.834 42.167 -360.501 126.5s-137.5 205.5 -137.5 363.5v933h-163v54h163h54h163z" />
    <glyph glyph-name="V" unicode="V" horiz-adv-x="1442" 
d="M366 1402h-143l469 -1260l26 -79h6l26 79l469 1260h-143v54h309v-54h-107l-524 -1402h-66l-524 1402h-107v54h309v-54z" />
    <glyph glyph-name="W" unicode="W" horiz-adv-x="1960" 
d="M367 1402h-150l269 -1072l63 -229h6l63 229l364 1126h60l362 -1126l62 -229h6l65 229l266 1072h-149v54h309v-54h-101l-358 -1402h-61l-381 1214l-48 145h-6l-46 -145l-384 -1214h-61l-359 1402h-101v54h310v-54z" />
    <glyph glyph-name="X" unicode="X" horiz-adv-x="1391" 
d="M63 54h115l486 689l-466 659h-115v54h338v-54h-156l432 -617l433 617h-155v54h337v-54h-115l-465 -659l486 -689h115v-54h-337v54h155l-454 647l-453 -647h155v-54h-336v54z" />
    <glyph glyph-name="Y" unicode="Y" horiz-adv-x="1429" 
d="M371 1402h-131l449 -755l26 -50l27 50l451 755h-131v54h316v-54h-120l-514 -849v-499h163v-54h-381v54h163v499l-515 849h-119v54h316v-54z" />
    <glyph glyph-name="Z" unicode="Z" horiz-adv-x="1220" 
d="M166 54h908v239h54v-293h-1036v44l929 1359h-835v-240h-54v293h964v-38z" />
    <glyph glyph-name="bracketleft" unicode="[" horiz-adv-x="527" 
d="M440 1610h-229v-1868h229v-54h-283v1976h283v-54z" />
    <glyph glyph-name="backslash" unicode="\" horiz-adv-x="784" 
d="M36 1456h58l608 -1581h-58z" />
    <glyph glyph-name="bracketright" unicode="]" horiz-adv-x="505" 
d="M23 1664h283v-1976h-283v54h228v1868h-228v54z" />
    <glyph glyph-name="asciicircum" unicode="^" horiz-adv-x="828" 
d="M130 729h-59l299 727h52l299 -727h-61l-222 543l-40 114h-6l-43 -114z" />
    <glyph glyph-name="underscore" unicode="_" horiz-adv-x="1134" 
d="M965 -54h-846v54h846v-54z" />
    <glyph glyph-name="grave" unicode="`" horiz-adv-x="546" 
d="M395 1215l-2 -5h-75l-234 261l2 5h89z" />
    <glyph glyph-name="a" unicode="a" horiz-adv-x="1132" 
d="M885 0c-8.66699 47.333 -14.498 82.835 -17.498 106.502s-4.5 49.167 -4.5 76.5v16c-41.333 -64.667 -99.166 -117.5 -173.499 -158.5s-161.833 -61.5 -262.5 -61.5c-100 0 -178.833 27.167 -236.5 81.5s-86.5 125.5 -86.5 213.5c0 97.333 44.333 176.666 133 237.999
s207.667 92 357 92h269v158c0 90 -28.833 160.167 -86.5 210.5s-138.834 75.5 -243.501 75.5c-68.667 0 -132.834 -9.66699 -192.501 -29s-110.5 -46 -152.5 -80l-1 -173h-54l1 206c51.333 38 111.833 69.167 181.5 93.5s142.167 36.5 217.5 36.5c116 0 209 -29.333 279 -88
s105 -143.334 105 -254.001v-542c0 -28 1.16699 -55.667 3.5 -83s6.16602 -54.333 11.499 -81h130v-54h-177zM427.002 32.002c102 0 190.667 23.001 266 69.001s132 109.667 170 191v257h-266c-132.667 0 -239 -25.833 -319 -77.5s-120 -118.834 -120 -201.501
c0 -67.333 24.667 -123.833 74 -169.5s114.333 -68.5 195 -68.5z" />
    <glyph glyph-name="b" unicode="b" horiz-adv-x="1088" 
d="M984 521c0 -166.667 -35.999 -298.667 -107.999 -396s-171.333 -146 -298 -146c-86 0 -160.5 17.5 -223.5 52.5s-112.167 82.167 -147.5 141.5l-7 -173h-45v1506h-163v54h217v-675c36 67.333 84.667 120.333 146 159s135 58 221 58
c127.333 0 227.166 -50.5 299.499 -151.5s108.5 -237.167 108.5 -408.5v-21zM928.001 542c0 150 -29.999 271.833 -89.999 365.5s-147 140.5 -261 140.5c-105.333 0 -186.833 -26.833 -244.5 -80.5s-98.834 -119.5 -123.501 -197.5v-496
c26 -73.333 70.167 -131.833 132.5 -175.5s141.5 -65.5 237.5 -65.5c114 0 200.667 44 260 132s89 206.667 89 356v21z" />
    <glyph glyph-name="c" unicode="c" horiz-adv-x="1086" 
d="M546 33c91.333 0 172 25.001 242 75.001s105 125 105 225h46l2 -6c2.66699 -106 -36.166 -190.5 -116.499 -253.5s-173.166 -94.5 -278.499 -94.5c-138 0 -246.167 49.667 -324.5 149s-117.5 230 -117.5 392v42c0 161.333 39 291.666 117 390.999s185.667 149 323 149
c81.333 0 156.666 -16.833 225.999 -50.5s125 -79.167 167 -136.5v-232h-54v212c-38 46.667 -85.833 83.834 -143.5 111.501s-122.834 41.5 -195.501 41.5c-126.667 0 -222.667 -45.333 -288 -136s-98 -207.334 -98 -350.001v-42c0 -144 32.667 -261.167 98 -351.5
s162 -135.5 290 -135.5z" />
    <glyph glyph-name="d" unicode="d" horiz-adv-x="1205" 
d="M879 173c-35.333 -59.333 -84.332 -106.5 -146.999 -141.5s-136.667 -52.5 -222 -52.5c-127.333 0 -226.833 48.667 -298.5 146s-107.5 229.333 -107.5 396v21c0 171.333 36 307.5 108 408.5s172 151.5 300 151.5c85.333 0 158.666 -19.5 219.999 -58.5
s110.333 -92.5 147 -160.5v623h-163v54h163h54v-1506h163v-54h-215zM160.001 521c0 -149.333 29.501 -267.999 88.501 -355.999s145.833 -132 260.5 -132c94 0 172.167 21.333 234.5 64s107.5 99.667 135.5 171v507c-26 77.333 -68 142.166 -126 194.499
s-138.667 78.5 -242 78.5c-114.667 0 -201.834 -46.833 -261.501 -140.5s-89.5 -215.5 -89.5 -365.5v-21z" />
    <glyph glyph-name="e" unicode="e" horiz-adv-x="1104" 
d="M566 -21c-123.333 0 -229.833 49.832 -319.5 149.499s-134.5 223.5 -134.5 371.5v64c0 155.333 43.333 283.833 130 385.5s193.667 152.5 321 152.5c122 0 221.5 -40 298.5 -120s115.5 -187.333 115.5 -322v-83h-811v-13v-64c0 -130.667 38.333 -241.167 115 -331.5
s171.667 -135.5 285 -135.5c80.667 0 148.167 11 202.5 33s100.833 55 139.5 99l29 -42c-42.667 -47.333 -94.5 -83.166 -155.5 -107.499s-132.833 -36.5 -215.5 -36.5zM563 1048c-107.333 0 -196.667 -39.168 -268 -117.501s-111.666 -176.166 -120.999 -293.499l3 -6h746
v33c0 110 -33.333 201.5 -100 274.5s-153.334 109.5 -260.001 109.5z" />
    <glyph glyph-name="f" unicode="f" horiz-adv-x="722" 
d="M114 54h162.998v973h-188v55h188v178c0 102 24.833 181 74.5 237s119.167 84 208.5 84c22 0 43.833 -1.33301 65.5 -4s42.5 -7 62.5 -13l-8 -52c-21.333 5.33301 -40.166 9.16602 -56.499 11.499s-37.166 3.5 -62.499 3.5c-72 0 -128.333 -23.667 -169 -71
s-61 -112.666 -61 -195.999v-178h286v-55h-286v-973h163v-54h-380v54z" />
    <glyph glyph-name="g" unicode="g" horiz-adv-x="1140" 
d="M112 542c0 171.333 36 307.5 108 408.5s172 151.5 300 151.5c85.333 0 158.833 -19.667 220.5 -59s110.5 -93 146.5 -161l8 200h46v-1068c0 -138.667 -36.5 -248.5 -109.5 -329.5s-172.833 -121.5 -299.5 -121.5c-52.667 0 -107.5 5.5 -164.5 16.5
s-106.833 26.167 -149.5 45.5l16 54c48.667 -21.333 95.667 -37.166 141 -47.499s97 -15.5 155 -15.5c115.333 0 203.5 35.5 264.5 106.5s91.5 168.167 91.5 291.5v157c-36 -58.667 -85.167 -105.334 -147.5 -140.001s-135.833 -52 -220.5 -52
c-127.333 0 -226.833 48.667 -298.5 146s-107.5 229.333 -107.5 396v21zM167 521c0 -149.333 29.666 -268 88.999 -356s146.333 -132 261 -132c96 0 174.833 22 236.5 66s105.834 103 132.501 177v491c-25.333 79.333 -66.5 146 -123.5 200s-138.167 81 -243.5 81
c-114.667 0 -202 -46.833 -262 -140.5s-90 -215.5 -90 -365.5v-21z" />
    <glyph glyph-name="h" unicode="h" horiz-adv-x="1278" 
d="M62 1506l-0.000976562 54h217v-706c33.333 78.667 82.333 139.667 147 183s143.667 65 237 65c112.667 0 198.167 -35.667 256.5 -107s87.5 -183.666 87.5 -336.999v-604h163v-54h-381v54h163v606c0 142 -26.167 242.167 -78.5 300.5s-122.166 87.5 -209.499 87.5
c-116.667 0 -206 -34.833 -268 -104.5s-101 -158.834 -117 -267.501v-622h163v-54h-380v54h163v1452h-163z" />
    <glyph glyph-name="i" unicode="i" horiz-adv-x="609" 
d="M89 54h163v974h-163v54h217v-1028h163v-54h-380v54zM306 1422h-54v138h54v-138z" />
    <glyph glyph-name="j" unicode="j" horiz-adv-x="555" 
d="M384 -89c0 -111.333 -24.998 -197.166 -74.998 -257.499s-120 -90.5 -210 -90.5c-20 0 -38.667 1.66699 -56 5s-36 8.33301 -56 15l13 52c12 -4 27.167 -8 45.5 -12s36.166 -6 53.499 -6c73.333 0 130.166 25.667 170.499 77s60.5 123.666 60.5 216.999v1117h-163v54h217
v-1171zM378.002 1426h-54v134h54v-134z" />
    <glyph glyph-name="k" unicode="k" horiz-adv-x="1152" 
d="M62 1506v54h217v-953h127l430 415l-2 6h-119v54h321v-54h-122l-447 -439l489 -535h117v-54h-320v54h126l2 5l-454 494h-148v-499h163v-54h-380v54h163v1452h-163z" />
    <glyph glyph-name="l" unicode="l" horiz-adv-x="581" 
d="M82 1506v54h217v-1506h163v-54h-380v54h163v1452h-163z" />
    <glyph glyph-name="m" unicode="m" horiz-adv-x="1980" 
d="M89 54h163.003v974h-163v54h210l7 -223c32.667 76.667 79.667 136.334 141 179.001s136 64 224 64c93.333 0 169.166 -23.833 227.499 -71.5s98.5 -121.167 120.5 -220.5c28.667 92 75.5 163.833 140.5 215.5s146.167 77.5 243.5 77.5c119.333 0 210 -39 272 -117
s93 -200.667 93 -368v-563h163v-54h-381v54h163v565c0 156.667 -28 267.334 -84 332.001s-130.667 97 -224 97c-114.667 0 -201.334 -34.5 -260.001 -103.5s-95.334 -158.167 -110.001 -267.5c0 -13.333 0.333008 -24.833 1 -34.5s1 -19.167 1 -28.5v-561h163v-54h-381v54
h163v565c0 157.333 -28 268.166 -84 332.499s-131 96.5 -225 96.5c-112 0 -197 -32.833 -255 -98.5s-95 -150.834 -111 -255.501v-640h163v-54h-381v54z" />
    <glyph glyph-name="n" unicode="n" horiz-adv-x="1320" 
d="M89 54l162.999 0.000976562v974h-163v54h209l7 -223c32.667 77.333 80.334 137.166 143.001 179.499s140 63.5 232 63.5c118 0 206.5 -37.167 265.5 -111.5s88.5 -192.166 88.5 -353.499v-583h163v-54h-380v54h163v585c0 150 -26.833 255.667 -80.5 317
s-126.5 92 -218.5 92c-116.667 0 -204.667 -34.833 -264 -104.5s-96.333 -158.834 -111 -267.501v-622h163v-54h-380v54z" />
    <glyph glyph-name="o" unicode="o" horiz-adv-x="1155" 
d="M104 562c0 158.667 43.832 288.334 131.499 389.001s201.5 151 341.5 151c140.667 0 254.834 -50.333 342.501 -151s131.5 -230.334 131.5 -389.001v-42c0 -159.333 -43.833 -289.333 -131.5 -390s-201.167 -151 -340.5 -151c-140.667 0 -255 50.333 -343 151
s-132 230.667 -132 390v42zM157.999 520c0 -136 38.001 -251.167 114.001 -345.5s178.333 -141.5 307 -141.5c126.667 0 228 47.333 304 142s114 209.667 114 345v42c0 132.667 -38.333 246.834 -115 342.501s-178.334 143.5 -305.001 143.5
c-127.333 0 -229 -47.833 -305 -143.5s-114 -209.834 -114 -342.501v-42z" />
    <glyph glyph-name="p" unicode="p" horiz-adv-x="1161" 
d="M65 -362h163.001v1390h-163v54h205l11 -194c36 66.667 85 119 147 157s135.667 57 221 57c127.333 0 227.166 -50.5 299.499 -151.5s108.5 -237.167 108.5 -408.5v-21c0 -166.667 -36 -298.667 -108 -396s-171.333 -146 -298 -146c-84.667 0 -158.5 17 -221.5 51
s-112.167 80 -147.5 138v-530h163v-54h-380v54zM1002 542c0 150 -30.1689 271.834 -90.502 365.501s-147.5 140.5 -261.5 140.5c-104.667 0 -186 -26.333 -244 -79s-99.333 -117.334 -124 -194.001v-506c26.667 -72 71.334 -129.333 134.001 -172s141.334 -64 236.001 -64
c114 0 200.833 44 260.5 132s89.5 206.667 89.5 356v21z" />
    <glyph glyph-name="q" unicode="q" horiz-adv-x="1136" 
d="M104 542c0 171.333 35.999 307.499 107.999 408.499s172 151.5 300 151.5c84.667 0 157.834 -19.167 219.501 -57.5s110.834 -91.166 147.501 -158.499l5 196h49v-1444h163v-54h-380v54h163v532c-36 -58.667 -85.333 -105.167 -148 -139.5s-136.334 -51.5 -221.001 -51.5
c-127.333 0 -226.833 48.667 -298.5 146s-107.5 229.333 -107.5 396v21zM159.999 520.999c0 -149.333 29.5029 -268 88.5029 -356s145.833 -132 260.5 -132c95.333 0 174.166 21.833 236.499 65.5s106.833 102.167 133.5 175.5v494c-25.333 76.667 -67.333 142.5 -126 197.5
s-139.334 82.5 -242.001 82.5c-114.667 0 -201.834 -46.833 -261.501 -140.5s-89.5 -215.5 -89.5 -365.5v-21z" />
    <glyph glyph-name="r" unicode="r" horiz-adv-x="803" 
d="M296 1082l10 -188v-37c30 77.333 74.667 137.5 134 180.5s132.333 64.5 219 64.5c15.333 0 29.5 -1.16699 42.5 -3.5s24.167 -4.83301 33.5 -7.5l-6 -48l-70 6c-96.667 0 -175.167 -31.167 -235.5 -93.5s-99.5 -144.5 -117.5 -246.5v-655h163v-54h-380v54h163v974h-163
v54h163h44z" />
    <glyph glyph-name="s" unicode="s" horiz-adv-x="1009" 
d="M852 753l-53.999 0.00195312v175c-34.667 38.667 -78.834 68.334 -132.501 89.001s-115.834 31 -186.501 31c-101.333 0 -178 -21.833 -230 -65.5s-78 -94.167 -78 -151.5c0 -56.667 22 -105 66 -145s131.333 -75 262 -105c120.667 -28 212.167 -66.167 274.5 -114.5
s93.5 -115.833 93.5 -202.5c0 -84.667 -34.667 -153.334 -104 -206.001s-161.333 -79 -276 -79c-78.667 0 -151.167 12.667 -217.5 38s-121.833 60.333 -166.5 105v193h54v-163c39.333 -42 88 -72.333 146 -91s119.333 -28 184 -28c100 0 179.333 23.333 238 70
s88 100.667 88 162c0 57.333 -24.5 109.5 -73.5 156.5s-134.5 83.833 -256.5 110.5c-127.333 26.667 -220.166 62.167 -278.499 106.5s-87.5 107.833 -87.5 190.5c0 77.333 32.667 142.166 98 194.499s153.333 78.5 264 78.5c77.333 0 148.833 -13.333 214.5 -40
s118.5 -62.334 158.5 -107.001v-202z" />
    <glyph glyph-name="t" unicode="t" horiz-adv-x="719" 
d="M320 1374l0.000976562 -291.997h266v-55h-266v-748c0 -88.667 15 -151.834 45 -189.501s69.667 -56.5 119 -56.5c21.333 0 40.333 0.666992 57 2s39.667 3.66602 69 6.99902l10 -49c-20 -5.33301 -40.5 -9 -61.5 -11s-44.833 -3 -71.5 -3
c-72.667 0 -127.834 23.667 -165.501 71s-56.5 123.666 -56.5 228.999v748h-200v55h200v292h55z" />
    <glyph glyph-name="u" unicode="u" horiz-adv-x="1222" 
d="M918 194c-34 -68.667 -82.5 -121.666 -145.5 -158.999s-139.5 -56 -229.5 -56c-111.333 0 -198.5 39.5 -261.5 118.5s-94.5 201.5 -94.5 367.5v563h-143v54h143h54v-619c0 -146.667 27 -255 81 -325s127 -105 219 -105c112.667 0 199.167 27.667 259.5 83
s98.833 128.666 115.5 219.999v692h-163v54h163h55v-1028h163v-54h-208z" />
    <glyph glyph-name="v" unicode="v" horiz-adv-x="1165" 
d="M370 1028h-142l313 -799l51 -146h6l52 146l312 799h-142v54h318v-54h-118l-400 -1027l1 -1h-52l-399 1028h-118v54h318v-54z" />
    <glyph glyph-name="w" unicode="w" horiz-adv-x="1687" 
d="M374 1028h-148l206 -715l56 -222l6 -1l71 223l243 769h55l242 -769l70 -223l6 1l58 222l204 715h-147v54h323v-54h-113l-299 -1028h-54l-267 813l-48 183h-6l-52 -183l-263 -813h-54l-299 1028h-112v54h322v-54z" />
    <glyph glyph-name="x" unicode="x" horiz-adv-x="1192" 
d="M82 54h126l361 501l-341 473h-126v54h318v-54h-124l307 -426l306 426h-124v54h318v-54h-126l-341 -473l361 -501h126v-54h-317v54h124l-328 454l-327 -454h124v-54h-317v54z" />
    <glyph glyph-name="y" unicode="y" horiz-adv-x="1185" 
d="M374 1028h-142l335 -832l40 -108h6l6 16l353 924h-142v54h320v-54h-118l-460 -1208c-29.333 -76 -63.5 -137.833 -102.5 -185.5s-101.167 -71.5 -186.5 -71.5c-12.667 0 -26.667 1.16699 -42 3.5s-26.666 4.83301 -33.999 7.5l9 51c7.33301 -2 18.333 -4 33 -6
s26 -3 34 -3c61.333 0 109.166 18 143.499 54s64.833 89.333 91.5 160l65 176l-410 1022h-118v54h319v-54z" />
    <glyph glyph-name="z" unicode="z" horiz-adv-x="1077" 
d="M120 0v44l711 983h-656v-238h-54v293h783v-48l-711 -980h716v239h54v-293h-843z" />
    <glyph glyph-name="braceleft" unicode="{" horiz-adv-x="693" 
d="M632 -441c-115.333 36.667 -197.333 94.333 -246 173s-73 174.667 -73 288v245c0 88 -20.333 156.333 -61 205s-103.667 73 -189 73v66c85.333 0 148.333 24 189 72s61 116 61 204v247c0 114 24.333 210.833 73 290.5s130.667 137.834 246 174.501l15 -45
c-95.333 -30.667 -165.833 -82.5 -211.5 -155.5s-68.5 -161.167 -68.5 -264.5v-247c0 -80 -17.333 -147.333 -52 -202s-87.667 -90.334 -159 -107.001c71.333 -17.333 124.333 -53.666 159 -108.999s52 -122.666 52 -201.999v-245c0 -102.667 23.5 -189.334 70.5 -260.001
s118.5 -122.334 214.5 -155.001z" />
    <glyph glyph-name="bar" unicode="|" horiz-adv-x="405" 
d="M204 -270h-54v1726h54v-1726z" />
    <glyph glyph-name="braceright" unicode="}" horiz-adv-x="692" 
d="M27 -395c95.333 32.667 166.501 84.334 213.501 155.001s70.5 157.334 70.5 260.001v245c0 79.333 17.167 146.666 51.5 201.999s87.5 91.666 159.5 108.999c-72 16.667 -125.167 52.334 -159.5 107.001s-51.5 122 -51.5 202v247c0 103.333 -22.833 191.5 -68.5 264.5
s-115.834 124.833 -210.501 155.5l14 45c114.667 -36.667 196.5 -94.834 245.5 -174.501s73.5 -176.5 73.5 -290.5v-247c0 -88 20.333 -156 61 -204s103.667 -72 189 -72v-66c-85.333 0 -148.333 -24.5 -189 -73.5s-61 -117.167 -61 -204.5v-245
c0 -114 -24.333 -210.167 -73 -288.5s-130.667 -135.833 -246 -172.5z" />
    <glyph glyph-name="asciitilde" unicode="~" horiz-adv-x="1368" 
d="M1216 740c0 -80.667 -25.165 -150.332 -75.498 -208.999s-113.166 -88 -188.499 -88c-58 0 -110.833 12.667 -158.5 38s-101.834 65.666 -162.501 120.999c-45.333 39.333 -87.833 68.833 -127.5 88.5s-79.834 29.5 -120.501 29.5c-59.333 0 -108 -22.667 -146 -68
s-57 -108.666 -57 -189.999l-59 12c0 85.333 24.5 156.666 73.5 213.999s111.833 86 188.5 86c57.333 0 110.166 -13.167 158.499 -39.5s103.166 -66.5 164.499 -120.5c44.667 -41.333 86.334 -71.333 125.001 -90s79 -28 121 -28c57.333 0 105.5 23.5 144.5 70.5
s58.5 109.167 58.5 186.5z" />
    <glyph glyph-name="nonbreakingspace" unicode="&#xa0;" horiz-adv-x="490" 
 />
    <glyph glyph-name="exclamdown" unicode="&#xa1;" horiz-adv-x="435" 
d="M216 -374h-54v978h54v-978zM237 918h-95v164h95v-164z" />
    <glyph glyph-name="cent" unicode="&#xa2;" horiz-adv-x="1063" 
d="M583 33c91.333 0 172.003 24.999 242.003 74.999s105 125 105 225h46l2 -6c2.66699 -97.333 -30.333 -176.666 -99 -237.999s-151.334 -97 -248.001 -107v-227h-55v224c-136.667 2 -243.334 52.5 -320.001 151.5s-115 228.833 -115 389.5v42
c0 160 38.5 289.5 115.5 388.5s183.5 149.5 319.5 151.5v216h55v-218c70.667 -6.66699 136 -26.5 196 -59.5s109 -74.833 147 -125.5v-232h-54v212c-38 46.667 -85.833 83.834 -143.5 111.501s-122.834 41.5 -195.501 41.5c-126.667 0 -222.667 -45.333 -288 -136
s-98 -207.334 -98 -350.001v-42c0 -144 32.667 -261.167 98 -351.5s162 -135.5 290 -135.5z" />
    <glyph glyph-name="sterling" unicode="&#xa3;" horiz-adv-x="1151" 
d="M132 0l0.000976562 54.002h10c59.333 10.667 103.666 59.167 132.999 145.5s44 175.166 44 266.499l-8 201h-243v54h241l-11 319c0 136 33.667 242.833 101 320.5s157.333 116.5 270 116.5c116.667 0 202 -34 256 -102s80 -161.333 78 -280l-2 -5h-47
c0 117.333 -24.5 202.166 -73.5 254.499s-119.5 78.5 -211.5 78.5c-98 0 -175.333 -33.333 -232 -100s-85 -161 -85 -283l11 -319h478v-54h-476l8 -201c0 -83.333 -12 -161.833 -36 -235.5s-58 -132.5 -102 -176.5h755v239h54v-293h-912z" />
    <glyph glyph-name="currency" unicode="&#xa4;" horiz-adv-x="1461" 
d="M1139 156c-54.667 -56 -117.499 -99.3301 -188.499 -129.997s-146.167 -46 -225.5 -46c-80 0 -155.5 15.167 -226.5 45.5s-133.833 73.166 -188.5 128.499l-176 -180l-40 39l179 182c-46 56 -81.5 119.167 -106.5 189.5s-37.5 144.833 -37.5 223.5
c0 81.333 13.333 158.166 40 230.499s64.667 136.833 114 193.5l-189 193l40 39l188 -192c53.333 51.333 114.5 91.166 183.5 119.499s142.167 42.5 219.5 42.5c76 0 148.5 -14.333 217.5 -43s130.833 -69 185.5 -121l191 195l41 -40l-193 -196
c48 -56.667 85.333 -121 112 -193s40 -148 40 -228c0 -78 -12.333 -151.833 -37 -221.5s-59.334 -132.167 -104.001 -187.5l182 -186l-41 -40zM184.001 608.003c0 -158.667 53 -294.167 159 -406.5s233.333 -168.5 382 -168.5c147.333 0 274.166 56.167 380.499 168.5
s159.5 247.833 159.5 406.5c0 158 -53.167 293 -159.5 405s-233.166 168 -380.499 168c-148.667 0 -276 -56 -382 -168s-159 -247 -159 -405z" />
    <glyph glyph-name="yen" unicode="&#xa5;" horiz-adv-x="1381" 
d="M1320 1402h-121l-455 -726h424v-55h-452v-240h452v-55h-452v-272h163v-54h-380v54h163v272h-450v55h450v240h-450v55h421l-453 726h-121v54h315v-54h-129l418 -664l24 -51h5l24 51l417 664h-129v54h316v-54z" />
    <glyph glyph-name="brokenbar" unicode="&#xa6;" horiz-adv-x="432" 
d="M150 -270v752h54v-752h-54zM204 698h-54v758h54v-758z" />
    <glyph glyph-name="section" unicode="&#xa7;" horiz-adv-x="1197" 
d="M1063 431c0 -70 -27.334 -128.666 -82.001 -175.999s-128.667 -77.666 -222 -90.999c87.333 -33.333 152.5 -74 195.5 -122s64.5 -111.667 64.5 -191c0 -107.333 -40.667 -191.833 -122 -253.5s-190.666 -92.5 -327.999 -92.5c-136.667 0 -251.5 34.167 -344.5 102.5
s-137.833 176.166 -134.5 323.499l2 5l46 2c0 -132.667 42.333 -229 127 -289s186 -90 304 -90c123.333 0 220 26.833 290 80.5s105 123.5 105 209.5c0 80 -26.833 142.833 -80.5 188.5s-156.167 88.5 -307.5 128.5c-163.333 38.667 -285.166 86.167 -365.499 142.5
s-120.5 137.166 -120.5 242.499c0 72 25.333 131.667 76 179s121 78 211 92c-81.333 32 -142 72.167 -182 120.5s-60 110.833 -60 187.5c0 104.667 41 188.667 123 252s191.667 95 329 95c142.667 0 253.667 -37.167 333 -111.5s117.666 -178.833 114.999 -313.5l-2 -6h-46
c0 108 -35.5 197.833 -106.5 269.5s-168.833 107.5 -293.5 107.5c-131.333 0 -230.5 -27.167 -297.5 -81.5s-100.5 -123.833 -100.5 -208.5c0 -84 26.5 -148.667 79.5 -194s158.5 -90.333 316.5 -135c168 -42.667 289.667 -89.5 365 -140.5s113 -128.5 113 -232.5z
M558.999 766.001c-20 4 -38.999 8.50195 -56.999 13.502s-35 10.5 -51 16.5c-101.333 -4.66699 -177.833 -29.334 -229.5 -74.001s-77.5 -101 -77.5 -169c0 -86.667 29.333 -151.834 88 -195.501s179 -91.167 361 -142.5l69 -19c107.333 0.666992 192 23 254 67
s93 99 93 165c0 82 -31.833 146.833 -95.5 194.5s-181.834 95.5 -354.501 143.5z" />
    <glyph glyph-name="dieresis" unicode="&#xa8;" horiz-adv-x="956" 
d="M758 1338h-136v118h136v-118zM289 1338h-137v118h137v-118z" />
    <glyph glyph-name="copyright" unicode="&#xa9;" horiz-adv-x="1596" 
d="M1085 596l2.99902 -6.00098c2 -100 -23.167 -176.333 -75.5 -229s-124.833 -79 -217.5 -79c-96 0 -173.333 35.667 -232 107s-88 164.666 -88 279.999v119c0 114.667 29.5 207.834 88.5 279.501s136.167 107.5 231.5 107.5c92.667 0 165.334 -26.5 218.001 -79.5
s78 -128.833 76 -227.5l-3 -6h-44c0 86 -21.333 150.833 -64 194.5s-103.667 65.5 -183 65.5c-82 0 -146.667 -31.667 -194 -95s-71 -142.666 -71 -237.999v-120c0 -96.667 23.5 -176.167 70.5 -238.5s111.833 -93.5 194.5 -93.5c80 0 141 21.167 183 63.5
s63 107.5 63 195.5h44zM147.999 728.999c0 -193.333 63.834 -357.5 191.501 -492.5s281.834 -202.5 462.501 -202.5c179.333 0 333.166 67.5 461.499 202.5s192.5 299.167 192.5 492.5c0 192.667 -64 356.167 -192 490.5s-282 201.5 -462 201.5
c-180.667 0 -334.834 -67.167 -462.501 -201.5s-191.5 -297.833 -191.5 -490.5zM92 728.999c0 210 69 387 207 531s305.667 216 503 216c196.667 0 364.167 -72 502.5 -216s207.5 -321 207.5 -531c0 -210.667 -69.167 -388.334 -207.5 -533.001s-305.833 -217 -502.5 -217
s-364.167 72.333 -502.5 217s-207.5 322.334 -207.5 533.001z" />
    <glyph glyph-name="ordfeminine" unicode="&#xaa;" horiz-adv-x="860" 
d="M638 706c-6.66699 18.667 -11.833 38.1689 -15.5 58.502s-5.83398 40.833 -6.50098 61.5c-26.667 -38.667 -62.167 -70.667 -106.5 -96s-95.833 -38 -154.5 -38c-79.333 0 -140.666 20.333 -183.999 61s-65 96.334 -65 167.001c0 67.333 24.667 119.666 74 156.999
s121 56 215 56h220v69c0 70 -17 124.333 -51 163s-83.333 58 -148 58c-76 0 -134.5 -15.667 -175.5 -47s-61.5 -77.333 -61.5 -138l-46 5l-2 6c-3.33301 65.333 21.5 119.666 74.5 162.999s123.167 65 210.5 65c76.667 0 138.167 -23.833 184.5 -71.5
s69.5 -115.834 69.5 -204.501v-314c0 -32 2 -62.833 6 -92.5s10.667 -59.167 20 -88.5h-58zM356.001 747.002c58 0 112.333 15.8311 163 47.498s82.667 66.834 96 105.501v177h-219c-75.333 0 -133.5 -14.667 -174.5 -44s-61.5 -65.666 -61.5 -108.999
c0 -56 16 -99.5 48 -130.5s81.333 -46.5 148 -46.5z" />
    <glyph glyph-name="guillemotleft" unicode="&#xab;" horiz-adv-x="905" 
d="M176 525l294 -379h-70l-295 370v19l295 370h70zM463 525l294 -379h-70l-295 370v19l295 370h70z" />
    <glyph glyph-name="logicalnot" unicode="&#xac;" horiz-adv-x="1104" 
d="M914 396h-54v304h-739v53h793v-357z" />
    <glyph glyph-name="uni00AD" unicode="&#xad;" horiz-adv-x="789" 
d="M624 599h-470v54h470v-54z" />
    <glyph glyph-name="registered" unicode="&#xae;" horiz-adv-x="1595" 
d="M92 729c0 210 69 387 207 531s305.667 216 503 216c196.667 0 364.167 -72 502.5 -216s207.5 -321 207.5 -531c0 -210.667 -69.167 -388.334 -207.5 -533.001s-305.833 -217 -502.5 -217c-197.333 0 -365 72.333 -503 217s-207 322.334 -207 533.001zM147 729
c0 -193.333 64.001 -357.5 192.001 -492.5s282.333 -202.5 463 -202.5c179.333 0 333.166 67.5 461.499 202.5s192.5 299.167 192.5 492.5c0 192.667 -64 356.167 -192 490.5s-282 201.5 -462 201.5c-180.667 0 -335 -67.167 -463 -201.5s-192 -297.833 -192 -490.5z
M625.001 688v-371.998h-55v850h239c95.333 0 167.333 -20.333 216 -61s73 -100.334 73 -179.001c0 -48.667 -13.333 -90.334 -40 -125.001s-64.334 -61.667 -113.001 -81c46.667 -14.667 80.334 -39.834 101.001 -75.501s31 -78.834 31 -129.501v-56
c0 -25.333 1.33301 -49.166 4 -71.499s7 -40.833 13 -55.5v-16h-59c-6.66699 14 -10.667 34.5 -12 61.5s-2 54.5 -2 82.5v54c0 62.667 -14 107.334 -42 134.001s-75.333 40 -142 40h-212zM625.001 744.002h204.999c60.667 0 111.334 16 152.001 48s61 77 61 135
c0 64 -17.5 110.667 -52.5 140s-95.5 44 -181.5 44h-184v-367z" />
    <glyph glyph-name="macron" unicode="&#xaf;" horiz-adv-x="986" 
d="M781 1403h-627v53h627v-53z" />
    <glyph glyph-name="macron" unicode="&#x2c9;" horiz-adv-x="986" 
d="M781 1403h-627v53h627v-53z" />
    <glyph glyph-name="degree" unicode="&#xb0;" horiz-adv-x="739" 
d="M124 1237c0 65.333 23 121.666 69 168.999s101.667 71 167 71c63.333 0 117.833 -23.667 163.5 -71s68.5 -103.666 68.5 -168.999c0 -66.667 -22.833 -122.834 -68.5 -168.501s-100.167 -68.5 -163.5 -68.5c-65.333 0 -121 22.833 -167 68.5s-69 101.834 -69 168.501z
M179 1237c0 -52.667 17.167 -96 51.5 -130s77.5 -51 129.5 -51c50.667 0 92.667 17 126 51s50 77.333 50 130c0 53.333 -16.667 97.5 -50 132.5s-75.333 52.5 -126 52.5c-52 0 -95.167 -17.667 -129.5 -53s-51.5 -79.333 -51.5 -132z" />
    <glyph glyph-name="plusminus" unicode="&#xb1;" horiz-adv-x="1104" 
d="M572 805h419v-54h-419v-462h-54v462h-443v54h443v462h54v-462zM1066 88h-835v54h835v-54z" />
    <glyph glyph-name="twosuperior" unicode="&#xb2;" horiz-adv-x="807" 
d="M657 667h-551.001v55l327 300c55.333 53.333 93.5 97 114.5 131s31.5 68 31.5 102c0 52 -16 93.167 -48 123.5s-80 45.5 -144 45.5c-69.333 0 -122.666 -17 -159.999 -51s-56 -77.667 -56 -131h-48l-3 6c-3.33301 63.333 19.667 117.666 69 162.999s115.333 68 198 68
c76.667 0 137.167 -19.167 181.5 -57.5s66.5 -94.166 66.5 -167.499c0 -46.667 -16.5 -92.167 -49.5 -136.5s-79.833 -95.833 -140.5 -154.5l-265 -235l2 -6h475v-55z" />
    <glyph glyph-name="threesuperior" unicode="&#xb3;" horiz-adv-x="831" 
d="M376 1103c71.333 0 123.833 13.499 157.5 40.499s50.5 65.833 50.5 116.5c0 48.667 -17.5 88 -52.5 118s-87.167 45 -156.5 45c-61.333 0 -112.333 -15.167 -153 -45.5s-61 -70.166 -61 -119.499h-46l-2 6c-4 62.667 19.667 114 71 154s115 60 191 60
c81.333 0 145.666 -19.167 192.999 -57.5s71 -92.833 71 -163.5c0 -40.667 -12 -77 -36 -109s-57.667 -56 -101 -72c49.333 -14 86.833 -37.167 112.5 -69.5s38.5 -73.5 38.5 -123.5c0 -71.333 -25.833 -127.166 -77.5 -167.499s-118.5 -60.5 -200.5 -60.5
c-76.667 0 -142.667 19.5 -198 58.5s-81.333 95.167 -78 168.5l2 6h48c0 -52 20.833 -94.667 62.5 -128s96.167 -50 163.5 -50c70.667 0 125.334 15.167 164.001 45.5s58 72.166 58 125.499c0 57.333 -18.5 99.333 -55.5 126s-92.167 40 -165.5 40h-114v56h114z" />
    <glyph glyph-name="acute" unicode="&#xb4;" horiz-adv-x="553" 
d="M320 1478h78l2 -5l-231 -261h-67l-2 5z" />
    <glyph glyph-name="mu" unicode="&#xb5;" horiz-adv-x="1282" 
d="M959 205c-32 -72.667 -78.001 -128.498 -138.001 -167.498s-135 -58.5 -225 -58.5c-68.667 0 -130.5 15 -185.5 45s-98.167 79 -129.5 147v-587h-52v1444h-163v54h163h52v-642c0 -148.667 28.333 -253.667 85 -315s130.334 -92 221.001 -92c122.667 0 212 31 268 93
s90 149.667 102 263v639h-163v54h217v-577h2c0 -10.667 -0.166992 -20.834 -0.5 -30.501s-0.833008 -21.834 -1.5 -36.501v-384h163v-54h-204z" />
    <glyph glyph-name="paragraph" unicode="&#xb6;" horiz-adv-x="1044" 
d="M570 520c-156 0 -276.999 43.168 -362.999 129.501s-129 199.166 -129 338.499c0 138 43.167 250.5 129.5 337.5s207.166 130.5 362.499 130.5h342v-54h-163v-1348h163v-54h-380v54h163v466h-125z" />
    <glyph glyph-name="periodcentered" unicode="&#xb7;" horiz-adv-x="480" 
d="M277 624h-118v152h118v-152z" />
    <glyph glyph-name="cedilla" unicode="&#xb8;" horiz-adv-x="470" 
d="M229 0l-11 -76c60.667 -4.66699 108.667 -19.834 144 -45.501s53 -66.834 53 -123.501c0 -58 -26.333 -104.167 -79 -138.5s-128 -51.5 -226 -51.5l-7 49c69.333 0 129.5 12 180.5 36s76.5 59 76.5 105c0 42.667 -15.167 72.334 -45.5 89.001
s-84.833 28.334 -163.5 35.001l25 121h53z" />
    <glyph glyph-name="onesuperior" unicode="&#xb9;" horiz-adv-x="471" 
d="M308 665h-54v747l-166 -14v56l220 23v-812z" />
    <glyph glyph-name="ordmasculine" unicode="&#xba;" horiz-adv-x="904" 
d="M121 1142c0 98.667 27.334 179.167 82.001 241.5s128.667 93.5 222 93.5s167.5 -31.167 222.5 -93.5s82.5 -142.833 82.5 -241.5v-117c0 -99.333 -27.333 -179.833 -82 -241.5s-128.334 -92.5 -221.001 -92.5c-94 0 -168.5 30.833 -223.5 92.5s-82.5 142.167 -82.5 241.5
v117zM175.001 1025c0 -83.333 20.999 -150.833 62.999 -202.5s105 -77.5 189 -77.5c80 0 141.667 26.167 185 78.5s65 119.5 65 201.5v117c0 81.333 -21.667 148.5 -65 201.5s-105.666 79.5 -186.999 79.5c-80.667 0 -142.5 -26.5 -185.5 -79.5s-64.5 -120.167 -64.5 -201.5
v-117z" />
    <glyph glyph-name="guillemotright" unicode="&#xbb;" horiz-adv-x="897" 
d="M175 940l294 -380v-19l-294 -370h-70l293 379l-293 390h70zM465 940l294 -380v-19l-294 -370h-70l293 379l-293 390h70z" />
    <glyph glyph-name="onequarter" unicode="&#xbc;" horiz-adv-x="1533" 
d="M370 664h-54v747l-166 -14v56l220 23v-812zM338 139l-45 31l711 1138l45 -31zM1245 241h176v-55h-176v-186h-55v186h-442v36l435 579h62v-560zM831 241h359v481l-6 2l-36 -60z" />
    <glyph glyph-name="onehalf" unicode="&#xbd;" horiz-adv-x="1447" 
d="M350 139l-45 31l711 1138l45 -31zM370 664h-54v747l-166 -14v56l220 23v-812zM1438 0h-551.001v55l327 300c55.333 53.333 93.5 97 114.5 131s31.5 68 31.5 102c0 52 -16 93.167 -48 123.5s-80 45.5 -144 45.5c-69.333 0 -122.666 -17 -159.999 -51s-56 -77.667 -56 -131
h-48l-3 6c-3.33301 63.333 19.667 117.666 69 162.999s115.333 68 198 68c76.667 0 137.167 -19.167 181.5 -57.5s66.5 -94.166 66.5 -167.499c0 -46.667 -16.5 -92.167 -49.5 -136.5s-79.833 -95.833 -140.5 -154.5l-265 -235l2 -6h475v-55z" />
    <glyph glyph-name="threequarters" unicode="&#xbe;" horiz-adv-x="1653" 
d="M565 139l-45 31l711 1138l45 -31zM1470 241h176v-55h-176v-186h-55v186h-442v36l435 579h62v-560zM1056 241h359v481l-6 2l-36 -60zM408 1104c71.333 0 123.833 13.499 157.5 40.499s50.5 65.833 50.5 116.5c0 48.667 -17.5 88 -52.5 118s-87.167 45 -156.5 45
c-61.333 0 -112.333 -15.167 -153 -45.5s-61 -70.166 -61 -119.499h-46l-2 6c-4 62.667 19.667 114 71 154s115 60 191 60c81.333 0 145.666 -19.167 192.999 -57.5s71 -92.833 71 -163.5c0 -40.667 -12 -77 -36 -109s-57.667 -56 -101 -72
c49.333 -14 86.833 -37.167 112.5 -69.5s38.5 -73.5 38.5 -123.5c0 -71.333 -25.833 -127.166 -77.5 -167.499s-118.5 -60.5 -200.5 -60.5c-76.667 0 -142.667 19.5 -198 58.5s-81.333 95.167 -78 168.5l2 6h48c0 -52 20.833 -94.667 62.5 -128s96.167 -50 163.5 -50
c70.667 0 125.334 15.167 164.001 45.5s58 72.166 58 125.499c0 57.333 -18.5 99.333 -55.5 126s-92.167 40 -165.5 40h-114v56h114z" />
    <glyph glyph-name="questiondown" unicode="&#xbf;" horiz-adv-x="839" 
d="M464 683c-1.33301 -78.667 -8.49805 -134.169 -21.498 -166.502s-47.5 -74.166 -103.5 -125.499c-81.333 -78 -139.5 -144.167 -174.5 -198.5s-52.5 -128.166 -52.5 -221.499c0 -97.333 25.833 -173.666 77.5 -228.999s125.5 -83 221.5 -83c94 0 167 28.167 219 84.5
s79.333 130.833 82 223.5h46l3 -6c0.666992 -113.333 -31.833 -200.833 -97.5 -262.5s-149.834 -92.5 -252.501 -92.5c-110 0 -196.333 33.667 -259 101s-94 156 -94 266c0 93.333 20.667 174 62 242s105 140.667 191 218c45.333 34.667 73.166 68.167 83.499 100.5
s15.5 82.166 15.5 149.499h54zM386.002 1083h82v-106h-82v106z" />
    <glyph glyph-name="Agrave" unicode="&#xc0;" 
d="M55 54h107l524 1402h66l525 -1402h107v-54h-309v54h143l-143 381h-712l-142 -381h143v-54h-309v54zM383 489h672l-305 820l-28 82h-6l-27 -82zM764 1577l-2 -5h-75l-234 261l2 5h89z" />
    <glyph glyph-name="Aacute" unicode="&#xc1;" 
d="M55 54h107l524 1402h66l525 -1402h107v-54h-309v54h143l-143 381h-712l-142 -381h143v-54h-309v54zM383 489h672l-305 820l-28 82h-6l-27 -82zM869 1811h78l2 -5l-231 -261h-67l-2 5z" />
    <glyph glyph-name="Acircumflex" unicode="&#xc2;" 
d="M55 54h107l524 1402h66l525 -1402h107v-54h-309v54h143l-143 381h-712l-142 -381h143v-54h-309v54zM383 489h672l-305 820l-28 82h-6l-27 -82zM970 1612v-13h-70l-185 186l-183 -186h-66v17l210 206h80z" />
    <glyph glyph-name="Atilde" unicode="&#xc3;" 
d="M55 54h107l524 1402h66l525 -1402h107v-54h-309v54h143l-143 381h-712l-142 -381h143v-54h-309v54zM383 489h672l-305 820l-28 82h-6l-27 -82zM1063 1799c0 -54.667 -17 -99.3311 -51 -133.998s-75.667 -52 -125 -52c-50.667 0 -102 20.833 -154 62.5
s-96.333 62.5 -133 62.5c-34.667 0 -63.5 -12.333 -86.5 -37s-34.5 -57.334 -34.5 -98.001l-55 10c0 53.333 16.667 96.5 50 129.5s75.333 49.5 126 49.5c48 0 99 -20.667 153 -62s98.667 -62 134 -62c33.333 0 61.833 13.167 85.5 39.5s35.5 60.166 35.5 101.499z" />
    <glyph glyph-name="Adieresis" unicode="&#xc4;" 
d="M55 54h107l524 1402h66l525 -1402h107v-54h-309v54h143l-143 381h-712l-142 -381h143v-54h-309v54zM383 489h672l-305 820l-28 82h-6l-27 -82zM1022 1671h-136v118h136v-118zM553 1671h-137v118h137v-118z" />
    <glyph glyph-name="Aring" unicode="&#xc5;" 
d="M55 54h107l524 1402h66l525 -1402h107v-54h-309v54h143l-143 381h-712l-142 -381h143v-54h-309v54zM383 489h672l-305 820l-28 82h-6l-27 -82zM578 1745c0 37.333 13.333 69.833 40 97.5s58.667 41.5 96 41.5c36 0 67.167 -13.667 93.5 -41s39.5 -60 39.5 -98
s-13 -70 -39 -96s-57.333 -39 -94 -39c-37.333 0 -69.333 13 -96 39s-40 58 -40 96zM635 1745c0 -22.667 7.66699 -41.5 23 -56.5s34 -22.5 56 -22.5c21.333 0 39.333 7.33301 54 22s22 33.667 22 57s-7.33301 42.833 -22 58.5s-32.667 23.5 -54 23.5
c-22 0 -40.667 -7.83301 -56 -23.5s-23 -35.167 -23 -58.5z" />
    <glyph glyph-name="AE" unicode="&#xc6;" horiz-adv-x="2026" 
d="M51 54h119l849 1402h776v-293h-54v239h-642l26 -616h588v-54h-586l28 -678h647v239h54v-293h-915v54h160l-15 371h-628l-223 -371h131v-54h-315v54zM490 478h594l-39 924l-5 1l-57 -105z" />
    <glyph glyph-name="Ccedilla" unicode="&#xc7;" horiz-adv-x="1373" 
d="M1256 992l-54.9951 -0.00195312v234c-44.667 60 -104.334 107.833 -179.001 143.5s-159.667 53.5 -255 53.5c-172.667 0 -313 -63 -421 -189s-162 -291 -162 -495v-20c0 -204.667 53.667 -370.167 161 -496.5s244.666 -189.5 411.999 -189.5c96 0 183 17.833 261 53.5
s139 83.5 183 143.5v234h55v-254c-48.667 -71.333 -117.334 -127.666 -206.001 -168.999s-186.334 -62 -293.001 -62c-184.667 0 -335.334 68.5 -452.001 205.5s-175 315.167 -175 534.5v18c0 220 58.667 398.333 176 535s271 205 461 205
c105.333 0 200.833 -20.667 286.5 -62s153.167 -97.666 202.5 -168.999v-254zM800.005 -0.00195312l-11 -76c60.667 -4.66699 108.667 -19.834 144 -45.501s53 -66.834 53 -123.501c0 -58 -26.333 -104.167 -79 -138.5s-128 -51.5 -226 -51.5l-7 49
c69.333 0 129.5 12 180.5 36s76.5 59 76.5 105c0 42.667 -15.167 72.334 -45.5 89.001s-84.833 28.334 -163.5 35.001l25 121h53z" />
    <glyph glyph-name="Egrave" unicode="&#xc8;" horiz-adv-x="1270" 
d="M71 0v54h163v1348h-163v54h1049v-293h-54v239h-778v-616h630v-54h-630v-678h778v239h54v-293h-1049zM669 1579l-2 -5h-75l-234 261l2 5h89z" />
    <glyph glyph-name="Eacute" unicode="&#xc9;" horiz-adv-x="1270" 
d="M71 0v54h163v1348h-163v54h1049v-293h-54v239h-778v-616h630v-54h-630v-678h778v239h54v-293h-1049zM774 1813h78l2 -5l-231 -261h-67l-2 5z" />
    <glyph glyph-name="Ecircumflex" unicode="&#xca;" horiz-adv-x="1270" 
d="M71 0v54h163v1348h-163v54h1049v-293h-54v239h-778v-616h630v-54h-630v-678h778v239h54v-293h-1049zM875 1614v-13h-70l-185 186l-183 -186h-66v17l210 206h80z" />
    <glyph glyph-name="Edieresis" unicode="&#xcb;" horiz-adv-x="1270" 
d="M71 0v54h163v1348h-163v54h1049v-293h-54v239h-778v-616h630v-54h-630v-678h778v239h54v-293h-1049zM927 1673h-136v118h136v-118zM458 1673h-137v118h137v-118z" />
    <glyph glyph-name="Igrave" unicode="&#xcc;" horiz-adv-x="598" 
d="M109 1402v54h380v-54h-163v-1348h163v-54h-380v54h163v1348h-163zM358 1579l-2 -5h-75l-234 261l2 5h89z" />
    <glyph glyph-name="Iacute" unicode="&#xcd;" horiz-adv-x="598" 
d="M109 1402v54h380v-54h-163v-1348h163v-54h-380v54h163v1348h-163zM462 1813h78l2 -5l-231 -261h-67l-2 5z" />
    <glyph glyph-name="Icircumflex" unicode="&#xce;" horiz-adv-x="598" 
d="M109 1402v54h380v-54h-163v-1348h163v-54h-380v54h163v1348h-163zM564 1614v-13h-70l-185 186l-183 -186h-66v17l210 206h80z" />
    <glyph glyph-name="Idieresis" unicode="&#xcf;" horiz-adv-x="598" 
d="M109 1402v54h380v-54h-163v-1348h163v-54h-380v54h163v1348h-163zM616 1673h-136v118h136v-118zM147 1673h-137v118h137v-118z" />
    <glyph glyph-name="Eth" unicode="&#xd0;" horiz-adv-x="1416" 
d="M667 1456c167.333 0 309.333 -59.999 426 -179.999s175 -273 175 -459v-178c0 -186.667 -58.333 -339.834 -175 -459.501s-258.667 -179.5 -426 -179.5h-566v54h163v659h-128v54h128v635h-163v54h566zM723 713.001l-405 -0.00195312v-659h349
c151.333 0 280.333 55.333 387 166s160 250.334 160 419.001v181c0 166.667 -53.333 305.334 -160 416.001s-235.667 166 -387 166h-349v-635h405v-54z" />
    <glyph glyph-name="Ntilde" unicode="&#xd1;" horiz-adv-x="1517" 
d="M1446 1456v-54h-163v-1402h-54l-934 1356l-6 -2v-1300h163v-54h-381v54h163v1348h-163v54h163h55l934 -1353l6 2v1297h-163v54h217h163zM1075 1801c0 -54.667 -17 -99.3311 -51 -133.998s-75.667 -52 -125 -52c-50.667 0 -102 20.833 -154 62.5s-96.333 62.5 -133 62.5
c-34.667 0 -63.5 -12.333 -86.5 -37s-34.5 -57.334 -34.5 -98.001l-55 10c0 53.333 16.667 96.5 50 129.5s75.333 49.5 126 49.5c48 0 99 -20.667 153 -62s98.667 -62 134 -62c33.333 0 61.833 13.167 85.5 39.5s35.5 60.166 35.5 101.499z" />
    <glyph glyph-name="Ograve" unicode="&#xd2;" horiz-adv-x="1488" 
d="M1348 719c0 -224 -56.167 -403.333 -168.5 -538s-258.833 -202 -439.5 -202c-181.333 0 -328.333 67.5 -441 202.5s-169 314.167 -169 537.5v18c0 223.333 56 402.5 168 537.5s258.667 202.5 440 202.5c180.667 0 327.5 -67.5 440.5 -202.5s169.5 -314.167 169.5 -537.5
v-18zM1294 739c0 206 -50.501 371.5 -151.501 496.5s-235.833 187.5 -404.5 187.5c-168 0 -302.167 -62.5 -402.5 -187.5s-150.5 -290.5 -150.5 -496.5v-20c0 -207.333 50.333 -373.5 151 -498.5s235.334 -187.5 404.001 -187.5s303.167 62.5 403.5 187.5
s150.5 291.167 150.5 498.5v20zM786.999 1600l-2 -5h-75l-234 261l2 5h89z" />
    <glyph glyph-name="Oacute" unicode="&#xd3;" horiz-adv-x="1488" 
d="M1348 719c0 -224 -56.167 -403.333 -168.5 -538s-258.833 -202 -439.5 -202c-181.333 0 -328.333 67.5 -441 202.5s-169 314.167 -169 537.5v18c0 223.333 56 402.5 168 537.5s258.667 202.5 440 202.5c180.667 0 327.5 -67.5 440.5 -202.5s169.5 -314.167 169.5 -537.5
v-18zM1294 739c0 206 -50.501 371.5 -151.501 496.5s-235.833 187.5 -404.5 187.5c-168 0 -302.167 -62.5 -402.5 -187.5s-150.5 -290.5 -150.5 -496.5v-20c0 -207.333 50.333 -373.5 151 -498.5s235.334 -187.5 404.001 -187.5s303.167 62.5 403.5 187.5
s150.5 291.167 150.5 498.5v20zM891.999 1834h78l2 -5l-231 -261h-67l-2 5z" />
    <glyph glyph-name="Ocircumflex" unicode="&#xd4;" horiz-adv-x="1488" 
d="M1348 719c0 -224 -56.167 -403.333 -168.5 -538s-258.833 -202 -439.5 -202c-181.333 0 -328.333 67.5 -441 202.5s-169 314.167 -169 537.5v18c0 223.333 56 402.5 168 537.5s258.667 202.5 440 202.5c180.667 0 327.5 -67.5 440.5 -202.5s169.5 -314.167 169.5 -537.5
v-18zM1294 739c0 206 -50.501 371.5 -151.501 496.5s-235.833 187.5 -404.5 187.5c-168 0 -302.167 -62.5 -402.5 -187.5s-150.5 -290.5 -150.5 -496.5v-20c0 -207.333 50.333 -373.5 151 -498.5s235.334 -187.5 404.001 -187.5s303.167 62.5 403.5 187.5
s150.5 291.167 150.5 498.5v20zM992.999 1635v-13h-70l-185 186l-183 -186h-66v17l210 206h80z" />
    <glyph glyph-name="Otilde" unicode="&#xd5;" horiz-adv-x="1488" 
d="M1348 719c0 -224 -56.167 -403.333 -168.5 -538s-258.833 -202 -439.5 -202c-181.333 0 -328.333 67.5 -441 202.5s-169 314.167 -169 537.5v18c0 223.333 56 402.5 168 537.5s258.667 202.5 440 202.5c180.667 0 327.5 -67.5 440.5 -202.5s169.5 -314.167 169.5 -537.5
v-18zM1294 739c0 206 -50.501 371.5 -151.501 496.5s-235.833 187.5 -404.5 187.5c-168 0 -302.167 -62.5 -402.5 -187.5s-150.5 -290.5 -150.5 -496.5v-20c0 -207.333 50.333 -373.5 151 -498.5s235.334 -187.5 404.001 -187.5s303.167 62.5 403.5 187.5
s150.5 291.167 150.5 498.5v20zM1086 1822c0 -54.667 -17 -99.3311 -51 -133.998s-75.667 -52 -125 -52c-50.667 0 -102 20.833 -154 62.5s-96.333 62.5 -133 62.5c-34.667 0 -63.5 -12.333 -86.5 -37s-34.5 -57.334 -34.5 -98.001l-55 10c0 53.333 16.667 96.5 50 129.5
s75.333 49.5 126 49.5c48 0 99 -20.667 153 -62s98.667 -62 134 -62c33.333 0 61.833 13.167 85.5 39.5s35.5 60.166 35.5 101.499z" />
    <glyph glyph-name="Odieresis" unicode="&#xd6;" horiz-adv-x="1488" 
d="M1348 719c0 -224 -56.167 -403.333 -168.5 -538s-258.833 -202 -439.5 -202c-181.333 0 -328.333 67.5 -441 202.5s-169 314.167 -169 537.5v18c0 223.333 56 402.5 168 537.5s258.667 202.5 440 202.5c180.667 0 327.5 -67.5 440.5 -202.5s169.5 -314.167 169.5 -537.5
v-18zM1294 739c0 206 -50.501 371.5 -151.501 496.5s-235.833 187.5 -404.5 187.5c-168 0 -302.167 -62.5 -402.5 -187.5s-150.5 -290.5 -150.5 -496.5v-20c0 -207.333 50.333 -373.5 151 -498.5s235.334 -187.5 404.001 -187.5s303.167 62.5 403.5 187.5
s150.5 291.167 150.5 498.5v20zM1045 1694h-136v118h136v-118zM575.999 1694h-137v118h137v-118z" />
    <glyph glyph-name="multiply" unicode="&#xd7;" horiz-adv-x="1044" 
d="M79 289l384 393l-357 364l39 39l356 -364l357 364l39 -39l-357 -364l385 -393l-39 -37l-384 391l-384 -391z" />
    <glyph glyph-name="Oslash" unicode="&#xd8;" horiz-adv-x="1411" 
d="M1338 719c0 -224 -56.168 -403.333 -168.501 -538s-258.833 -202 -439.5 -202c-70 0 -135.667 10.5 -197 31.5s-116.666 52.167 -165.999 93.5l-113 -179h-66l137 217c-66 65.333 -116.667 147 -152 245s-53 208.667 -53 332v18c0 223.333 56 402.5 168 537.5
s258.667 202.5 440 202.5c69.333 0 135 -11 197 -33s118 -53.333 168 -94l92 145h66l-116 -183c64 -66 113.833 -148 149.5 -246s53.5 -207.667 53.5 -329v-18zM174.999 719c0 -112.667 15.333 -213.833 46 -303.5s74.667 -163.167 132 -220.5l6 -1l705 1111
c-45.333 38 -96.333 67.167 -153 87.5s-117.667 30.5 -183 30.5c-168 0 -302.167 -62.5 -402.5 -187.5s-150.5 -290.5 -150.5 -496.5v-20zM1284 739.001c0 110.667 -15.333 210.668 -46 300.001s-74 162.666 -130 219.999l-6 1l-706 -1111c45.333 -38 96 -66.833 152 -86.5
s116.667 -29.5 182 -29.5c168.667 0 303.167 62.5 403.5 187.5s150.5 291.167 150.5 498.5v20z" />
    <glyph glyph-name="Ugrave" unicode="&#xd9;" horiz-adv-x="1441" 
d="M440 1456v-54h-163v-933c0 -136.667 41.333 -243.5 124 -320.5s189.334 -115.5 320.001 -115.5c130 0 236.333 38.5 319 115.5s124 183.833 124 320.5v933h-163v54h217h163v-54h-163v-933c0 -158.667 -46 -280 -138 -364s-211.667 -126 -359 -126
c-148.667 0 -268.834 42.167 -360.501 126.5s-137.5 205.5 -137.5 363.5v933h-163v54h163h54h163zM777 1567l-2 -5h-75l-234 261l2 5h89z" />
    <glyph glyph-name="Uacute" unicode="&#xda;" horiz-adv-x="1441" 
d="M440 1456v-54h-163v-933c0 -136.667 41.333 -243.5 124 -320.5s189.334 -115.5 320.001 -115.5c130 0 236.333 38.5 319 115.5s124 183.833 124 320.5v933h-163v54h217h163v-54h-163v-933c0 -158.667 -46 -280 -138 -364s-211.667 -126 -359 -126
c-148.667 0 -268.834 42.167 -360.501 126.5s-137.5 205.5 -137.5 363.5v933h-163v54h163h54h163zM882 1801h78l2 -5l-231 -261h-67l-2 5z" />
    <glyph glyph-name="Ucircumflex" unicode="&#xdb;" horiz-adv-x="1441" 
d="M440 1456v-54h-163v-933c0 -136.667 41.333 -243.5 124 -320.5s189.334 -115.5 320.001 -115.5c130 0 236.333 38.5 319 115.5s124 183.833 124 320.5v933h-163v54h217h163v-54h-163v-933c0 -158.667 -46 -280 -138 -364s-211.667 -126 -359 -126
c-148.667 0 -268.834 42.167 -360.501 126.5s-137.5 205.5 -137.5 363.5v933h-163v54h163h54h163zM983 1602v-13h-70l-185 186l-183 -186h-66v17l210 206h80z" />
    <glyph glyph-name="Udieresis" unicode="&#xdc;" horiz-adv-x="1441" 
d="M440 1456v-54h-163v-933c0 -136.667 41.333 -243.5 124 -320.5s189.334 -115.5 320.001 -115.5c130 0 236.333 38.5 319 115.5s124 183.833 124 320.5v933h-163v54h217h163v-54h-163v-933c0 -158.667 -46 -280 -138 -364s-211.667 -126 -359 -126
c-148.667 0 -268.834 42.167 -360.501 126.5s-137.5 205.5 -137.5 363.5v933h-163v54h163h54h163zM1035 1661h-136v118h136v-118zM566 1661h-137v118h137v-118z" />
    <glyph glyph-name="Yacute" unicode="&#xdd;" horiz-adv-x="1429" 
d="M371 1402h-131l449 -755l26 -50l27 50l451 755h-131v54h316v-54h-120l-514 -849v-499h163v-54h-381v54h163v499l-515 849h-119v54h316v-54zM878 1802h78l2 -5l-231 -261h-67l-2 5z" />
    <glyph glyph-name="Thorn" unicode="&#xde;" horiz-adv-x="1240" 
d="M70 54l163 -0.000976562v1348h-163v54h217h163v-54h-163v-259h371c141.333 0 251.666 -37.667 330.999 -113s119 -172.666 119 -291.999c0 -120 -39.667 -217.333 -119 -292s-189.666 -112 -330.999 -112h-371v-280h163v-54h-380v54zM287 1089l0.000976562 -700.999h371
c130 0 228.5 34.667 295.5 104s100.5 150.666 100.5 243.999c0 96 -33.333 178.833 -100 248.5s-165.334 104.5 -296.001 104.5h-371z" />
    <glyph glyph-name="germandbls" unicode="&#xdf;" horiz-adv-x="1243" 
d="M272 0h-216.998v54h163v1028c0 125.333 29.667 222 89 290s142.666 102 249.999 102c82 0 151.167 -24.333 207.5 -73s84.5 -113.667 84.5 -195c0 -67.333 -19.833 -135.5 -59.5 -204.5s-59.5 -136.167 -59.5 -201.5c0 -60 64.333 -137.167 193 -231.5
s193 -191.5 193 -291.5c0 -94 -38 -167.167 -114 -219.5s-160.333 -78.5 -253 -78.5c-58 0 -117.833 8.66699 -179.5 26s-105.834 38.333 -132.501 63l25 49c28 -22.667 68.833 -42.5 122.5 -59.5s105.834 -25.5 156.501 -25.5c93.333 0 170.166 23.833 230.499 71.5
s90.5 108.5 90.5 182.5c0 75.333 -64.333 159.333 -193 252s-193 180.667 -193 264c0 70 18.833 140.667 56.5 212s56.5 136 56.5 194c0 60 -22.5 110.333 -67.5 151s-96.5 61 -154.5 61c-89.333 0 -160.833 -29.167 -214.5 -87.5s-80.5 -141.833 -80.5 -250.5v-1082z" />
    <glyph glyph-name="agrave" unicode="&#xe0;" horiz-adv-x="1132" 
d="M885 0c-8.66699 47.333 -14.498 82.835 -17.498 106.502s-4.5 49.167 -4.5 76.5v16c-41.333 -64.667 -99.166 -117.5 -173.499 -158.5s-161.833 -61.5 -262.5 -61.5c-100 0 -178.833 27.167 -236.5 81.5s-86.5 125.5 -86.5 213.5c0 97.333 44.333 176.666 133 237.999
s207.667 92 357 92h269v158c0 90 -28.833 160.167 -86.5 210.5s-138.834 75.5 -243.501 75.5c-68.667 0 -132.834 -9.66699 -192.501 -29s-110.5 -46 -152.5 -80l-1 -173h-54l1 206c51.333 38 111.833 69.167 181.5 93.5s142.167 36.5 217.5 36.5c116 0 209 -29.333 279 -88
s105 -143.334 105 -254.001v-542c0 -28 1.16699 -55.667 3.5 -83s6.16602 -54.333 11.499 -81h130v-54h-177zM427.002 32.002c102 0 190.667 23.001 266 69.001s132 109.667 170 191v257h-266c-132.667 0 -239 -25.833 -319 -77.5s-120 -118.834 -120 -201.501
c0 -67.333 24.667 -123.833 74 -169.5s114.333 -68.5 195 -68.5zM584.002 1259l-2 -5h-75l-234 261l2 5h89z" />
    <glyph glyph-name="aacute" unicode="&#xe1;" horiz-adv-x="1132" 
d="M885 0c-8.66699 47.333 -14.498 82.835 -17.498 106.502s-4.5 49.167 -4.5 76.5v16c-41.333 -64.667 -99.166 -117.5 -173.499 -158.5s-161.833 -61.5 -262.5 -61.5c-100 0 -178.833 27.167 -236.5 81.5s-86.5 125.5 -86.5 213.5c0 97.333 44.333 176.666 133 237.999
s207.667 92 357 92h269v158c0 90 -28.833 160.167 -86.5 210.5s-138.834 75.5 -243.501 75.5c-68.667 0 -132.834 -9.66699 -192.501 -29s-110.5 -46 -152.5 -80l-1 -173h-54l1 206c51.333 38 111.833 69.167 181.5 93.5s142.167 36.5 217.5 36.5c116 0 209 -29.333 279 -88
s105 -143.334 105 -254.001v-542c0 -28 1.16699 -55.667 3.5 -83s6.16602 -54.333 11.499 -81h130v-54h-177zM427.002 32.002c102 0 190.667 23.001 266 69.001s132 109.667 170 191v257h-266c-132.667 0 -239 -25.833 -319 -77.5s-120 -118.834 -120 -201.501
c0 -67.333 24.667 -123.833 74 -169.5s114.333 -68.5 195 -68.5zM689.002 1493h78l2 -5l-231 -261h-67l-2 5z" />
    <glyph glyph-name="acircumflex" unicode="&#xe2;" horiz-adv-x="1132" 
d="M885 0c-8.66699 47.333 -14.498 82.835 -17.498 106.502s-4.5 49.167 -4.5 76.5v16c-41.333 -64.667 -99.166 -117.5 -173.499 -158.5s-161.833 -61.5 -262.5 -61.5c-100 0 -178.833 27.167 -236.5 81.5s-86.5 125.5 -86.5 213.5c0 97.333 44.333 176.666 133 237.999
s207.667 92 357 92h269v158c0 90 -28.833 160.167 -86.5 210.5s-138.834 75.5 -243.501 75.5c-68.667 0 -132.834 -9.66699 -192.501 -29s-110.5 -46 -152.5 -80l-1 -173h-54l1 206c51.333 38 111.833 69.167 181.5 93.5s142.167 36.5 217.5 36.5c116 0 209 -29.333 279 -88
s105 -143.334 105 -254.001v-542c0 -28 1.16699 -55.667 3.5 -83s6.16602 -54.333 11.499 -81h130v-54h-177zM427.002 32.002c102 0 190.667 23.001 266 69.001s132 109.667 170 191v257h-266c-132.667 0 -239 -25.833 -319 -77.5s-120 -118.834 -120 -201.501
c0 -67.333 24.667 -123.833 74 -169.5s114.333 -68.5 195 -68.5zM790.002 1294v-13h-70l-185 186l-183 -186h-66v17l210 206h80z" />
    <glyph glyph-name="atilde" unicode="&#xe3;" horiz-adv-x="1132" 
d="M885 0c-8.66699 47.333 -14.498 82.835 -17.498 106.502s-4.5 49.167 -4.5 76.5v16c-41.333 -64.667 -99.166 -117.5 -173.499 -158.5s-161.833 -61.5 -262.5 -61.5c-100 0 -178.833 27.167 -236.5 81.5s-86.5 125.5 -86.5 213.5c0 97.333 44.333 176.666 133 237.999
s207.667 92 357 92h269v158c0 90 -28.833 160.167 -86.5 210.5s-138.834 75.5 -243.501 75.5c-68.667 0 -132.834 -9.66699 -192.501 -29s-110.5 -46 -152.5 -80l-1 -173h-54l1 206c51.333 38 111.833 69.167 181.5 93.5s142.167 36.5 217.5 36.5c116 0 209 -29.333 279 -88
s105 -143.334 105 -254.001v-542c0 -28 1.16699 -55.667 3.5 -83s6.16602 -54.333 11.499 -81h130v-54h-177zM427.002 32.002c102 0 190.667 23.001 266 69.001s132 109.667 170 191v257h-266c-132.667 0 -239 -25.833 -319 -77.5s-120 -118.834 -120 -201.501
c0 -67.333 24.667 -123.833 74 -169.5s114.333 -68.5 195 -68.5zM883.002 1481c0 -54.667 -17 -99.3311 -51 -133.998s-75.667 -52 -125 -52c-50.667 0 -102 20.833 -154 62.5s-96.333 62.5 -133 62.5c-34.667 0 -63.5 -12.333 -86.5 -37s-34.5 -57.334 -34.5 -98.001
l-55 10c0 53.333 16.667 96.5 50 129.5s75.333 49.5 126 49.5c48 0 99 -20.667 153 -62s98.667 -62 134 -62c33.333 0 61.833 13.167 85.5 39.5s35.5 60.166 35.5 101.499z" />
    <glyph glyph-name="adieresis" unicode="&#xe4;" horiz-adv-x="1132" 
d="M885 0c-8.66699 47.333 -14.498 82.835 -17.498 106.502s-4.5 49.167 -4.5 76.5v16c-41.333 -64.667 -99.166 -117.5 -173.499 -158.5s-161.833 -61.5 -262.5 -61.5c-100 0 -178.833 27.167 -236.5 81.5s-86.5 125.5 -86.5 213.5c0 97.333 44.333 176.666 133 237.999
s207.667 92 357 92h269v158c0 90 -28.833 160.167 -86.5 210.5s-138.834 75.5 -243.501 75.5c-68.667 0 -132.834 -9.66699 -192.501 -29s-110.5 -46 -152.5 -80l-1 -173h-54l1 206c51.333 38 111.833 69.167 181.5 93.5s142.167 36.5 217.5 36.5c116 0 209 -29.333 279 -88
s105 -143.334 105 -254.001v-542c0 -28 1.16699 -55.667 3.5 -83s6.16602 -54.333 11.499 -81h130v-54h-177zM427.002 32.002c102 0 190.667 23.001 266 69.001s132 109.667 170 191v257h-266c-132.667 0 -239 -25.833 -319 -77.5s-120 -118.834 -120 -201.501
c0 -67.333 24.667 -123.833 74 -169.5s114.333 -68.5 195 -68.5zM842.002 1353h-136v118h136v-118zM373.002 1353h-137v118h137v-118z" />
    <glyph glyph-name="aring" unicode="&#xe5;" horiz-adv-x="1132" 
d="M885 0c-8.66699 47.333 -14.498 82.835 -17.498 106.502s-4.5 49.167 -4.5 76.5v16c-41.333 -64.667 -99.166 -117.5 -173.499 -158.5s-161.833 -61.5 -262.5 -61.5c-100 0 -178.833 27.167 -236.5 81.5s-86.5 125.5 -86.5 213.5c0 97.333 44.333 176.666 133 237.999
s207.667 92 357 92h269v158c0 90 -28.833 160.167 -86.5 210.5s-138.834 75.5 -243.501 75.5c-68.667 0 -132.834 -9.66699 -192.501 -29s-110.5 -46 -152.5 -80l-1 -173h-54l1 206c51.333 38 111.833 69.167 181.5 93.5s142.167 36.5 217.5 36.5c116 0 209 -29.333 279 -88
s105 -143.334 105 -254.001v-542c0 -28 1.16699 -55.667 3.5 -83s6.16602 -54.333 11.499 -81h130v-54h-177zM427.002 32.002c102 0 190.667 23.001 266 69.001s132 109.667 170 191v257h-266c-132.667 0 -239 -25.833 -319 -77.5s-120 -118.834 -120 -201.501
c0 -67.333 24.667 -123.833 74 -169.5s114.333 -68.5 195 -68.5zM398.002 1427c0 37.333 13.333 69.833 40 97.5s58.667 41.5 96 41.5c36 0 67.167 -13.667 93.5 -41s39.5 -60 39.5 -98s-13 -70 -39 -96s-57.333 -39 -94 -39c-37.333 0 -69.333 13 -96 39s-40 58 -40 96z
M455.002 1427c0 -22.667 7.66699 -41.5 23 -56.5s34 -22.5 56 -22.5c21.333 0 39.333 7.33301 54 22s22 33.667 22 57s-7.33301 42.833 -22 58.5s-32.667 23.5 -54 23.5c-22 0 -40.667 -7.83301 -56 -23.5s-23 -35.167 -23 -58.5z" />
    <glyph glyph-name="ae" unicode="&#xe6;" horiz-adv-x="1779" 
d="M1272 -21c-95.333 0 -176.996 21.999 -244.996 65.999s-119.667 105.667 -155 185v-12h1c-29.333 -63.333 -80.333 -119 -153 -167s-162 -72 -268 -72c-112.667 0 -200 27.333 -262 82s-93 129 -93 223c0 104.667 37.167 188.5 111.5 251.5s180.5 94.5 318.5 94.5h290v90
c0 105.333 -24.333 186.333 -73 243s-121.667 85 -219 85c-108 0 -192.833 -26 -254.5 -78s-92.5 -118.333 -92.5 -199l-45 6l-2 6c-3.33301 92 31.167 168.167 103.5 228.5s169.166 90.5 290.499 90.5c92 0 167.667 -24.5 227 -73.5s96.666 -120.5 111.999 -214.5
c35.333 88.667 87.666 158.834 156.999 210.501s148 77.5 236 77.5c125.333 0 224 -39.5 296 -118.5s108 -186.833 108 -323.5v-83h-787v-13v-64c0 -138.667 33 -251.167 99 -337.5s165.667 -129.5 299 -129.5c68 0 130.167 11.5 186.5 34.5s104.833 55.167 145.5 96.5
l30 -42c-43.333 -44 -92.833 -78.833 -148.5 -104.5s-126.834 -38.5 -213.501 -38.5zM451.004 30.999c86.667 0 165.667 21.833 237 65.5s114.333 86.5 129 128.5v350h-288c-123.333 0 -217 -28 -281 -84s-96 -126.333 -96 -211c0 -78 25.833 -139 77.5 -183
s125.5 -66 221.5 -66zM1257 1048c-106 0 -192.832 -38.832 -260.499 -116.499s-105.834 -175.834 -114.501 -294.501l2 -5h723v32c0 112 -30.5 204 -91.5 276s-147.167 108 -258.5 108z" />
    <glyph glyph-name="ccedilla" unicode="&#xe7;" horiz-adv-x="1086" 
d="M546 33c91.333 0 172 25.001 242 75.001s105 125 105 225h46l2 -6c2.66699 -106 -36.166 -190.5 -116.499 -253.5s-173.166 -94.5 -278.499 -94.5c-138 0 -246.167 49.667 -324.5 149s-117.5 230 -117.5 392v42c0 161.333 39 291.666 117 390.999s185.667 149 323 149
c81.333 0 156.666 -16.833 225.999 -50.5s125 -79.167 167 -136.5v-232h-54v212c-38 46.667 -85.833 83.834 -143.5 111.501s-122.834 41.5 -195.501 41.5c-126.667 0 -222.667 -45.333 -288 -136s-98 -207.334 -98 -350.001v-42c0 -144 32.667 -261.167 98 -351.5
s162 -135.5 290 -135.5zM597 -8.99902l-11 -76c60.667 -4.66699 108.667 -19.834 144 -45.501s53 -66.834 53 -123.501c0 -58 -26.333 -104.167 -79 -138.5s-128 -51.5 -226 -51.5l-7 49c69.333 0 129.5 12 180.5 36s76.5 59 76.5 105c0 42.667 -15.167 72.334 -45.5 89.001
s-84.833 28.334 -163.5 35.001l25 121h53z" />
    <glyph glyph-name="egrave" unicode="&#xe8;" horiz-adv-x="1104" 
d="M566 -21c-123.333 0 -229.833 49.832 -319.5 149.499s-134.5 223.5 -134.5 371.5v64c0 155.333 43.333 283.833 130 385.5s193.667 152.5 321 152.5c122 0 221.5 -40 298.5 -120s115.5 -187.333 115.5 -322v-83h-811v-13v-64c0 -130.667 38.333 -241.167 115 -331.5
s171.667 -135.5 285 -135.5c80.667 0 148.167 11 202.5 33s100.833 55 139.5 99l29 -42c-42.667 -47.333 -94.5 -83.166 -155.5 -107.499s-132.833 -36.5 -215.5 -36.5zM563 1048c-107.333 0 -196.667 -39.168 -268 -117.501s-111.666 -176.166 -120.999 -293.499l3 -6h746
v33c0 110 -33.333 201.5 -100 274.5s-153.334 109.5 -260.001 109.5zM616.999 1258l-2 -5h-75l-234 261l2 5h89z" />
    <glyph glyph-name="eacute" unicode="&#xe9;" horiz-adv-x="1104" 
d="M566 -21c-123.333 0 -229.833 49.832 -319.5 149.499s-134.5 223.5 -134.5 371.5v64c0 155.333 43.333 283.833 130 385.5s193.667 152.5 321 152.5c122 0 221.5 -40 298.5 -120s115.5 -187.333 115.5 -322v-83h-811v-13v-64c0 -130.667 38.333 -241.167 115 -331.5
s171.667 -135.5 285 -135.5c80.667 0 148.167 11 202.5 33s100.833 55 139.5 99l29 -42c-42.667 -47.333 -94.5 -83.166 -155.5 -107.499s-132.833 -36.5 -215.5 -36.5zM563 1048c-107.333 0 -196.667 -39.168 -268 -117.501s-111.666 -176.166 -120.999 -293.499l3 -6h746
v33c0 110 -33.333 201.5 -100 274.5s-153.334 109.5 -260.001 109.5zM721.999 1492h78l2 -5l-231 -261h-67l-2 5z" />
    <glyph glyph-name="ecircumflex" unicode="&#xea;" horiz-adv-x="1104" 
d="M566 -21c-123.333 0 -229.833 49.832 -319.5 149.499s-134.5 223.5 -134.5 371.5v64c0 155.333 43.333 283.833 130 385.5s193.667 152.5 321 152.5c122 0 221.5 -40 298.5 -120s115.5 -187.333 115.5 -322v-83h-811v-13v-64c0 -130.667 38.333 -241.167 115 -331.5
s171.667 -135.5 285 -135.5c80.667 0 148.167 11 202.5 33s100.833 55 139.5 99l29 -42c-42.667 -47.333 -94.5 -83.166 -155.5 -107.499s-132.833 -36.5 -215.5 -36.5zM563 1048c-107.333 0 -196.667 -39.168 -268 -117.501s-111.666 -176.166 -120.999 -293.499l3 -6h746
v33c0 110 -33.333 201.5 -100 274.5s-153.334 109.5 -260.001 109.5zM822.999 1293v-13h-70l-185 186l-183 -186h-66v17l210 206h80z" />
    <glyph glyph-name="edieresis" unicode="&#xeb;" horiz-adv-x="1104" 
d="M566 -21c-123.333 0 -229.833 49.832 -319.5 149.499s-134.5 223.5 -134.5 371.5v64c0 155.333 43.333 283.833 130 385.5s193.667 152.5 321 152.5c122 0 221.5 -40 298.5 -120s115.5 -187.333 115.5 -322v-83h-811v-13v-64c0 -130.667 38.333 -241.167 115 -331.5
s171.667 -135.5 285 -135.5c80.667 0 148.167 11 202.5 33s100.833 55 139.5 99l29 -42c-42.667 -47.333 -94.5 -83.166 -155.5 -107.499s-132.833 -36.5 -215.5 -36.5zM563 1048c-107.333 0 -196.667 -39.168 -268 -117.501s-111.666 -176.166 -120.999 -293.499l3 -6h746
v33c0 110 -33.333 201.5 -100 274.5s-153.334 109.5 -260.001 109.5zM874.999 1352h-136v118h136v-118zM405.999 1352h-137v118h137v-118z" />
    <glyph glyph-name="igrave" unicode="&#xec;" horiz-adv-x="608" 
d="M90 1028v54h217v-1028h163v-54h-380v54h163v974h-163zM335 1236l-2 -5h-75l-234 261l2 5h89z" />
    <glyph glyph-name="iacute" unicode="&#xed;" horiz-adv-x="608" 
d="M90 1028v54h217v-1028h163v-54h-380v54h163v974h-163zM439 1471h78l2 -5l-231 -261h-67l-2 5z" />
    <glyph glyph-name="icircumflex" unicode="&#xee;" horiz-adv-x="608" 
d="M90 1028v54h217v-1028h163v-54h-380v54h163v974h-163zM541 1271v-13h-70l-185 186l-183 -186h-66v17l210 206h80z" />
    <glyph glyph-name="idieresis" unicode="&#xef;" horiz-adv-x="608" 
d="M90 1028v54h217v-1028h163v-54h-380v54h163v974h-163zM593 1331h-136v118h136v-118zM124 1331h-137v118h137v-118z" />
    <glyph glyph-name="eth" unicode="&#xf0;" horiz-adv-x="1170" 
d="M760 1311c80 -81.333 139.335 -178.169 178.002 -290.502s58 -247.5 58 -405.5v-80c0 -163.333 -43.833 -296.833 -131.5 -400.5s-197.834 -155.5 -330.501 -155.5s-241.834 44.833 -327.501 134.5s-128.5 200.5 -128.5 332.5c0 160.667 41.167 285.334 123.5 374.001
s197.166 133 344.499 133c83.333 0 158.833 -15.5 226.5 -46.5s118.834 -73.5 153.501 -127.5l5 4c-10.667 108.667 -35 204 -73 286s-87.333 153 -148 213l-338 -193l-28 48l323 185c-33.333 27.333 -69.333 52.833 -108 76.5s-80.667 46.5 -126 68.5l20 50
c51.333 -24.667 99 -50.667 143 -78s84.333 -56.666 121 -87.999l280 160l29 -48zM942.002 616.997c0 6.66699 -0.166016 16.501 -0.499023 29.501s-0.5 22.833 -0.5 29.5c-26.667 61.333 -72.834 113.166 -138.501 155.499s-151.167 63.5 -256.5 63.5
c-138.667 0 -242.167 -41.5 -310.5 -124.5s-102.5 -191.167 -102.5 -324.5c0 -109.333 36.5 -204.833 109.5 -286.5s171.5 -122.5 295.5 -122.5c119.333 0 216.5 46.5 291.5 139.5s112.5 212.5 112.5 358.5v82z" />
    <glyph glyph-name="ntilde" unicode="&#xf1;" horiz-adv-x="1320" 
d="M89 54l162.999 0.000976562v974h-163v54h209l7 -223c32.667 77.333 80.334 137.166 143.001 179.499s140 63.5 232 63.5c118 0 206.5 -37.167 265.5 -111.5s88.5 -192.166 88.5 -353.499v-583h163v-54h-380v54h163v585c0 150 -26.833 255.667 -80.5 317
s-126.5 92 -218.5 92c-116.667 0 -204.667 -34.833 -264 -104.5s-96.333 -158.834 -111 -267.501v-622h163v-54h-380v54zM985.999 1479c0 -54.667 -17 -99.3311 -51 -133.998s-75.667 -52 -125 -52c-50.667 0 -102 20.833 -154 62.5s-96.333 62.5 -133 62.5
c-34.667 0 -63.5 -12.333 -86.5 -37s-34.5 -57.334 -34.5 -98.001l-55 10c0 53.333 16.667 96.5 50 129.5s75.333 49.5 126 49.5c48 0 99 -20.667 153 -62s98.667 -62 134 -62c33.333 0 61.833 13.167 85.5 39.5s35.5 60.166 35.5 101.499z" />
    <glyph glyph-name="ograve" unicode="&#xf2;" horiz-adv-x="1155" 
d="M104 562c0 158.667 43.832 288.334 131.499 389.001s201.5 151 341.5 151c140.667 0 254.834 -50.333 342.501 -151s131.5 -230.334 131.5 -389.001v-42c0 -159.333 -43.833 -289.333 -131.5 -390s-201.167 -151 -340.5 -151c-140.667 0 -255 50.333 -343 151
s-132 230.667 -132 390v42zM157.999 520c0 -136 38.001 -251.167 114.001 -345.5s178.333 -141.5 307 -141.5c126.667 0 228 47.333 304 142s114 209.667 114 345v42c0 132.667 -38.333 246.834 -115 342.501s-178.334 143.5 -305.001 143.5
c-127.333 0 -229 -47.833 -305 -143.5s-114 -209.834 -114 -342.501v-42zM632 1257l-2 -5h-75l-234 261l2 5h89z" />
    <glyph glyph-name="oacute" unicode="&#xf3;" horiz-adv-x="1155" 
d="M104 562c0 158.667 43.832 288.334 131.499 389.001s201.5 151 341.5 151c140.667 0 254.834 -50.333 342.501 -151s131.5 -230.334 131.5 -389.001v-42c0 -159.333 -43.833 -289.333 -131.5 -390s-201.167 -151 -340.5 -151c-140.667 0 -255 50.333 -343 151
s-132 230.667 -132 390v42zM157.999 520c0 -136 38.001 -251.167 114.001 -345.5s178.333 -141.5 307 -141.5c126.667 0 228 47.333 304 142s114 209.667 114 345v42c0 132.667 -38.333 246.834 -115 342.501s-178.334 143.5 -305.001 143.5
c-127.333 0 -229 -47.833 -305 -143.5s-114 -209.834 -114 -342.501v-42zM737 1491h78l2 -5l-231 -261h-67l-2 5z" />
    <glyph glyph-name="ocircumflex" unicode="&#xf4;" horiz-adv-x="1155" 
d="M104 562c0 158.667 43.832 288.334 131.499 389.001s201.5 151 341.5 151c140.667 0 254.834 -50.333 342.501 -151s131.5 -230.334 131.5 -389.001v-42c0 -159.333 -43.833 -289.333 -131.5 -390s-201.167 -151 -340.5 -151c-140.667 0 -255 50.333 -343 151
s-132 230.667 -132 390v42zM157.999 520c0 -136 38.001 -251.167 114.001 -345.5s178.333 -141.5 307 -141.5c126.667 0 228 47.333 304 142s114 209.667 114 345v42c0 132.667 -38.333 246.834 -115 342.501s-178.334 143.5 -305.001 143.5
c-127.333 0 -229 -47.833 -305 -143.5s-114 -209.834 -114 -342.501v-42zM838 1292v-13h-70l-185 186l-183 -186h-66v17l210 206h80z" />
    <glyph glyph-name="otilde" unicode="&#xf5;" horiz-adv-x="1155" 
d="M104 562c0 158.667 43.832 288.334 131.499 389.001s201.5 151 341.5 151c140.667 0 254.834 -50.333 342.501 -151s131.5 -230.334 131.5 -389.001v-42c0 -159.333 -43.833 -289.333 -131.5 -390s-201.167 -151 -340.5 -151c-140.667 0 -255 50.333 -343 151
s-132 230.667 -132 390v42zM157.999 520c0 -136 38.001 -251.167 114.001 -345.5s178.333 -141.5 307 -141.5c126.667 0 228 47.333 304 142s114 209.667 114 345v42c0 132.667 -38.333 246.834 -115 342.501s-178.334 143.5 -305.001 143.5
c-127.333 0 -229 -47.833 -305 -143.5s-114 -209.834 -114 -342.501v-42zM931 1479c0 -54.667 -17 -99.3311 -51 -133.998s-75.667 -52 -125 -52c-50.667 0 -102 20.833 -154 62.5s-96.333 62.5 -133 62.5c-34.667 0 -63.5 -12.333 -86.5 -37s-34.5 -57.334 -34.5 -98.001
l-55 10c0 53.333 16.667 96.5 50 129.5s75.333 49.5 126 49.5c48 0 99 -20.667 153 -62s98.667 -62 134 -62c33.333 0 61.833 13.167 85.5 39.5s35.5 60.166 35.5 101.499z" />
    <glyph glyph-name="odieresis" unicode="&#xf6;" horiz-adv-x="1155" 
d="M104 562c0 158.667 43.832 288.334 131.499 389.001s201.5 151 341.5 151c140.667 0 254.834 -50.333 342.501 -151s131.5 -230.334 131.5 -389.001v-42c0 -159.333 -43.833 -289.333 -131.5 -390s-201.167 -151 -340.5 -151c-140.667 0 -255 50.333 -343 151
s-132 230.667 -132 390v42zM157.999 520c0 -136 38.001 -251.167 114.001 -345.5s178.333 -141.5 307 -141.5c126.667 0 228 47.333 304 142s114 209.667 114 345v42c0 132.667 -38.333 246.834 -115 342.501s-178.334 143.5 -305.001 143.5
c-127.333 0 -229 -47.833 -305 -143.5s-114 -209.834 -114 -342.501v-42zM890 1351h-136v118h136v-118zM421 1351h-137v118h137v-118z" />
    <glyph glyph-name="divide" unicode="&#xf7;" horiz-adv-x="1148" 
d="M1072 686h-998v52h998v-52zM632 1020h-96v122h96v-122zM632 241h-96v122h96v-122z" />
    <glyph glyph-name="oslash" unicode="&#xf8;" horiz-adv-x="1155" 
d="M104 562c0 158.667 43.835 288.332 131.502 388.999s201.5 151 341.5 151c46 0 89.5 -5.83301 130.5 -17.5s79.167 -28.5 114.5 -50.5l98 185h63l-116 -218c58 -48.667 103.167 -110.667 135.5 -186s48.5 -159.666 48.5 -252.999v-42
c0 -159.333 -43.833 -289.333 -131.5 -390s-201.167 -151 -340.5 -151c-41.333 0 -80.833 4.66699 -118.5 14s-72.834 23 -105.501 41l-95 -179h-63l111 209c-64.667 46.667 -114.834 109.5 -150.501 188.5s-53.5 168.167 -53.5 267.5v42zM158.002 519.998
c0 -84 15.001 -161.499 45.001 -232.499s72.667 -126.833 128 -167.5h6l458 864c-31.333 20 -65.333 35.667 -102 47s-75.334 17 -116.001 17c-127.333 0 -229 -47.833 -305 -143.5s-114 -209.834 -114 -342.501v-42zM997.003 561.999c0 76 -13.666 147.833 -40.999 215.5
s-65 122.5 -113 164.5l-6 1l-456 -860c28 -16.667 58.667 -29.167 92 -37.5s68.666 -12.5 105.999 -12.5c126.667 0 228 47.333 304 142s114 209.667 114 345v42z" />
    <glyph glyph-name="ugrave" unicode="&#xf9;" horiz-adv-x="1222" 
d="M918 194c-34 -68.667 -82.5 -121.666 -145.5 -158.999s-139.5 -56 -229.5 -56c-111.333 0 -198.5 39.5 -261.5 118.5s-94.5 201.5 -94.5 367.5v563h-143v54h143h54v-619c0 -146.667 27 -255 81 -325s127 -105 219 -105c112.667 0 199.167 27.667 259.5 83
s98.833 128.666 115.5 219.999v692h-163v54h163h55v-1028h163v-54h-208zM586 1236l-2 -5h-75l-234 261l2 5h89z" />
    <glyph glyph-name="uacute" unicode="&#xfa;" horiz-adv-x="1222" 
d="M918 194c-34 -68.667 -82.5 -121.666 -145.5 -158.999s-139.5 -56 -229.5 -56c-111.333 0 -198.5 39.5 -261.5 118.5s-94.5 201.5 -94.5 367.5v563h-143v54h143h54v-619c0 -146.667 27 -255 81 -325s127 -105 219 -105c112.667 0 199.167 27.667 259.5 83
s98.833 128.666 115.5 219.999v692h-163v54h163h55v-1028h163v-54h-208zM691 1471h78l2 -5l-231 -261h-67l-2 5z" />
    <glyph glyph-name="ucircumflex" unicode="&#xfb;" horiz-adv-x="1222" 
d="M918 194c-34 -68.667 -82.5 -121.666 -145.5 -158.999s-139.5 -56 -229.5 -56c-111.333 0 -198.5 39.5 -261.5 118.5s-94.5 201.5 -94.5 367.5v563h-143v54h143h54v-619c0 -146.667 27 -255 81 -325s127 -105 219 -105c112.667 0 199.167 27.667 259.5 83
s98.833 128.666 115.5 219.999v692h-163v54h163h55v-1028h163v-54h-208zM792 1271v-13h-70l-185 186l-183 -186h-66v17l210 206h80z" />
    <glyph glyph-name="udieresis" unicode="&#xfc;" horiz-adv-x="1222" 
d="M918 194c-34 -68.667 -82.5 -121.666 -145.5 -158.999s-139.5 -56 -229.5 -56c-111.333 0 -198.5 39.5 -261.5 118.5s-94.5 201.5 -94.5 367.5v563h-143v54h143h54v-619c0 -146.667 27 -255 81 -325s127 -105 219 -105c112.667 0 199.167 27.667 259.5 83
s98.833 128.666 115.5 219.999v692h-163v54h163h55v-1028h163v-54h-208zM844 1331h-136v118h136v-118zM375 1331h-137v118h137v-118z" />
    <glyph glyph-name="yacute" unicode="&#xfd;" horiz-adv-x="1185" 
d="M374 1028h-142l335 -832l40 -108h6l6 16l353 924h-142v54h320v-54h-118l-460 -1208c-29.333 -76 -63.5 -137.833 -102.5 -185.5s-101.167 -71.5 -186.5 -71.5c-12.667 0 -26.667 1.16699 -42 3.5s-26.666 4.83301 -33.999 7.5l9 51c7.33301 -2 18.333 -4 33 -6
s26 -3 34 -3c61.333 0 109.166 18 143.499 54s64.833 89.333 91.5 160l65 176l-410 1022h-118v54h319v-54zM764 1471h78l2 -5l-231 -261h-67l-2 5z" />
    <glyph glyph-name="thorn" unicode="&#xfe;" horiz-adv-x="1121" 
d="M65 -362h163.001v1868h-163v54h217v-671c36 66 85 118 147 156s135.333 57 220 57c127.333 0 227.166 -50.5 299.499 -151.5s108.5 -237.167 108.5 -408.5v-21c0 -166.667 -36 -298.667 -108 -396s-171.333 -146 -298 -146c-84.667 0 -158.5 17 -221.5 51
s-112.167 80 -147.5 138v-530h163v-54h-380v54zM1002 542c0 150 -30.1689 271.834 -90.502 365.501s-147.5 140.5 -261.5 140.5c-104.667 0 -186 -26.333 -244 -79s-99.333 -117.334 -124 -194.001v-506c26.667 -72 71.334 -129.333 134.001 -172s141.334 -64 236.001 -64
c114 0 200.833 44 260.5 132s89.5 206.667 89.5 356v21z" />
    <glyph glyph-name="ydieresis" unicode="&#xff;" horiz-adv-x="1185" 
d="M374 1028h-142l335 -832l40 -108h6l6 16l353 924h-142v54h320v-54h-118l-460 -1208c-29.333 -76 -63.5 -137.833 -102.5 -185.5s-101.167 -71.5 -186.5 -71.5c-12.667 0 -26.667 1.16699 -42 3.5s-26.666 4.83301 -33.999 7.5l9 51c7.33301 -2 18.333 -4 33 -6
s26 -3 34 -3c61.333 0 109.166 18 143.499 54s64.833 89.333 91.5 160l65 176l-410 1022h-118v54h319v-54zM917 1331h-136v118h136v-118zM448 1331h-137v118h137v-118z" />
    <glyph glyph-name="Amacron" unicode="&#x100;" 
d="M55 54h107l524 1402h66l525 -1402h107v-54h-309v54h143l-143 381h-712l-142 -381h143v-54h-309v54zM383 489h672l-305 820l-28 82h-6l-27 -82zM1040 1731h-627v53h627v-53z" />
    <glyph glyph-name="amacron" unicode="&#x101;" horiz-adv-x="1132" 
d="M885 0c-8.66699 47.333 -14.498 82.835 -17.498 106.502s-4.5 49.167 -4.5 76.5v16c-41.333 -64.667 -99.166 -117.5 -173.499 -158.5s-161.833 -61.5 -262.5 -61.5c-100 0 -178.833 27.167 -236.5 81.5s-86.5 125.5 -86.5 213.5c0 97.333 44.333 176.666 133 237.999
s207.667 92 357 92h269v158c0 90 -28.833 160.167 -86.5 210.5s-138.834 75.5 -243.501 75.5c-68.667 0 -132.834 -9.66699 -192.501 -29s-110.5 -46 -152.5 -80l-1 -173h-54l1 206c51.333 38 111.833 69.167 181.5 93.5s142.167 36.5 217.5 36.5c116 0 209 -29.333 279 -88
s105 -143.334 105 -254.001v-542c0 -28 1.16699 -55.667 3.5 -83s6.16602 -54.333 11.499 -81h130v-54h-177zM427.002 32.002c102 0 190.667 23.001 266 69.001s132 109.667 170 191v257h-266c-132.667 0 -239 -25.833 -319 -77.5s-120 -118.834 -120 -201.501
c0 -67.333 24.667 -123.833 74 -169.5s114.333 -68.5 195 -68.5zM860.002 1413h-627v53h627v-53z" />
    <glyph glyph-name="Abreve" unicode="&#x102;" 
d="M55 54h107l524 1402h66l525 -1402h107v-54h-309v54h143l-143 381h-712l-142 -381h143v-54h-309v54zM383 489h672l-305 820l-28 82h-6l-27 -82zM984 1802l1.99902 -6.00098c2.66699 -71.333 -20.666 -129.5 -69.999 -174.5s-116.666 -67.5 -201.999 -67.5
c-86 0 -153.833 22.5 -203.5 67.5s-72.834 103.167 -69.501 174.5l2 6h46c0 -57.333 18 -103.666 54 -138.999s93 -53 171 -53c74.667 0 130.667 18 168 54s56 82 56 138h46z" />
    <glyph glyph-name="abreve" unicode="&#x103;" horiz-adv-x="1132" 
d="M885 0c-8.66699 47.333 -14.498 82.835 -17.498 106.502s-4.5 49.167 -4.5 76.5v16c-41.333 -64.667 -99.166 -117.5 -173.499 -158.5s-161.833 -61.5 -262.5 -61.5c-100 0 -178.833 27.167 -236.5 81.5s-86.5 125.5 -86.5 213.5c0 97.333 44.333 176.666 133 237.999
s207.667 92 357 92h269v158c0 90 -28.833 160.167 -86.5 210.5s-138.834 75.5 -243.501 75.5c-68.667 0 -132.834 -9.66699 -192.501 -29s-110.5 -46 -152.5 -80l-1 -173h-54l1 206c51.333 38 111.833 69.167 181.5 93.5s142.167 36.5 217.5 36.5c116 0 209 -29.333 279 -88
s105 -143.334 105 -254.001v-542c0 -28 1.16699 -55.667 3.5 -83s6.16602 -54.333 11.499 -81h130v-54h-177zM427.002 32.002c102 0 190.667 23.001 266 69.001s132 109.667 170 191v257h-266c-132.667 0 -239 -25.833 -319 -77.5s-120 -118.834 -120 -201.501
c0 -67.333 24.667 -123.833 74 -169.5s114.333 -68.5 195 -68.5zM804.002 1484l1.99902 -6.00098c2.66699 -71.333 -20.666 -129.5 -69.999 -174.5s-116.666 -67.5 -201.999 -67.5c-86 0 -153.833 22.5 -203.5 67.5s-72.834 103.167 -69.501 174.5l2 6h46
c0 -57.333 18 -103.666 54 -138.999s93 -53 171 -53c74.667 0 130.667 18 168 54s56 82 56 138h46z" />
    <glyph glyph-name="Aogonek" unicode="&#x104;" 
d="M55 54h107l524 1402h66l525 -1402h107v-54h-309v54h143l-143 381h-712l-142 -381h143v-54h-309v54zM383 489h672l-305 820l-28 82h-6l-27 -82zM1384 0c-50.667 -46 -88.002 -84.834 -112.002 -116.501s-36 -67.167 -36 -106.5c0 -15.333 5.33301 -32.5 16 -51.5
s33.334 -28.5 68.001 -28.5c23.333 0 43.333 3.5 60 10.5s33.334 16.167 50.001 27.5l16 -48c-16 -12 -34.167 -22.333 -54.5 -31s-44.166 -13 -71.499 -13c-40.667 0 -73.834 11.833 -99.501 35.5s-38.5 56.5 -38.5 98.5c0 40.667 14 81.834 42 123.501s64 81.5 108 119.5z
" />
    <glyph glyph-name="aogonek" unicode="&#x105;" horiz-adv-x="1132" 
d="M885 0c-8.66699 47.333 -14.498 82.835 -17.498 106.502s-4.5 49.167 -4.5 76.5v16c-41.333 -64.667 -99.166 -117.5 -173.499 -158.5s-161.833 -61.5 -262.5 -61.5c-100 0 -178.833 27.167 -236.5 81.5s-86.5 125.5 -86.5 213.5c0 97.333 44.333 176.666 133 237.999
s207.667 92 357 92h269v158c0 90 -28.833 160.167 -86.5 210.5s-138.834 75.5 -243.501 75.5c-68.667 0 -132.834 -9.66699 -192.501 -29s-110.5 -46 -152.5 -80l-1 -173h-54l1 206c51.333 38 111.833 69.167 181.5 93.5s142.167 36.5 217.5 36.5c116 0 209 -29.333 279 -88
s105 -143.334 105 -254.001v-542c0 -28 1.16699 -55.667 3.5 -83s6.16602 -54.333 11.499 -81h130v-54h-177zM427.002 32.002c102 0 190.667 23.001 266 69.001s132 109.667 170 191v257h-266c-132.667 0 -239 -25.833 -319 -77.5s-120 -118.834 -120 -201.501
c0 -67.333 24.667 -123.833 74 -169.5s114.333 -68.5 195 -68.5zM1062 0.00292969c-50.667 -46 -88.002 -84.834 -112.002 -116.501s-36 -67.167 -36 -106.5c0 -15.333 5.33301 -32.5 16 -51.5s33.334 -28.5 68.001 -28.5c23.333 0 43.333 3.5 60 10.5
s33.334 16.167 50.001 27.5l16 -48c-16 -12 -34.167 -22.333 -54.5 -31s-44.166 -13 -71.499 -13c-40.667 0 -73.834 11.833 -99.501 35.5s-38.5 56.5 -38.5 98.5c0 40.667 14 81.834 42 123.501s64 81.5 108 119.5z" />
    <glyph glyph-name="Cacute" unicode="&#x106;" horiz-adv-x="1373" 
d="M1256 992l-54.9951 -0.00195312v234c-44.667 60 -104.334 107.833 -179.001 143.5s-159.667 53.5 -255 53.5c-172.667 0 -313 -63 -421 -189s-162 -291 -162 -495v-20c0 -204.667 53.667 -370.167 161 -496.5s244.666 -189.5 411.999 -189.5c96 0 183 17.833 261 53.5
s139 83.5 183 143.5v234h55v-254c-48.667 -71.333 -117.334 -127.666 -206.001 -168.999s-186.334 -62 -293.001 -62c-184.667 0 -335.334 68.5 -452.001 205.5s-175 315.167 -175 534.5v18c0 220 58.667 398.333 176 535s271 205 461 205
c105.333 0 200.833 -20.667 286.5 -62s153.167 -97.666 202.5 -168.999v-254zM911.005 1834h78l2 -5l-231 -261h-67l-2 5z" />
    <glyph glyph-name="cacute" unicode="&#x107;" horiz-adv-x="1086" 
d="M546 33c91.333 0 172 25.001 242 75.001s105 125 105 225h46l2 -6c2.66699 -106 -36.166 -190.5 -116.499 -253.5s-173.166 -94.5 -278.499 -94.5c-138 0 -246.167 49.667 -324.5 149s-117.5 230 -117.5 392v42c0 161.333 39 291.666 117 390.999s185.667 149 323 149
c81.333 0 156.666 -16.833 225.999 -50.5s125 -79.167 167 -136.5v-232h-54v212c-38 46.667 -85.833 83.834 -143.5 111.501s-122.834 41.5 -195.501 41.5c-126.667 0 -222.667 -45.333 -288 -136s-98 -207.334 -98 -350.001v-42c0 -144 32.667 -261.167 98 -351.5
s162 -135.5 290 -135.5zM702 1491h78l2 -5l-231 -261h-67l-2 5z" />
    <glyph glyph-name="Ccircumflex" unicode="&#x108;" horiz-adv-x="1373" 
d="M1256 992l-54.9951 -0.00195312v234c-44.667 60 -104.334 107.833 -179.001 143.5s-159.667 53.5 -255 53.5c-172.667 0 -313 -63 -421 -189s-162 -291 -162 -495v-20c0 -204.667 53.667 -370.167 161 -496.5s244.666 -189.5 411.999 -189.5c96 0 183 17.833 261 53.5
s139 83.5 183 143.5v234h55v-254c-48.667 -71.333 -117.334 -127.666 -206.001 -168.999s-186.334 -62 -293.001 -62c-184.667 0 -335.334 68.5 -452.001 205.5s-175 315.167 -175 534.5v18c0 220 58.667 398.333 176 535s271 205 461 205
c105.333 0 200.833 -20.667 286.5 -62s153.167 -97.666 202.5 -168.999v-254zM1012 1635v-13h-70l-185 186l-183 -186h-66v17l210 206h80z" />
    <glyph glyph-name="ccircumflex" unicode="&#x109;" horiz-adv-x="1086" 
d="M546 33c91.333 0 172 25.001 242 75.001s105 125 105 225h46l2 -6c2.66699 -106 -36.166 -190.5 -116.499 -253.5s-173.166 -94.5 -278.499 -94.5c-138 0 -246.167 49.667 -324.5 149s-117.5 230 -117.5 392v42c0 161.333 39 291.666 117 390.999s185.667 149 323 149
c81.333 0 156.666 -16.833 225.999 -50.5s125 -79.167 167 -136.5v-232h-54v212c-38 46.667 -85.833 83.834 -143.5 111.501s-122.834 41.5 -195.501 41.5c-126.667 0 -222.667 -45.333 -288 -136s-98 -207.334 -98 -350.001v-42c0 -144 32.667 -261.167 98 -351.5
s162 -135.5 290 -135.5zM803 1292v-13h-70l-185 186l-183 -186h-66v17l210 206h80z" />
    <glyph glyph-name="uni010A" unicode="&#x10a;" horiz-adv-x="1373" 
d="M1256 992l-54.9951 -0.00195312v234c-44.667 60 -104.334 107.833 -179.001 143.5s-159.667 53.5 -255 53.5c-172.667 0 -313 -63 -421 -189s-162 -291 -162 -495v-20c0 -204.667 53.667 -370.167 161 -496.5s244.666 -189.5 411.999 -189.5c96 0 183 17.833 261 53.5
s139 83.5 183 143.5v234h55v-254c-48.667 -71.333 -117.334 -127.666 -206.001 -168.999s-186.334 -62 -293.001 -62c-184.667 0 -335.334 68.5 -452.001 205.5s-175 315.167 -175 534.5v18c0 220 58.667 398.333 176 535s271 205 461 205
c105.333 0 200.833 -20.667 286.5 -62s153.167 -97.666 202.5 -168.999v-254zM805.005 1659h-95v138h95v-138z" />
    <glyph glyph-name="uni010B" unicode="&#x10b;" horiz-adv-x="1086" 
d="M546 33c91.333 0 172 25.001 242 75.001s105 125 105 225h46l2 -6c2.66699 -106 -36.166 -190.5 -116.499 -253.5s-173.166 -94.5 -278.499 -94.5c-138 0 -246.167 49.667 -324.5 149s-117.5 230 -117.5 392v42c0 161.333 39 291.666 117 390.999s185.667 149 323 149
c81.333 0 156.666 -16.833 225.999 -50.5s125 -79.167 167 -136.5v-232h-54v212c-38 46.667 -85.833 83.834 -143.5 111.501s-122.834 41.5 -195.501 41.5c-126.667 0 -222.667 -45.333 -288 -136s-98 -207.334 -98 -350.001v-42c0 -144 32.667 -261.167 98 -351.5
s162 -135.5 290 -135.5zM596 1317h-95v138h95v-138z" />
    <glyph glyph-name="Ccaron" unicode="&#x10c;" horiz-adv-x="1373" 
d="M1256 992l-54.9951 -0.00195312v234c-44.667 60 -104.334 107.833 -179.001 143.5s-159.667 53.5 -255 53.5c-172.667 0 -313 -63 -421 -189s-162 -291 -162 -495v-20c0 -204.667 53.667 -370.167 161 -496.5s244.666 -189.5 411.999 -189.5c96 0 183 17.833 261 53.5
s139 83.5 183 143.5v234h55v-254c-48.667 -71.333 -117.334 -127.666 -206.001 -168.999s-186.334 -62 -293.001 -62c-184.667 0 -335.334 68.5 -452.001 205.5s-175 315.167 -175 534.5v18c0 220 58.667 398.333 176 535s271 205 461 205
c105.333 0 200.833 -20.667 286.5 -62s153.167 -97.666 202.5 -168.999v-254zM756.005 1633l184 187h67v-16l-212 -207h-79l-214 209v14h71z" />
    <glyph glyph-name="ccaron" unicode="&#x10d;" horiz-adv-x="1086" 
d="M546 33c91.333 0 172 25.001 242 75.001s105 125 105 225h46l2 -6c2.66699 -106 -36.166 -190.5 -116.499 -253.5s-173.166 -94.5 -278.499 -94.5c-138 0 -246.167 49.667 -324.5 149s-117.5 230 -117.5 392v42c0 161.333 39 291.666 117 390.999s185.667 149 323 149
c81.333 0 156.666 -16.833 225.999 -50.5s125 -79.167 167 -136.5v-232h-54v212c-38 46.667 -85.833 83.834 -143.5 111.501s-122.834 41.5 -195.501 41.5c-126.667 0 -222.667 -45.333 -288 -136s-98 -207.334 -98 -350.001v-42c0 -144 32.667 -261.167 98 -351.5
s162 -135.5 290 -135.5zM547 1290l184 187h67v-16l-212 -207h-79l-214 209v14h71z" />
    <glyph glyph-name="Dcaron" unicode="&#x10e;" horiz-adv-x="1386" 
d="M637 1456c167.333 0 309.333 -59.999 426 -179.999s175 -273 175 -459v-178c0 -186.667 -58.333 -339.834 -175 -459.501s-258.667 -179.5 -426 -179.5h-566v54h163v1348h-163v54h163h403zM288 1402v-1348h349c151.333 0 280.333 55.333 387 166s160 250.334 160 419.001
v181c0 166.667 -53.333 305.334 -160 416.001s-235.667 166 -387 166h-349zM590 1612l184 187h67v-16l-212 -207h-79l-214 209v14h71z" />
    <glyph glyph-name="dcaron" unicode="&#x10f;" horiz-adv-x="1355" 
d="M879 173c-35.333 -59.333 -84.332 -106.5 -146.999 -141.5s-136.667 -52.5 -222 -52.5c-127.333 0 -226.833 48.667 -298.5 146s-107.5 229.333 -107.5 396v21c0 171.333 36 307.5 108 408.5s172 151.5 300 151.5c85.333 0 158.666 -19.5 219.999 -58.5
s110.333 -92.5 147 -160.5v623h-163v54h163h54v-1506h163v-54h-215zM160.001 521c0 -149.333 29.501 -267.999 88.501 -355.999s145.833 -132 260.5 -132c94 0 172.167 21.333 234.5 64s107.5 99.667 135.5 171v507c-26 77.333 -68 142.166 -126 194.499
s-138.667 78.5 -242 78.5c-114.667 0 -201.834 -46.833 -261.501 -140.5s-89.5 -215.5 -89.5 -365.5v-21zM1206 1461c0 -50 -7.66699 -95.167 -23 -135.5s-36.333 -75.833 -63 -106.5l-37 32c24 34.667 41.5 67.5 52.5 98.5s16.5 67.5 16.5 109.5v99h54v-97z" />
    <glyph glyph-name="Dcroat" unicode="&#x110;" horiz-adv-x="1416" 
d="M667 1456c167.333 0 309.333 -59.999 426 -179.999s175 -273 175 -459v-178c0 -186.667 -58.333 -339.834 -175 -459.501s-258.667 -179.5 -426 -179.5h-566v54h163v659h-128v54h128v635h-163v54h566zM723 713.001l-405 -0.00195312v-659h349
c151.333 0 280.333 55.333 387 166s160 250.334 160 419.001v181c0 166.667 -53.333 305.334 -160 416.001s-235.667 166 -387 166h-349v-635h405v-54z" />
    <glyph glyph-name="dcroat" unicode="&#x111;" horiz-adv-x="1235" 
d="M879 173c-35.333 -59.333 -84.332 -106.5 -146.999 -141.5s-136.667 -52.5 -222 -52.5c-127.333 0 -226.833 48.667 -298.5 146s-107.5 229.333 -107.5 396v21c0 171.333 36 307.5 108 408.5s172 151.5 300 151.5c85.333 0 158.666 -19.5 219.999 -58.5
s110.333 -92.5 147 -160.5v368h-309v54h309v201h-163v54h217v-255h224v-54h-224v-1197h163v-54h-215zM160.001 521c0 -149.333 29.501 -267.999 88.501 -355.999s145.833 -132 260.5 -132c94 0 172.167 21.333 234.5 64s107.5 99.667 135.5 171v507
c-26 77.333 -68 142.166 -126 194.499s-138.667 78.5 -242 78.5c-114.667 0 -201.834 -46.833 -261.501 -140.5s-89.5 -215.5 -89.5 -365.5v-21z" />
    <glyph glyph-name="Emacron" unicode="&#x112;" horiz-adv-x="1270" 
d="M71 0v54h163v1348h-163v54h1049v-293h-54v239h-778v-616h630v-54h-630v-678h778v239h54v-293h-1049zM945 1733h-627v53h627v-53z" />
    <glyph glyph-name="emacron" unicode="&#x113;" horiz-adv-x="1104" 
d="M566 -21c-123.333 0 -229.833 49.832 -319.5 149.499s-134.5 223.5 -134.5 371.5v64c0 155.333 43.333 283.833 130 385.5s193.667 152.5 321 152.5c122 0 221.5 -40 298.5 -120s115.5 -187.333 115.5 -322v-83h-811v-13v-64c0 -130.667 38.333 -241.167 115 -331.5
s171.667 -135.5 285 -135.5c80.667 0 148.167 11 202.5 33s100.833 55 139.5 99l29 -42c-42.667 -47.333 -94.5 -83.166 -155.5 -107.499s-132.833 -36.5 -215.5 -36.5zM563 1048c-107.333 0 -196.667 -39.168 -268 -117.501s-111.666 -176.166 -120.999 -293.499l3 -6h746
v33c0 110 -33.333 201.5 -100 274.5s-153.334 109.5 -260.001 109.5zM892.999 1412h-627v53h627v-53z" />
    <glyph glyph-name="Ebreve" unicode="&#x114;" horiz-adv-x="1270" 
d="M71 0v54h163v1348h-163v54h1049v-293h-54v239h-778v-616h630v-54h-630v-678h778v239h54v-293h-1049zM889 1804l1.99902 -6.00098c2.66699 -71.333 -20.666 -129.5 -69.999 -174.5s-116.666 -67.5 -201.999 -67.5c-86 0 -153.833 22.5 -203.5 67.5
s-72.834 103.167 -69.501 174.5l2 6h46c0 -57.333 18 -103.666 54 -138.999s93 -53 171 -53c74.667 0 130.667 18 168 54s56 82 56 138h46z" />
    <glyph glyph-name="ebreve" unicode="&#x115;" horiz-adv-x="1104" 
d="M566 -21c-123.333 0 -229.833 49.832 -319.5 149.499s-134.5 223.5 -134.5 371.5v64c0 155.333 43.333 283.833 130 385.5s193.667 152.5 321 152.5c122 0 221.5 -40 298.5 -120s115.5 -187.333 115.5 -322v-83h-811v-13v-64c0 -130.667 38.333 -241.167 115 -331.5
s171.667 -135.5 285 -135.5c80.667 0 148.167 11 202.5 33s100.833 55 139.5 99l29 -42c-42.667 -47.333 -94.5 -83.166 -155.5 -107.499s-132.833 -36.5 -215.5 -36.5zM563 1048c-107.333 0 -196.667 -39.168 -268 -117.501s-111.666 -176.166 -120.999 -293.499l3 -6h746
v33c0 110 -33.333 201.5 -100 274.5s-153.334 109.5 -260.001 109.5zM836.999 1483l1.99902 -6.00098c2.66699 -71.333 -20.666 -129.5 -69.999 -174.5s-116.666 -67.5 -201.999 -67.5c-86 0 -153.833 22.5 -203.5 67.5s-72.834 103.167 -69.501 174.5l2 6h46
c0 -57.333 18 -103.666 54 -138.999s93 -53 171 -53c74.667 0 130.667 18 168 54s56 82 56 138h46z" />
    <glyph glyph-name="Edotaccent" unicode="&#x116;" horiz-adv-x="1270" 
d="M71 0v54h163v1348h-163v54h1049v-293h-54v239h-778v-616h630v-54h-630v-678h778v239h54v-293h-1049zM668 1638h-95v138h95v-138z" />
    <glyph glyph-name="edotaccent" unicode="&#x117;" horiz-adv-x="1104" 
d="M566 -21c-123.333 0 -229.833 49.832 -319.5 149.499s-134.5 223.5 -134.5 371.5v64c0 155.333 43.333 283.833 130 385.5s193.667 152.5 321 152.5c122 0 221.5 -40 298.5 -120s115.5 -187.333 115.5 -322v-83h-811v-13v-64c0 -130.667 38.333 -241.167 115 -331.5
s171.667 -135.5 285 -135.5c80.667 0 148.167 11 202.5 33s100.833 55 139.5 99l29 -42c-42.667 -47.333 -94.5 -83.166 -155.5 -107.499s-132.833 -36.5 -215.5 -36.5zM563 1048c-107.333 0 -196.667 -39.168 -268 -117.501s-111.666 -176.166 -120.999 -293.499l3 -6h746
v33c0 110 -33.333 201.5 -100 274.5s-153.334 109.5 -260.001 109.5zM615.999 1318h-95v138h95v-138z" />
    <glyph glyph-name="Eogonek" unicode="&#x118;" horiz-adv-x="1270" 
d="M71 0v54h163v1348h-163v54h1049v-293h-54v239h-778v-616h630v-54h-630v-678h778v239h54v-293h-1049zM666 0c-50.667 -46 -88.002 -84.834 -112.002 -116.501s-36 -67.167 -36 -106.5c0 -15.333 5.33301 -32.5 16 -51.5s33.334 -28.5 68.001 -28.5
c23.333 0 43.333 3.5 60 10.5s33.334 16.167 50.001 27.5l16 -48c-16 -12 -34.167 -22.333 -54.5 -31s-44.166 -13 -71.499 -13c-40.667 0 -73.834 11.833 -99.501 35.5s-38.5 56.5 -38.5 98.5c0 40.667 14 81.834 42 123.501s64 81.5 108 119.5z" />
    <glyph glyph-name="eogonek" unicode="&#x119;" horiz-adv-x="1104" 
d="M566 -21c-123.333 0 -229.833 49.832 -319.5 149.499s-134.5 223.5 -134.5 371.5v64c0 155.333 43.333 283.833 130 385.5s193.667 152.5 321 152.5c122 0 221.5 -40 298.5 -120s115.5 -187.333 115.5 -322v-83h-811v-13v-64c0 -130.667 38.333 -241.167 115 -331.5
s171.667 -135.5 285 -135.5c80.667 0 148.167 11 202.5 33s100.833 55 139.5 99l29 -42c-42.667 -47.333 -94.5 -83.166 -155.5 -107.499s-132.833 -36.5 -215.5 -36.5zM563 1048c-107.333 0 -196.667 -39.168 -268 -117.501s-111.666 -176.166 -120.999 -293.499l3 -6h746
v33c0 110 -33.333 201.5 -100 274.5s-153.334 109.5 -260.001 109.5zM831.999 57.998c-50.667 -46 -88.002 -84.834 -112.002 -116.501s-36 -67.167 -36 -106.5c0 -15.333 5.33301 -32.5 16 -51.5s33.334 -28.5 68.001 -28.5c23.333 0 43.333 3.5 60 10.5
s33.334 16.167 50.001 27.5l16 -48c-16 -12 -34.167 -22.333 -54.5 -31s-44.166 -13 -71.499 -13c-40.667 0 -73.834 11.833 -99.501 35.5s-38.5 56.5 -38.5 98.5c0 40.667 14 81.834 42 123.501s64 81.5 108 119.5z" />
    <glyph glyph-name="Ecaron" unicode="&#x11a;" horiz-adv-x="1270" 
d="M71 0v54h163v1348h-163v54h1049v-293h-54v239h-778v-616h630v-54h-630v-678h778v239h54v-293h-1049zM619 1612l184 187h67v-16l-212 -207h-79l-214 209v14h71z" />
    <glyph glyph-name="ecaron" unicode="&#x11b;" horiz-adv-x="1104" 
d="M566 -21c-123.333 0 -229.833 49.832 -319.5 149.499s-134.5 223.5 -134.5 371.5v64c0 155.333 43.333 283.833 130 385.5s193.667 152.5 321 152.5c122 0 221.5 -40 298.5 -120s115.5 -187.333 115.5 -322v-83h-811v-13v-64c0 -130.667 38.333 -241.167 115 -331.5
s171.667 -135.5 285 -135.5c80.667 0 148.167 11 202.5 33s100.833 55 139.5 99l29 -42c-42.667 -47.333 -94.5 -83.166 -155.5 -107.499s-132.833 -36.5 -215.5 -36.5zM563 1048c-107.333 0 -196.667 -39.168 -268 -117.501s-111.666 -176.166 -120.999 -293.499l3 -6h746
v33c0 110 -33.333 201.5 -100 274.5s-153.334 109.5 -260.001 109.5zM566.999 1291l184 187h67v-16l-212 -207h-79l-214 209v14h71z" />
    <glyph glyph-name="Gcircumflex" unicode="&#x11c;" horiz-adv-x="1449" 
d="M1248 156c-30.667 -42.667 -89.5 -82.835 -176.5 -120.502s-193.833 -56.5 -320.5 -56.5c-184.667 0 -334.334 68.5 -449.001 205.5s-172 315.5 -172 535.5v38c0 212.667 57.667 385.667 173 519s265.666 200 450.999 200c110.667 0 208.834 -19.167 294.501 -57.5
s153.834 -92.833 204.501 -163.5v-244h-54l1 224c-46 59.333 -106.667 105.333 -182 138s-163.333 49 -264 49c-171.333 0 -309.166 -61.667 -413.499 -185s-156.5 -282.666 -156.5 -477.999v-40c0 -203.333 51.833 -368.666 155.5 -495.999s240.834 -191 411.501 -191
c107.333 0 201.166 15.667 281.499 47s134.166 65 161.499 101v384h-315v55h369v-464zM936 1635v-13h-70l-185 186l-183 -186h-66v17l210 206h80z" />
    <glyph glyph-name="gcircumflex" unicode="&#x11d;" horiz-adv-x="1140" 
d="M112 542c0 171.333 36 307.5 108 408.5s172 151.5 300 151.5c85.333 0 158.833 -19.667 220.5 -59s110.5 -93 146.5 -161l8 200h46v-1068c0 -138.667 -36.5 -248.5 -109.5 -329.5s-172.833 -121.5 -299.5 -121.5c-52.667 0 -107.5 5.5 -164.5 16.5
s-106.833 26.167 -149.5 45.5l16 54c48.667 -21.333 95.667 -37.166 141 -47.499s97 -15.5 155 -15.5c115.333 0 203.5 35.5 264.5 106.5s91.5 168.167 91.5 291.5v157c-36 -58.667 -85.167 -105.334 -147.5 -140.001s-135.833 -52 -220.5 -52
c-127.333 0 -226.833 48.667 -298.5 146s-107.5 229.333 -107.5 396v21zM167 521c0 -149.333 29.666 -268 88.999 -356s146.333 -132 261 -132c96 0 174.833 22 236.5 66s105.834 103 132.501 177v491c-25.333 79.333 -66.5 146 -123.5 200s-138.167 81 -243.5 81
c-114.667 0 -202 -46.833 -262 -140.5s-90 -215.5 -90 -365.5v-21zM822.999 1292v-13h-70l-185 186l-183 -186h-66v17l210 206h80z" />
    <glyph glyph-name="Gbreve" unicode="&#x11e;" horiz-adv-x="1449" 
d="M1248 156c-30.667 -42.667 -89.5 -82.835 -176.5 -120.502s-193.833 -56.5 -320.5 -56.5c-184.667 0 -334.334 68.5 -449.001 205.5s-172 315.5 -172 535.5v38c0 212.667 57.667 385.667 173 519s265.666 200 450.999 200c110.667 0 208.834 -19.167 294.501 -57.5
s153.834 -92.833 204.501 -163.5v-244h-54l1 224c-46 59.333 -106.667 105.333 -182 138s-163.333 49 -264 49c-171.333 0 -309.166 -61.667 -413.499 -185s-156.5 -282.666 -156.5 -477.999v-40c0 -203.333 51.833 -368.666 155.5 -495.999s240.834 -191 411.501 -191
c107.333 0 201.166 15.667 281.499 47s134.166 65 161.499 101v384h-315v55h369v-464zM950 1825l1.99902 -6.00098c2.66699 -71.333 -20.666 -129.5 -69.999 -174.5s-116.666 -67.5 -201.999 -67.5c-86 0 -153.833 22.5 -203.5 67.5s-72.834 103.167 -69.501 174.5l2 6h46
c0 -57.333 18 -103.666 54 -138.999s93 -53 171 -53c74.667 0 130.667 18 168 54s56 82 56 138h46z" />
    <glyph glyph-name="gbreve" unicode="&#x11f;" horiz-adv-x="1140" 
d="M112 542c0 171.333 36 307.5 108 408.5s172 151.5 300 151.5c85.333 0 158.833 -19.667 220.5 -59s110.5 -93 146.5 -161l8 200h46v-1068c0 -138.667 -36.5 -248.5 -109.5 -329.5s-172.833 -121.5 -299.5 -121.5c-52.667 0 -107.5 5.5 -164.5 16.5
s-106.833 26.167 -149.5 45.5l16 54c48.667 -21.333 95.667 -37.166 141 -47.499s97 -15.5 155 -15.5c115.333 0 203.5 35.5 264.5 106.5s91.5 168.167 91.5 291.5v157c-36 -58.667 -85.167 -105.334 -147.5 -140.001s-135.833 -52 -220.5 -52
c-127.333 0 -226.833 48.667 -298.5 146s-107.5 229.333 -107.5 396v21zM167 521c0 -149.333 29.666 -268 88.999 -356s146.333 -132 261 -132c96 0 174.833 22 236.5 66s105.834 103 132.501 177v491c-25.333 79.333 -66.5 146 -123.5 200s-138.167 81 -243.5 81
c-114.667 0 -202 -46.833 -262 -140.5s-90 -215.5 -90 -365.5v-21zM836.999 1482l1.99902 -6.00098c2.66699 -71.333 -20.666 -129.5 -69.999 -174.5s-116.666 -67.5 -201.999 -67.5c-86 0 -153.833 22.5 -203.5 67.5s-72.834 103.167 -69.501 174.5l2 6h46
c0 -57.333 18 -103.666 54 -138.999s93 -53 171 -53c74.667 0 130.667 18 168 54s56 82 56 138h46z" />
    <glyph glyph-name="uni0120" unicode="&#x120;" horiz-adv-x="1449" 
d="M1248 156c-30.667 -42.667 -89.5 -82.835 -176.5 -120.502s-193.833 -56.5 -320.5 -56.5c-184.667 0 -334.334 68.5 -449.001 205.5s-172 315.5 -172 535.5v38c0 212.667 57.667 385.667 173 519s265.666 200 450.999 200c110.667 0 208.834 -19.167 294.501 -57.5
s153.834 -92.833 204.501 -163.5v-244h-54l1 224c-46 59.333 -106.667 105.333 -182 138s-163.333 49 -264 49c-171.333 0 -309.166 -61.667 -413.499 -185s-156.5 -282.666 -156.5 -477.999v-40c0 -203.333 51.833 -368.666 155.5 -495.999s240.834 -191 411.501 -191
c107.333 0 201.166 15.667 281.499 47s134.166 65 161.499 101v384h-315v55h369v-464zM729 1659h-95v138h95v-138z" />
    <glyph glyph-name="uni0121" unicode="&#x121;" horiz-adv-x="1140" 
d="M112 542c0 171.333 36 307.5 108 408.5s172 151.5 300 151.5c85.333 0 158.833 -19.667 220.5 -59s110.5 -93 146.5 -161l8 200h46v-1068c0 -138.667 -36.5 -248.5 -109.5 -329.5s-172.833 -121.5 -299.5 -121.5c-52.667 0 -107.5 5.5 -164.5 16.5
s-106.833 26.167 -149.5 45.5l16 54c48.667 -21.333 95.667 -37.166 141 -47.499s97 -15.5 155 -15.5c115.333 0 203.5 35.5 264.5 106.5s91.5 168.167 91.5 291.5v157c-36 -58.667 -85.167 -105.334 -147.5 -140.001s-135.833 -52 -220.5 -52
c-127.333 0 -226.833 48.667 -298.5 146s-107.5 229.333 -107.5 396v21zM167 521c0 -149.333 29.666 -268 88.999 -356s146.333 -132 261 -132c96 0 174.833 22 236.5 66s105.834 103 132.501 177v491c-25.333 79.333 -66.5 146 -123.5 200s-138.167 81 -243.5 81
c-114.667 0 -202 -46.833 -262 -140.5s-90 -215.5 -90 -365.5v-21zM615.999 1317h-95v138h95v-138z" />
    <glyph glyph-name="Gcommaaccent" unicode="&#x122;" horiz-adv-x="1449" 
d="M1248 156c-30.667 -42.667 -89.5 -82.835 -176.5 -120.502s-193.833 -56.5 -320.5 -56.5c-184.667 0 -334.334 68.5 -449.001 205.5s-172 315.5 -172 535.5v38c0 212.667 57.667 385.667 173 519s265.666 200 450.999 200c110.667 0 208.834 -19.167 294.501 -57.5
s153.834 -92.833 204.501 -163.5v-244h-54l1 224c-46 59.333 -106.667 105.333 -182 138s-163.333 49 -264 49c-171.333 0 -309.166 -61.667 -413.499 -185s-156.5 -282.666 -156.5 -477.999v-40c0 -203.333 51.833 -368.666 155.5 -495.999s240.834 -191 411.501 -191
c107.333 0 201.166 15.667 281.499 47s134.166 65 161.499 101v384h-315v55h369v-464zM728 -255.001c0 -50 -7.66699 -95.167 -23 -135.5s-36.333 -75.833 -63 -106.5l-37 32c24 34.667 41.5 67.5 52.5 98.5s16.5 67.5 16.5 109.5v99h54v-97z" />
    <glyph glyph-name="gcommaaccent" unicode="&#x123;" horiz-adv-x="1140" 
d="M112 542c0 171.333 36 307.5 108 408.5s172 151.5 300 151.5c85.333 0 158.833 -19.667 220.5 -59s110.5 -93 146.5 -161l8 200h46v-1068c0 -138.667 -36.5 -248.5 -109.5 -329.5s-172.833 -121.5 -299.5 -121.5c-52.667 0 -107.5 5.5 -164.5 16.5
s-106.833 26.167 -149.5 45.5l16 54c48.667 -21.333 95.667 -37.166 141 -47.499s97 -15.5 155 -15.5c115.333 0 203.5 35.5 264.5 106.5s91.5 168.167 91.5 291.5v157c-36 -58.667 -85.167 -105.334 -147.5 -140.001s-135.833 -52 -220.5 -52
c-127.333 0 -226.833 48.667 -298.5 146s-107.5 229.333 -107.5 396v21zM167 521c0 -149.333 29.666 -268 88.999 -356s146.333 -132 261 -132c96 0 174.833 22 236.5 66s105.834 103 132.501 177v491c-25.333 79.333 -66.5 146 -123.5 200s-138.167 81 -243.5 81
c-114.667 0 -202 -46.833 -262 -140.5s-90 -215.5 -90 -365.5v-21zM543.999 1402l59 188h50l-55 -184v-132h-54v128z" />
    <glyph glyph-name="Hcircumflex" unicode="&#x124;" horiz-adv-x="1506" 
d="M71 1402v54h380v-54h-163v-653h930v653h-163v54h163h54h163v-54h-163v-1348h163v-54h-380v54h163v641h-930v-641h163v-54h-380v54h163v1348h-163zM972 1614v-13h-70l-185 186l-183 -186h-66v17l210 206h80z" />
    <glyph glyph-name="hcircumflex" unicode="&#x125;" horiz-adv-x="1278" 
d="M62 1506l-0.000976562 54h217v-706c33.333 78.667 82.333 139.667 147 183s143.667 65 237 65c112.667 0 198.167 -35.667 256.5 -107s87.5 -183.666 87.5 -336.999v-604h163v-54h-381v54h163v606c0 142 -26.167 242.167 -78.5 300.5s-122.166 87.5 -209.499 87.5
c-116.667 0 -206 -34.833 -268 -104.5s-101 -158.834 -117 -267.501v-622h163v-54h-380v54h163v1452h-163zM651.999 1613v-13h-70l-185 186l-183 -186h-66v17l210 206h80z" />
    <glyph glyph-name="Hbar" unicode="&#x126;" horiz-adv-x="1451" 
d="M1409 1456v-54h-163v-321h135v-53h-135v-974h163v-54h-380v54h163v641h-930v-641h163v-54h-380v54h163v974h-159v53h159v321h-163v54h380v-54h-163v-321h930v321h-163v54h163h54h163zM262 749h930v279h-930v-279z" />
    <glyph glyph-name="hbar" unicode="&#x127;" horiz-adv-x="1308" 
d="M92 54h162.999v1205h-148v54h148v193h-163v54h217v-247h385v-54h-385v-405c33.333 78.667 82.333 139.667 147 183s143.667 65 237 65c112.667 0 198.167 -35.667 256.5 -107s87.5 -183.666 87.5 -336.999v-604h163v-54h-381v54h163v606
c0 142 -26.167 242.167 -78.5 300.5s-122.166 87.5 -209.499 87.5c-116.667 0 -206 -34.833 -268 -104.5s-101 -158.834 -117 -267.501v-622h163v-54h-380v54z" />
    <glyph glyph-name="Itilde" unicode="&#x128;" horiz-adv-x="598" 
d="M109 1402v54h380v-54h-163v-1348h163v-54h-380v54h163v1348h-163zM657 1801c0 -54.667 -17 -99.3311 -51 -133.998s-75.667 -52 -125 -52c-50.667 0 -102 20.833 -154 62.5s-96.333 62.5 -133 62.5c-34.667 0 -63.5 -12.333 -86.5 -37s-34.5 -57.334 -34.5 -98.001
l-55 10c0 53.333 16.667 96.5 50 129.5s75.333 49.5 126 49.5c48 0 99 -20.667 153 -62s98.667 -62 134 -62c33.333 0 61.833 13.167 85.5 39.5s35.5 60.166 35.5 101.499z" />
    <glyph glyph-name="itilde" unicode="&#x129;" horiz-adv-x="608" 
d="M90 1028v54h217v-1028h163v-54h-380v54h163v974h-163zM634 1459c0 -54.667 -17 -99.3311 -51 -133.998s-75.667 -52 -125 -52c-50.667 0 -102 20.833 -154 62.5s-96.333 62.5 -133 62.5c-34.667 0 -63.5 -12.333 -86.5 -37s-34.5 -57.334 -34.5 -98.001l-55 10
c0 53.333 16.667 96.5 50 129.5s75.333 49.5 126 49.5c48 0 99 -20.667 153 -62s98.667 -62 134 -62c33.333 0 61.833 13.167 85.5 39.5s35.5 60.166 35.5 101.499z" />
    <glyph glyph-name="Imacron" unicode="&#x12a;" horiz-adv-x="598" 
d="M109 1402v54h380v-54h-163v-1348h163v-54h-380v54h163v1348h-163zM634 1733h-627v53h627v-53z" />
    <glyph glyph-name="imacron" unicode="&#x12b;" horiz-adv-x="608" 
d="M90 1028v54h217v-1028h163v-54h-380v54h163v974h-163zM611 1391h-627v53h627v-53z" />
    <glyph glyph-name="Ibreve" unicode="&#x12c;" horiz-adv-x="598" 
d="M109 1402v54h380v-54h-163v-1348h163v-54h-380v54h163v1348h-163zM578 1804l1.99902 -6.00098c2.66699 -71.333 -20.666 -129.5 -69.999 -174.5s-116.666 -67.5 -201.999 -67.5c-86 0 -153.833 22.5 -203.5 67.5s-72.834 103.167 -69.501 174.5l2 6h46
c0 -57.333 18 -103.666 54 -138.999s93 -53 171 -53c74.667 0 130.667 18 168 54s56 82 56 138h46z" />
    <glyph glyph-name="ibreve" unicode="&#x12d;" horiz-adv-x="608" 
d="M90 1028v54h217v-1028h163v-54h-380v54h163v974h-163zM555 1461l1.99902 -6.00098c2.66699 -71.333 -20.666 -129.5 -69.999 -174.5s-116.666 -67.5 -201.999 -67.5c-86 0 -153.833 22.5 -203.5 67.5s-72.834 103.167 -69.501 174.5l2 6h46
c0 -57.333 18 -103.666 54 -138.999s93 -53 171 -53c74.667 0 130.667 18 168 54s56 82 56 138h46z" />
    <glyph glyph-name="Iogonek" unicode="&#x12e;" horiz-adv-x="598" 
d="M109 1402v54h380v-54h-163v-1348h163v-54h-380v54h163v1348h-163zM489 0c-50.667 -46 -88.002 -84.834 -112.002 -116.501s-36 -67.167 -36 -106.5c0 -15.333 5.33301 -32.5 16 -51.5s33.334 -28.5 68.001 -28.5c23.333 0 43.333 3.5 60 10.5s33.334 16.167 50.001 27.5
l16 -48c-16 -12 -34.167 -22.333 -54.5 -31s-44.166 -13 -71.499 -13c-40.667 0 -73.834 11.833 -99.501 35.5s-38.5 56.5 -38.5 98.5c0 40.667 14 81.834 42 123.501s64 81.5 108 119.5z" />
    <glyph glyph-name="iogonek" unicode="&#x12f;" horiz-adv-x="609" 
d="M89 54h163v974h-163v54h217v-1028h163v-54h-380v54zM306 1422h-54v138h54v-138zM469 0c-50.667 -46 -88.002 -84.834 -112.002 -116.501s-36 -67.167 -36 -106.5c0 -15.333 5.33301 -32.5 16 -51.5s33.334 -28.5 68.001 -28.5c23.333 0 43.333 3.5 60 10.5
s33.334 16.167 50.001 27.5l16 -48c-16 -12 -34.167 -22.333 -54.5 -31s-44.166 -13 -71.499 -13c-40.667 0 -73.834 11.833 -99.501 35.5s-38.5 56.5 -38.5 98.5c0 40.667 14 81.834 42 123.501s64 81.5 108 119.5z" />
    <glyph glyph-name="Idotaccent" unicode="&#x130;" horiz-adv-x="598" 
d="M109 1402v54h380v-54h-163v-1348h163v-54h-380v54h163v1348h-163zM356 1638h-95v138h95v-138z" />
    <glyph glyph-name="dotlessi" unicode="&#x131;" horiz-adv-x="608" 
d="M90 1028v54h217v-1028h163v-54h-380v54h163v974h-163z" />
    <glyph glyph-name="IJ" unicode="&#x132;" horiz-adv-x="1735" 
d="M109 1402v54h380v-54h-163v-1348h163v-54h-380v54h163v1348h-163zM1641 1402h-162.999v-980c0 -135.333 -38.167 -243 -114.5 -323s-174.5 -120 -294.5 -120c-133.333 0 -238.333 35.333 -315 106s-113.334 174 -110.001 310l2 6h46c0 -118.667 32.333 -209.667 97 -273
s158 -95 280 -95c102 0 186.667 35 254 105s101 164.667 101 284v980h-163v54h380v-54z" />
    <glyph glyph-name="ij" unicode="&#x133;" horiz-adv-x="1164" 
d="M89 54h163v974h-163v54h217v-1028h163v-54h-380v54zM306 1422h-54v138h54v-138zM993 -89c0 -111.333 -24.998 -197.166 -74.998 -257.499s-120 -90.5 -210 -90.5c-20 0 -38.667 1.66699 -56 5s-36 8.33301 -56 15l13 52c12 -4 27.167 -8 45.5 -12s36.166 -6 53.499 -6
c73.333 0 130.166 25.667 170.499 77s60.5 123.666 60.5 216.999v1117h-163v54h217v-1171zM987.002 1426h-54v134h54v-134z" />
    <glyph glyph-name="Jcircumflex" unicode="&#x134;" horiz-adv-x="1137" 
d="M1043 1402h-162.999v-980c0 -135.333 -38.167 -243 -114.5 -323s-174.5 -120 -294.5 -120c-133.333 0 -238.333 35.333 -315 106s-113.334 174 -110.001 310l2 6h46c0 -118.667 32.333 -209.667 97 -273s158 -95 280 -95c102 0 186.667 35 254 105s101 164.667 101 284
v980h-163v54h380v-54zM1139 1584v-13h-70l-185 186l-183 -186h-66v17l210 206h80z" />
    <glyph glyph-name="jcircumflex" unicode="&#x135;" horiz-adv-x="563" 
d="M393 -89c0 -111.333 -24.998 -197.167 -74.998 -257.5s-120 -90.5 -210 -90.5c-20 0 -38.667 1.66699 -56 5s-36 8.33301 -56 15l13 52c12 -4 27.167 -8 45.5 -12s36.166 -6 53.499 -6c73.333 0 130.166 25.5 170.499 76.5s60.5 123.5 60.5 217.5v1117h-163v54h217v-1171
zM623.002 1252v-13h-70l-185 186l-183 -186h-66v17l210 206h80z" />
    <glyph glyph-name="Kcommaaccent" unicode="&#x136;" horiz-adv-x="1388" 
d="M71 54h163v1348h-163v54h380v-54h-163v-638h238l565 633l-2 5h-168v54h361v-54h-115l-596 -672l639 -676h118v-54h-361v54h163l3 6l-622 651h-223v-657h163v-54h-380v54zM660 -259c0 -50 -7.66699 -95.167 -23 -135.5s-36.333 -75.833 -63 -106.5l-37 32
c24 34.667 41.5 67.5 52.5 98.5s16.5 67.5 16.5 109.5v99h54v-97z" />
    <glyph glyph-name="kcommaaccent" unicode="&#x137;" horiz-adv-x="1152" 
d="M62 1506v54h217v-953h127l430 415l-2 6h-119v54h321v-54h-122l-447 -439l489 -535h117v-54h-320v54h126l2 5l-454 494h-148v-499h163v-54h-380v54h163v1452h-163zM558 -245c0 -50 -7.66699 -95.167 -23 -135.5s-36.333 -75.833 -63 -106.5l-37 32
c24 34.667 41.5 67.5 52.5 98.5s16.5 67.5 16.5 109.5v99h54v-97z" />
    <glyph glyph-name="kgreenlandic" unicode="&#x138;" horiz-adv-x="1155" 
d="M62 54h163v973h-163v54h217v-474h127l430 415l-2 6h-119v54h321v-54h-122l-447 -439l489 -535h117v-54h-137l-509 553h-148v-499h163v-54h-380v54z" />
    <glyph glyph-name="Lacute" unicode="&#x139;" horiz-adv-x="1161" 
d="M71 0v54h163v1348h-163v54h163h55h163v-54h-163v-1348h693v239h54v-293h-965zM412 1750h78l2 -5l-231 -261h-67l-2 5z" />
    <glyph glyph-name="lacute" unicode="&#x13a;" horiz-adv-x="581" 
d="M82 1506v54h217v-1506h163v-54h-380v54h163v1452h-163zM428 1874h78l2 -5l-231 -261h-67l-2 5z" />
    <glyph glyph-name="Lcommaaccent" unicode="&#x13b;" horiz-adv-x="1161" 
d="M71 0v54h163v1348h-163v54h163h55h163v-54h-163v-1348h693v239h54v-293h-965zM647 -245c0 -50 -7.66699 -95.167 -23 -135.5s-36.333 -75.833 -63 -106.5l-37 32c24 34.667 41.5 67.5 52.5 98.5s16.5 67.5 16.5 109.5v99h54v-97z" />
    <glyph glyph-name="lcommaaccent" unicode="&#x13c;" horiz-adv-x="581" 
d="M82 1506v54h217v-1506h163v-54h-380v54h163v1452h-163zM292 -245c0 -50 -7.66699 -95.167 -23 -135.5s-36.333 -75.833 -63 -106.5l-37 32c24 34.667 41.5 67.5 52.5 98.5s16.5 67.5 16.5 109.5v99h54v-97z" />
    <glyph glyph-name="Lcaron" unicode="&#x13d;" horiz-adv-x="1161" 
d="M71 0v54h163v1348h-163v54h163h55h163v-54h-163v-1348h693v239h54v-293h-965zM650 1358c0 -50 -7.66699 -95.167 -23 -135.5s-36.333 -75.833 -63 -106.5l-37 32c24 34.667 41.5 67.5 52.5 98.5s16.5 67.5 16.5 109.5v99h54v-97z" />
    <glyph glyph-name="lcaron" unicode="&#x13e;" horiz-adv-x="731" 
d="M82 1506v54h217v-1506h163v-54h-380v54h163v1452h-163zM519 1461c0 -50 -7.66699 -95.167 -23 -135.5s-36.333 -75.833 -63 -106.5l-37 32c24 34.667 41.5 67.5 52.5 98.5s16.5 67.5 16.5 109.5v99h54v-97z" />
    <glyph glyph-name="Ldot" unicode="&#x13f;" horiz-adv-x="1161" 
d="M71 0v54h163v1348h-163v54h163h55h163v-54h-163v-1348h693v239h54v-293h-965zM696 687h-95v138h95v-138z" />
    <glyph glyph-name="ldot" unicode="&#x140;" horiz-adv-x="801" 
d="M82 1506v54h217v-1506h163v-54h-380v54h163v1452h-163zM512 726h-95v138h95v-138z" />
    <glyph glyph-name="Lslash" unicode="&#x141;" horiz-adv-x="1161" 
d="M452 1402h-163v-626l364 116v-57l-364 -116v-665h693v239h54v-293h-965v54h163v648l-171 -54v57l171 54v643h-163v54h381v-54z" />
    <glyph glyph-name="lslash" unicode="&#x142;" horiz-adv-x="524" 
d="M279 841l218 89v-59l-218 -89v-728h163v-54h-380v54h163v706l-188 -76v59l188 76v687h-163v54h217v-719z" />
    <glyph glyph-name="Nacute" unicode="&#x143;" horiz-adv-x="1517" 
d="M1446 1456v-54h-163v-1402h-54l-934 1356l-6 -2v-1300h163v-54h-381v54h163v1348h-163v54h163h55l934 -1353l6 2v1297h-163v54h217h163zM881 1813h78l2 -5l-231 -261h-67l-2 5z" />
    <glyph glyph-name="nacute" unicode="&#x144;" horiz-adv-x="1320" 
d="M89 54l162.999 0.000976562v974h-163v54h209l7 -223c32.667 77.333 80.334 137.166 143.001 179.499s140 63.5 232 63.5c118 0 206.5 -37.167 265.5 -111.5s88.5 -192.166 88.5 -353.499v-583h163v-54h-380v54h163v585c0 150 -26.833 255.667 -80.5 317
s-126.5 92 -218.5 92c-116.667 0 -204.667 -34.833 -264 -104.5s-96.333 -158.834 -111 -267.501v-622h163v-54h-380v54zM791.999 1491h78l2 -5l-231 -261h-67l-2 5z" />
    <glyph glyph-name="Ncommaaccent" unicode="&#x145;" horiz-adv-x="1517" 
d="M1446 1456v-54h-163v-1402h-54l-934 1356l-6 -2v-1300h163v-54h-381v54h163v1348h-163v54h163h55l934 -1353l6 2v1297h-163v54h217h163zM748 -245c0 -50 -7.66699 -95.167 -23 -135.5s-36.333 -75.833 -63 -106.5l-37 32c24 34.667 41.5 67.5 52.5 98.5
s16.5 67.5 16.5 109.5v99h54v-97z" />
    <glyph glyph-name="ncommaaccent" unicode="&#x146;" horiz-adv-x="1320" 
d="M89 54l162.999 0.000976562v974h-163v54h209l7 -223c32.667 77.333 80.334 137.166 143.001 179.499s140 63.5 232 63.5c118 0 206.5 -37.167 265.5 -111.5s88.5 -192.166 88.5 -353.499v-583h163v-54h-380v54h163v585c0 150 -26.833 255.667 -80.5 317
s-126.5 92 -218.5 92c-116.667 0 -204.667 -34.833 -264 -104.5s-96.333 -158.834 -111 -267.501v-622h163v-54h-380v54zM660.999 -244.999c0 -50 -7.66699 -95.167 -23 -135.5s-36.333 -75.833 -63 -106.5l-37 32c24 34.667 41.5 67.5 52.5 98.5s16.5 67.5 16.5 109.5v99
h54v-97z" />
    <glyph glyph-name="Ncaron" unicode="&#x147;" horiz-adv-x="1517" 
d="M1446 1456v-54h-163v-1402h-54l-934 1356l-6 -2v-1300h163v-54h-381v54h163v1348h-163v54h163h55l934 -1353l6 2v1297h-163v54h217h163zM726 1612l184 187h67v-16l-212 -207h-79l-214 209v14h71z" />
    <glyph glyph-name="ncaron" unicode="&#x148;" horiz-adv-x="1320" 
d="M89 54l162.999 0.000976562v974h-163v54h209l7 -223c32.667 77.333 80.334 137.166 143.001 179.499s140 63.5 232 63.5c118 0 206.5 -37.167 265.5 -111.5s88.5 -192.166 88.5 -353.499v-583h163v-54h-380v54h163v585c0 150 -26.833 255.667 -80.5 317
s-126.5 92 -218.5 92c-116.667 0 -204.667 -34.833 -264 -104.5s-96.333 -158.834 -111 -267.501v-622h163v-54h-380v54zM636.999 1290l184 187h67v-16l-212 -207h-79l-214 209v14h71z" />
    <glyph glyph-name="napostrophe" unicode="&#x149;" horiz-adv-x="1320" 
d="M89 54l162.999 0.000976562v974h-163v54h209l7 -223c32.667 77.333 80.334 137.166 143.001 179.499s140 63.5 232 63.5c118 0 206.5 -37.167 265.5 -111.5s88.5 -192.166 88.5 -353.499v-583h163v-54h-380v54h163v585c0 150 -26.833 255.667 -80.5 317
s-126.5 92 -218.5 92c-116.667 0 -204.667 -34.833 -264 -104.5s-96.333 -158.834 -111 -267.501v-622h163v-54h-380v54zM160.999 1458c0 -50 -7.66699 -95.167 -23 -135.5s-36.333 -75.833 -63 -106.5l-37 32c24 34.667 41.5 67.5 52.5 98.5s16.5 67.5 16.5 109.5v99h54
v-97z" />
    <glyph glyph-name="Eng" unicode="&#x14a;" horiz-adv-x="1537" 
d="M70 54l163 0.000976562v1348h-163v54h217l936 -1355l6 2v1299h-163v54h380v-54h-163v-1491c0 -111.333 -25.167 -197.166 -75.5 -257.499s-120.166 -90.5 -209.499 -90.5c-20 0 -38.667 1.66699 -56 5s-36 8.33301 -56 15l13 52c12 -4.66699 27 -8.83398 45 -12.501
s36 -5.5 54 -5.5c73.333 0 130.166 25.667 170.499 77s60.5 123.666 60.5 216.999v89l-936 1356l-6 -2v-1300h163v-54h-380v54z" />
    <glyph glyph-name="eng" unicode="&#x14b;" horiz-adv-x="1225" 
d="M90 1028l-0.00292969 53.998h211l6 -224c32.667 77.333 80.334 137.333 143.001 180s140.334 64 233.001 64c118 0 206.5 -37.167 265.5 -111.5s88.5 -192.166 88.5 -353.499v-726c0 -111.333 -25.167 -197.166 -75.5 -257.499s-120.166 -90.5 -209.499 -90.5
c-24 0 -46.333 1.66699 -67 5s-42.667 8.33301 -66 15l13 52c14 -4.66699 32.333 -9 55 -13s44.334 -6 65.001 -6c73.333 0 130.166 25.833 170.499 77.5s60.5 124.167 60.5 217.5v728c0 150 -26.667 255.667 -80 317s-126.333 92 -219 92c-116 0 -204 -34.333 -264 -103
s-97.667 -157 -113 -265v-626h163v-54h-380v54h163v974h-163z" />
    <glyph glyph-name="Omacron" unicode="&#x14c;" horiz-adv-x="1488" 
d="M1348 719c0 -224 -56.167 -403.333 -168.5 -538s-258.833 -202 -439.5 -202c-181.333 0 -328.333 67.5 -441 202.5s-169 314.167 -169 537.5v18c0 223.333 56 402.5 168 537.5s258.667 202.5 440 202.5c180.667 0 327.5 -67.5 440.5 -202.5s169.5 -314.167 169.5 -537.5
v-18zM1294 739c0 206 -50.501 371.5 -151.501 496.5s-235.833 187.5 -404.5 187.5c-168 0 -302.167 -62.5 -402.5 -187.5s-150.5 -290.5 -150.5 -496.5v-20c0 -207.333 50.333 -373.5 151 -498.5s235.334 -187.5 404.001 -187.5s303.167 62.5 403.5 187.5
s150.5 291.167 150.5 498.5v20zM1063 1754h-627v53h627v-53z" />
    <glyph glyph-name="omacron" unicode="&#x14d;" horiz-adv-x="1155" 
d="M104 562c0 158.667 43.832 288.334 131.499 389.001s201.5 151 341.5 151c140.667 0 254.834 -50.333 342.501 -151s131.5 -230.334 131.5 -389.001v-42c0 -159.333 -43.833 -289.333 -131.5 -390s-201.167 -151 -340.5 -151c-140.667 0 -255 50.333 -343 151
s-132 230.667 -132 390v42zM157.999 520c0 -136 38.001 -251.167 114.001 -345.5s178.333 -141.5 307 -141.5c126.667 0 228 47.333 304 142s114 209.667 114 345v42c0 132.667 -38.333 246.834 -115 342.501s-178.334 143.5 -305.001 143.5
c-127.333 0 -229 -47.833 -305 -143.5s-114 -209.834 -114 -342.501v-42zM908 1411h-627v53h627v-53z" />
    <glyph glyph-name="Obreve" unicode="&#x14e;" horiz-adv-x="1488" 
d="M1348 719c0 -224 -56.167 -403.333 -168.5 -538s-258.833 -202 -439.5 -202c-181.333 0 -328.333 67.5 -441 202.5s-169 314.167 -169 537.5v18c0 223.333 56 402.5 168 537.5s258.667 202.5 440 202.5c180.667 0 327.5 -67.5 440.5 -202.5s169.5 -314.167 169.5 -537.5
v-18zM1294 739c0 206 -50.501 371.5 -151.501 496.5s-235.833 187.5 -404.5 187.5c-168 0 -302.167 -62.5 -402.5 -187.5s-150.5 -290.5 -150.5 -496.5v-20c0 -207.333 50.333 -373.5 151 -498.5s235.334 -187.5 404.001 -187.5s303.167 62.5 403.5 187.5
s150.5 291.167 150.5 498.5v20zM1007 1825l1.99902 -6.00098c2.66699 -71.333 -20.666 -129.5 -69.999 -174.5s-116.666 -67.5 -201.999 -67.5c-86 0 -153.833 22.5 -203.5 67.5s-72.834 103.167 -69.501 174.5l2 6h46c0 -57.333 18 -103.666 54 -138.999s93 -53 171 -53
c74.667 0 130.667 18 168 54s56 82 56 138h46z" />
    <glyph glyph-name="obreve" unicode="&#x14f;" horiz-adv-x="1155" 
d="M104 562c0 158.667 43.832 288.334 131.499 389.001s201.5 151 341.5 151c140.667 0 254.834 -50.333 342.501 -151s131.5 -230.334 131.5 -389.001v-42c0 -159.333 -43.833 -289.333 -131.5 -390s-201.167 -151 -340.5 -151c-140.667 0 -255 50.333 -343 151
s-132 230.667 -132 390v42zM157.999 520c0 -136 38.001 -251.167 114.001 -345.5s178.333 -141.5 307 -141.5c126.667 0 228 47.333 304 142s114 209.667 114 345v42c0 132.667 -38.333 246.834 -115 342.501s-178.334 143.5 -305.001 143.5
c-127.333 0 -229 -47.833 -305 -143.5s-114 -209.834 -114 -342.501v-42zM852 1482l1.99902 -6.00098c2.66699 -71.333 -20.666 -129.5 -69.999 -174.5s-116.666 -67.5 -201.999 -67.5c-86 0 -153.833 22.5 -203.5 67.5s-72.834 103.167 -69.501 174.5l2 6h46
c0 -57.333 18 -103.666 54 -138.999s93 -53 171 -53c74.667 0 130.667 18 168 54s56 82 56 138h46z" />
    <glyph glyph-name="Ohungarumlaut" unicode="&#x150;" horiz-adv-x="1488" 
d="M1348 719c0 -224 -56.167 -403.333 -168.5 -538s-258.833 -202 -439.5 -202c-181.333 0 -328.333 67.5 -441 202.5s-169 314.167 -169 537.5v18c0 223.333 56 402.5 168 537.5s258.667 202.5 440 202.5c180.667 0 327.5 -67.5 440.5 -202.5s169.5 -314.167 169.5 -537.5
v-18zM1294 739c0 206 -50.501 371.5 -151.501 496.5s-235.833 187.5 -404.5 187.5c-168 0 -302.167 -62.5 -402.5 -187.5s-150.5 -290.5 -150.5 -496.5v-20c0 -207.333 50.333 -373.5 151 -498.5s235.334 -187.5 404.001 -187.5s303.167 62.5 403.5 187.5
s150.5 291.167 150.5 498.5v20zM1021 1888h72l2 -6l-292 -260h-65l-2 6zM750.999 1888h68l3 -6l-248 -260h-62l-2 5z" />
    <glyph glyph-name="ohungarumlaut" unicode="&#x151;" horiz-adv-x="1155" 
d="M104 562c0 158.667 43.832 288.334 131.499 389.001s201.5 151 341.5 151c140.667 0 254.834 -50.333 342.501 -151s131.5 -230.334 131.5 -389.001v-42c0 -159.333 -43.833 -289.333 -131.5 -390s-201.167 -151 -340.5 -151c-140.667 0 -255 50.333 -343 151
s-132 230.667 -132 390v42zM157.999 520c0 -136 38.001 -251.167 114.001 -345.5s178.333 -141.5 307 -141.5c126.667 0 228 47.333 304 142s114 209.667 114 345v42c0 132.667 -38.333 246.834 -115 342.501s-178.334 143.5 -305.001 143.5
c-127.333 0 -229 -47.833 -305 -143.5s-114 -209.834 -114 -342.501v-42zM866 1545h72l2 -6l-292 -260h-65l-2 6zM596 1545h68l3 -6l-248 -260h-62l-2 5z" />
    <glyph glyph-name="OE" unicode="&#x152;" horiz-adv-x="1973" 
d="M963 0c-68.667 -6.66699 -127.998 -11.835 -177.998 -15.502s-100.667 -5.5 -152 -5.5c-154 0 -279 55.333 -375 166s-144 254.334 -144 431.001v304c0 176.667 47.667 320.334 143 431.001s220 166 374 166c53.333 0 107.166 -2 161.499 -6s111.166 -9 170.499 -15h872
v-293h-54v239h-778v-616h630v-54h-630v-678h778v239h54v-293h-872zM633.002 32.999c24.667 0 50 0.167969 76 0.500977s51.667 1.16602 77 2.49902v18h163v1348h-163v18l-77 2c-26 0.666992 -52 1 -78 1c-140.667 0 -253 -49.667 -337 -149s-126 -230 -126 -392v-306
c0 -160 42.5 -290.5 127.5 -391.5s197.5 -151.5 337.5 -151.5z" />
    <glyph glyph-name="oe" unicode="&#x153;" horiz-adv-x="1932" 
d="M104 562c0 158.667 43.832 288.332 131.499 388.999s201.5 151 341.5 151c110 0 204.833 -32 284.5 -96s134.834 -150.333 165.501 -259c30 107.333 83.667 193.333 161 258s165.666 97 264.999 97c122 0 221.5 -40 298.5 -120s115.5 -187.333 115.5 -322v-83h-811v-13
v-64c0 -130.667 38.333 -241.167 115 -331.5s171.667 -135.5 285 -135.5c80.667 0 148.167 11 202.5 33s100.833 55 139.5 99l29 -42c-42.667 -47.333 -94.5 -83.166 -155.5 -107.499s-132.833 -36.5 -215.5 -36.5c-97.333 0 -185.666 32.333 -264.999 97
s-134.333 149.667 -165 255c-31.333 -108.667 -86.5 -194.5 -165.5 -257.5s-172.833 -94.5 -281.5 -94.5c-140.667 0 -255 50.333 -343 151s-132 230.667 -132 390v42zM157.999 519.998c0 -136 38.001 -251.167 114.001 -345.5s178.333 -141.5 307 -141.5
c126.667 0 228 47.333 304 142s114 209.667 114 345v42c0 132.667 -38.333 246.834 -115 342.501s-178.334 143.5 -305.001 143.5c-127.333 0 -229 -47.833 -305 -143.5s-114 -209.834 -114 -342.501v-42zM1453 1048c-107.333 0 -196.667 -39.168 -268 -117.501
s-111.666 -176.166 -120.999 -293.499l3 -6h746v33c0 110 -33.333 201.5 -100 274.5s-153.334 109.5 -260.001 109.5z" />
    <glyph glyph-name="Racute" unicode="&#x154;" horiz-adv-x="1364" 
d="M648 1455c153.333 0 271.333 -33.168 354 -99.501s124 -163.166 124 -290.499c0 -82 -26.167 -156.5 -78.5 -223.5s-123.833 -110.5 -214.5 -130.5c104.667 -18 179.667 -56.333 225 -115s68 -133.667 68 -225v-147c0 -57.333 9.83301 -100 29.5 -128
s48.834 -42 87.501 -42h51v-54h-51c-64.667 -0 -109.334 21.833 -134.001 65.5s-37 97.167 -37 160.5v143c0 98.667 -33.833 175.667 -101.5 231s-164.167 83 -289.5 83h-393v-630h163v-54h-380v54h163v1348h-163v54h163h414zM288 736.999l350 -0.000976562
c148.667 0 258.167 31.333 328.5 94s105.5 140.667 105.5 234c0 108.667 -35.5 191.834 -106.5 249.501s-176.833 86.5 -317.5 86.5h-360v-664zM761 1813h78l2 -5l-231 -261h-67l-2 5z" />
    <glyph glyph-name="racute" unicode="&#x155;" horiz-adv-x="803" 
d="M296 1082l10 -188v-37c30 77.333 74.667 137.5 134 180.5s132.333 64.5 219 64.5c15.333 0 29.5 -1.16699 42.5 -3.5s24.167 -4.83301 33.5 -7.5l-6 -48l-70 6c-96.667 0 -175.167 -31.167 -235.5 -93.5s-99.5 -144.5 -117.5 -246.5v-655h163v-54h-380v54h163v974h-163
v54h163h44zM568 1491h78l2 -5l-231 -261h-67l-2 5z" />
    <glyph glyph-name="Rcommaaccent" unicode="&#x156;" horiz-adv-x="1364" 
d="M648 1455c153.333 0 271.333 -33.168 354 -99.501s124 -163.166 124 -290.499c0 -82 -26.167 -156.5 -78.5 -223.5s-123.833 -110.5 -214.5 -130.5c104.667 -18 179.667 -56.333 225 -115s68 -133.667 68 -225v-147c0 -57.333 9.83301 -100 29.5 -128
s48.834 -42 87.501 -42h51v-54h-51c-64.667 -0 -109.334 21.833 -134.001 65.5s-37 97.167 -37 160.5v143c0 98.667 -33.833 175.667 -101.5 231s-164.167 83 -289.5 83h-393v-630h163v-54h-380v54h163v1348h-163v54h163h414zM288 736.999l350 -0.000976562
c148.667 0 258.167 31.333 328.5 94s105.5 140.667 105.5 234c0 108.667 -35.5 191.834 -106.5 249.501s-176.833 86.5 -317.5 86.5h-360v-664zM628 -245.002c0 -50 -7.66699 -95.167 -23 -135.5s-36.333 -75.833 -63 -106.5l-37 32c24 34.667 41.5 67.5 52.5 98.5
s16.5 67.5 16.5 109.5v99h54v-97z" />
    <glyph glyph-name="rcommaaccent" unicode="&#x157;" horiz-adv-x="803" 
d="M296 1082l10 -188v-37c30 77.333 74.667 137.5 134 180.5s132.333 64.5 219 64.5c15.333 0 29.5 -1.16699 42.5 -3.5s24.167 -4.83301 33.5 -7.5l-6 -48l-70 6c-96.667 0 -175.167 -31.167 -235.5 -93.5s-99.5 -144.5 -117.5 -246.5v-655h163v-54h-380v54h163v974h-163
v54h163h44zM297 -236c0 -50 -7.66699 -95.167 -23 -135.5s-36.333 -75.833 -63 -106.5l-37 32c24 34.667 41.5 67.5 52.5 98.5s16.5 67.5 16.5 109.5v99h54v-97z" />
    <glyph glyph-name="Rcaron" unicode="&#x158;" horiz-adv-x="1364" 
d="M648 1455c153.333 0 271.333 -33.168 354 -99.501s124 -163.166 124 -290.499c0 -82 -26.167 -156.5 -78.5 -223.5s-123.833 -110.5 -214.5 -130.5c104.667 -18 179.667 -56.333 225 -115s68 -133.667 68 -225v-147c0 -57.333 9.83301 -100 29.5 -128
s48.834 -42 87.501 -42h51v-54h-51c-64.667 -0 -109.334 21.833 -134.001 65.5s-37 97.167 -37 160.5v143c0 98.667 -33.833 175.667 -101.5 231s-164.167 83 -289.5 83h-393v-630h163v-54h-380v54h163v1348h-163v54h163h414zM288 736.999l350 -0.000976562
c148.667 0 258.167 31.333 328.5 94s105.5 140.667 105.5 234c0 108.667 -35.5 191.834 -106.5 249.501s-176.833 86.5 -317.5 86.5h-360v-664zM606 1612l184 187h67v-16l-212 -207h-79l-214 209v14h71z" />
    <glyph glyph-name="rcaron" unicode="&#x159;" horiz-adv-x="803" 
d="M296 1082l10 -188v-37c30 77.333 74.667 137.5 134 180.5s132.333 64.5 219 64.5c15.333 0 29.5 -1.16699 42.5 -3.5s24.167 -4.83301 33.5 -7.5l-6 -48l-70 6c-96.667 0 -175.167 -31.167 -235.5 -93.5s-99.5 -144.5 -117.5 -246.5v-655h163v-54h-380v54h163v974h-163
v54h163h44zM413 1290l184 187h67v-16l-212 -207h-79l-214 209v14h71z" />
    <glyph glyph-name="Sacute" unicode="&#x15a;" horiz-adv-x="1198" 
d="M1077 1022l-54.001 0.00195312v204c-42.667 64.667 -99.834 113.667 -171.501 147s-156.5 50 -254.5 50c-132 0 -236.5 -29.5 -313.5 -88.5s-115.5 -129.833 -115.5 -212.5s31.833 -151.334 95.5 -206.001s178.834 -103.334 345.501 -146.001
c161.333 -42.667 283.166 -94.834 365.499 -156.501s123.5 -149.167 123.5 -262.5c0 -115.333 -47 -206.166 -141 -272.499s-211.667 -99.5 -353 -99.5c-97.333 0 -190.833 18.167 -280.5 54.5s-164.167 93.166 -223.5 170.499v240h54v-217
c52 -68 118.333 -117.333 199 -148s164.334 -46 251.001 -46c128 0 233.167 29.333 315.5 88s123.5 134.667 123.5 228c0 91.333 -33.5 164.333 -100.5 219s-183.167 104.667 -348.5 150c-166 44.667 -287.5 95.5 -364.5 152.5s-115.5 140.167 -115.5 249.5
c0 108.667 45.333 195.334 136 260.001s206.334 97 347.001 97c109.333 0 204.833 -18.833 286.5 -56.5s146.167 -94.167 193.5 -169.5v-229zM776.999 1834h78l2 -5l-231 -261h-67l-2 5z" />
    <glyph glyph-name="sacute" unicode="&#x15b;" horiz-adv-x="1009" 
d="M852 753l-53.999 0.00195312v175c-34.667 38.667 -78.834 68.334 -132.501 89.001s-115.834 31 -186.501 31c-101.333 0 -178 -21.833 -230 -65.5s-78 -94.167 -78 -151.5c0 -56.667 22 -105 66 -145s131.333 -75 262 -105c120.667 -28 212.167 -66.167 274.5 -114.5
s93.5 -115.833 93.5 -202.5c0 -84.667 -34.667 -153.334 -104 -206.001s-161.333 -79 -276 -79c-78.667 0 -151.167 12.667 -217.5 38s-121.833 60.333 -166.5 105v193h54v-163c39.333 -42 88 -72.333 146 -91s119.333 -28 184 -28c100 0 179.333 23.333 238 70
s88 100.667 88 162c0 57.333 -24.5 109.5 -73.5 156.5s-134.5 83.833 -256.5 110.5c-127.333 26.667 -220.166 62.167 -278.499 106.5s-87.5 107.833 -87.5 190.5c0 77.333 32.667 142.166 98 194.499s153.333 78.5 264 78.5c77.333 0 148.833 -13.333 214.5 -40
s118.5 -62.334 158.5 -107.001v-202zM663.001 1491h78l2 -5l-231 -261h-67l-2 5z" />
    <glyph glyph-name="Scircumflex" unicode="&#x15c;" horiz-adv-x="1198" 
d="M1077 1022l-54.001 0.00195312v204c-42.667 64.667 -99.834 113.667 -171.501 147s-156.5 50 -254.5 50c-132 0 -236.5 -29.5 -313.5 -88.5s-115.5 -129.833 -115.5 -212.5s31.833 -151.334 95.5 -206.001s178.834 -103.334 345.501 -146.001
c161.333 -42.667 283.166 -94.834 365.499 -156.501s123.5 -149.167 123.5 -262.5c0 -115.333 -47 -206.166 -141 -272.499s-211.667 -99.5 -353 -99.5c-97.333 0 -190.833 18.167 -280.5 54.5s-164.167 93.166 -223.5 170.499v240h54v-217
c52 -68 118.333 -117.333 199 -148s164.334 -46 251.001 -46c128 0 233.167 29.333 315.5 88s123.5 134.667 123.5 228c0 91.333 -33.5 164.333 -100.5 219s-183.167 104.667 -348.5 150c-166 44.667 -287.5 95.5 -364.5 152.5s-115.5 140.167 -115.5 249.5
c0 108.667 45.333 195.334 136 260.001s206.334 97 347.001 97c109.333 0 204.833 -18.833 286.5 -56.5s146.167 -94.167 193.5 -169.5v-229zM877.999 1635v-13h-70l-185 186l-183 -186h-66v17l210 206h80z" />
    <glyph glyph-name="scircumflex" unicode="&#x15d;" horiz-adv-x="1009" 
d="M852 753l-53.999 0.00195312v175c-34.667 38.667 -78.834 68.334 -132.501 89.001s-115.834 31 -186.501 31c-101.333 0 -178 -21.833 -230 -65.5s-78 -94.167 -78 -151.5c0 -56.667 22 -105 66 -145s131.333 -75 262 -105c120.667 -28 212.167 -66.167 274.5 -114.5
s93.5 -115.833 93.5 -202.5c0 -84.667 -34.667 -153.334 -104 -206.001s-161.333 -79 -276 -79c-78.667 0 -151.167 12.667 -217.5 38s-121.833 60.333 -166.5 105v193h54v-163c39.333 -42 88 -72.333 146 -91s119.333 -28 184 -28c100 0 179.333 23.333 238 70
s88 100.667 88 162c0 57.333 -24.5 109.5 -73.5 156.5s-134.5 83.833 -256.5 110.5c-127.333 26.667 -220.166 62.167 -278.499 106.5s-87.5 107.833 -87.5 190.5c0 77.333 32.667 142.166 98 194.499s153.333 78.5 264 78.5c77.333 0 148.833 -13.333 214.5 -40
s118.5 -62.334 158.5 -107.001v-202zM764.001 1292v-13h-70l-185 186l-183 -186h-66v17l210 206h80z" />
    <glyph glyph-name="Scedilla" unicode="&#x15e;" horiz-adv-x="1198" 
d="M1077 1022l-54.001 0.00195312v204c-42.667 64.667 -99.834 113.667 -171.501 147s-156.5 50 -254.5 50c-132 0 -236.5 -29.5 -313.5 -88.5s-115.5 -129.833 -115.5 -212.5s31.833 -151.334 95.5 -206.001s178.834 -103.334 345.501 -146.001
c161.333 -42.667 283.166 -94.834 365.499 -156.501s123.5 -149.167 123.5 -262.5c0 -115.333 -47 -206.166 -141 -272.499s-211.667 -99.5 -353 -99.5c-97.333 0 -190.833 18.167 -280.5 54.5s-164.167 93.166 -223.5 170.499v240h54v-217
c52 -68 118.333 -117.333 199 -148s164.334 -46 251.001 -46c128 0 233.167 29.333 315.5 88s123.5 134.667 123.5 228c0 91.333 -33.5 164.333 -100.5 219s-183.167 104.667 -348.5 150c-166 44.667 -287.5 95.5 -364.5 152.5s-115.5 140.167 -115.5 249.5
c0 108.667 45.333 195.334 136 260.001s206.334 97 347.001 97c109.333 0 204.833 -18.833 286.5 -56.5s146.167 -94.167 193.5 -169.5v-229zM671.999 -8.99805l-11 -76c60.667 -4.66699 108.667 -19.834 144 -45.501s53 -66.834 53 -123.501
c0 -58 -26.333 -104.167 -79 -138.5s-128 -51.5 -226 -51.5l-7 49c69.333 0 129.5 12 180.5 36s76.5 59 76.5 105c0 42.667 -15.167 72.334 -45.5 89.001s-84.833 28.334 -163.5 35.001l25 121h53z" />
    <glyph glyph-name="scedilla" unicode="&#x15f;" horiz-adv-x="1009" 
d="M852 753l-53.999 0.00195312v175c-34.667 38.667 -78.834 68.334 -132.501 89.001s-115.834 31 -186.501 31c-101.333 0 -178 -21.833 -230 -65.5s-78 -94.167 -78 -151.5c0 -56.667 22 -105 66 -145s131.333 -75 262 -105c120.667 -28 212.167 -66.167 274.5 -114.5
s93.5 -115.833 93.5 -202.5c0 -84.667 -34.667 -153.334 -104 -206.001s-161.333 -79 -276 -79c-78.667 0 -151.167 12.667 -217.5 38s-121.833 60.333 -166.5 105v193h54v-163c39.333 -42 88 -72.333 146 -91s119.333 -28 184 -28c100 0 179.333 23.333 238 70
s88 100.667 88 162c0 57.333 -24.5 109.5 -73.5 156.5s-134.5 83.833 -256.5 110.5c-127.333 26.667 -220.166 62.167 -278.499 106.5s-87.5 107.833 -87.5 190.5c0 77.333 32.667 142.166 98 194.499s153.333 78.5 264 78.5c77.333 0 148.833 -13.333 214.5 -40
s118.5 -62.334 158.5 -107.001v-202zM538.001 -3.99805l-11 -76c60.667 -4.66699 108.667 -19.834 144 -45.501s53 -66.834 53 -123.501c0 -58 -26.333 -104.167 -79 -138.5s-128 -51.5 -226 -51.5l-7 49c69.333 0 129.5 12 180.5 36s76.5 59 76.5 105
c0 42.667 -15.167 72.334 -45.5 89.001s-84.833 28.334 -163.5 35.001l25 121h53z" />
    <glyph glyph-name="Scaron" unicode="&#x160;" horiz-adv-x="1198" 
d="M1077 1022l-54.001 0.00195312v204c-42.667 64.667 -99.834 113.667 -171.501 147s-156.5 50 -254.5 50c-132 0 -236.5 -29.5 -313.5 -88.5s-115.5 -129.833 -115.5 -212.5s31.833 -151.334 95.5 -206.001s178.834 -103.334 345.501 -146.001
c161.333 -42.667 283.166 -94.834 365.499 -156.501s123.5 -149.167 123.5 -262.5c0 -115.333 -47 -206.166 -141 -272.499s-211.667 -99.5 -353 -99.5c-97.333 0 -190.833 18.167 -280.5 54.5s-164.167 93.166 -223.5 170.499v240h54v-217
c52 -68 118.333 -117.333 199 -148s164.334 -46 251.001 -46c128 0 233.167 29.333 315.5 88s123.5 134.667 123.5 228c0 91.333 -33.5 164.333 -100.5 219s-183.167 104.667 -348.5 150c-166 44.667 -287.5 95.5 -364.5 152.5s-115.5 140.167 -115.5 249.5
c0 108.667 45.333 195.334 136 260.001s206.334 97 347.001 97c109.333 0 204.833 -18.833 286.5 -56.5s146.167 -94.167 193.5 -169.5v-229zM621.999 1633l184 187h67v-16l-212 -207h-79l-214 209v14h71z" />
    <glyph glyph-name="scaron" unicode="&#x161;" horiz-adv-x="1009" 
d="M852 753l-53.999 0.00195312v175c-34.667 38.667 -78.834 68.334 -132.501 89.001s-115.834 31 -186.501 31c-101.333 0 -178 -21.833 -230 -65.5s-78 -94.167 -78 -151.5c0 -56.667 22 -105 66 -145s131.333 -75 262 -105c120.667 -28 212.167 -66.167 274.5 -114.5
s93.5 -115.833 93.5 -202.5c0 -84.667 -34.667 -153.334 -104 -206.001s-161.333 -79 -276 -79c-78.667 0 -151.167 12.667 -217.5 38s-121.833 60.333 -166.5 105v193h54v-163c39.333 -42 88 -72.333 146 -91s119.333 -28 184 -28c100 0 179.333 23.333 238 70
s88 100.667 88 162c0 57.333 -24.5 109.5 -73.5 156.5s-134.5 83.833 -256.5 110.5c-127.333 26.667 -220.166 62.167 -278.499 106.5s-87.5 107.833 -87.5 190.5c0 77.333 32.667 142.166 98 194.499s153.333 78.5 264 78.5c77.333 0 148.833 -13.333 214.5 -40
s118.5 -62.334 158.5 -107.001v-202zM508.001 1290l184 187h67v-16l-212 -207h-79l-214 209v14h71z" />
    <glyph glyph-name="uni0162" unicode="&#x162;" horiz-adv-x="1277" 
d="M1194 1456v-293h-54v239h-476v-1348h163v-54h-380v54h163v1348h-476v-239h-54v293h1114zM680 0l-11 -76c60.667 -4.66699 108.667 -19.834 144 -45.501s53 -66.834 53 -123.501c0 -58 -26.333 -104.167 -79 -138.5s-128 -51.5 -226 -51.5l-7 49
c69.333 0 129.5 12 180.5 36s76.5 59 76.5 105c0 42.667 -15.167 72.334 -45.5 89.001s-84.833 28.334 -163.5 35.001l25 121h53z" />
    <glyph glyph-name="uni0163" unicode="&#x163;" horiz-adv-x="719" 
d="M320 1374l0.000976562 -291.997h266v-55h-266v-748c0 -88.667 15 -151.834 45 -189.501s69.667 -56.5 119 -56.5c21.333 0 40.333 0.666992 57 2s39.667 3.66602 69 6.99902l10 -49c-20 -5.33301 -40.5 -9 -61.5 -11s-44.833 -3 -71.5 -3
c-72.667 0 -127.834 23.667 -165.501 71s-56.5 123.666 -56.5 228.999v748h-200v55h200v292h55zM507.001 0.00292969l-11 -76c60.667 -4.66699 108.667 -19.834 144 -45.501s53 -66.834 53 -123.501c0 -58 -26.333 -104.167 -79 -138.5s-128 -51.5 -226 -51.5l-7 49
c69.333 0 129.5 12 180.5 36s76.5 59 76.5 105c0 42.667 -15.167 72.334 -45.5 89.001s-84.833 28.334 -163.5 35.001l25 121h53z" />
    <glyph glyph-name="Tcaron" unicode="&#x164;" horiz-adv-x="1277" 
d="M1194 1456v-293h-54v239h-476v-1348h163v-54h-380v54h163v1348h-476v-239h-54v293h1114zM649 1604l184 187h67v-16l-212 -207h-79l-214 209v14h71z" />
    <glyph glyph-name="tcaron" unicode="&#x165;" horiz-adv-x="759" 
d="M320 1374l0.000976562 -291.997h266v-55h-266v-748c0 -88.667 15 -151.834 45 -189.501s69.667 -56.5 119 -56.5c21.333 0 40.333 0.666992 57 2s39.667 3.66602 69 6.99902l10 -49c-20 -5.33301 -40.5 -9 -61.5 -11s-44.833 -3 -71.5 -3
c-72.667 0 -127.834 23.667 -165.501 71s-56.5 123.666 -56.5 228.999v748h-200v55h200v292h55zM532.001 1442c0 -50 -7.66699 -95.167 -23 -135.5s-36.333 -75.833 -63 -106.5l-37 32c24 34.667 41.5 67.5 52.5 98.5s16.5 67.5 16.5 109.5v99h54v-97z" />
    <glyph glyph-name="Tbar" unicode="&#x166;" horiz-adv-x="1277" 
d="M1194 1456v-293h-54v239h-476v-501h304v-54h-304v-793h163v-54h-380v54h163v793h-229v54h229v501h-476v-239h-54v293h1114z" />
    <glyph glyph-name="tbar" unicode="&#x167;" horiz-adv-x="719" 
d="M320 1374l0.000976562 -291.997h266v-55h-266v-339h354v-54h-354v-355c0 -88.667 15 -151.834 45 -189.501s69.667 -56.5 119 -56.5c21.333 0 40.333 0.666992 57 2s39.667 3.66602 69 6.99902l10 -49c-20 -5.33301 -40.5 -9 -61.5 -11s-44.833 -3 -71.5 -3
c-72.667 0 -127.834 23.667 -165.501 71s-56.5 123.666 -56.5 228.999v355h-178v54h178v339h-200v55h200v292h55z" />
    <glyph glyph-name="Utilde" unicode="&#x168;" horiz-adv-x="1441" 
d="M440 1456v-54h-163v-933c0 -136.667 41.333 -243.5 124 -320.5s189.334 -115.5 320.001 -115.5c130 0 236.333 38.5 319 115.5s124 183.833 124 320.5v933h-163v54h217h163v-54h-163v-933c0 -158.667 -46 -280 -138 -364s-211.667 -126 -359 -126
c-148.667 0 -268.834 42.167 -360.501 126.5s-137.5 205.5 -137.5 363.5v933h-163v54h163h54h163zM1076 1789c0 -54.667 -17 -99.3311 -51 -133.998s-75.667 -52 -125 -52c-50.667 0 -102 20.833 -154 62.5s-96.333 62.5 -133 62.5c-34.667 0 -63.5 -12.333 -86.5 -37
s-34.5 -57.334 -34.5 -98.001l-55 10c0 53.333 16.667 96.5 50 129.5s75.333 49.5 126 49.5c48 0 99 -20.667 153 -62s98.667 -62 134 -62c33.333 0 61.833 13.167 85.5 39.5s35.5 60.166 35.5 101.499z" />
    <glyph glyph-name="utilde" unicode="&#x169;" horiz-adv-x="1222" 
d="M918 194c-34 -68.667 -82.5 -121.666 -145.5 -158.999s-139.5 -56 -229.5 -56c-111.333 0 -198.5 39.5 -261.5 118.5s-94.5 201.5 -94.5 367.5v563h-143v54h143h54v-619c0 -146.667 27 -255 81 -325s127 -105 219 -105c112.667 0 199.167 27.667 259.5 83
s98.833 128.666 115.5 219.999v692h-163v54h163h55v-1028h163v-54h-208zM885 1459c0 -54.667 -17 -99.3311 -51 -133.998s-75.667 -52 -125 -52c-50.667 0 -102 20.833 -154 62.5s-96.333 62.5 -133 62.5c-34.667 0 -63.5 -12.333 -86.5 -37s-34.5 -57.334 -34.5 -98.001
l-55 10c0 53.333 16.667 96.5 50 129.5s75.333 49.5 126 49.5c48 0 99 -20.667 153 -62s98.667 -62 134 -62c33.333 0 61.833 13.167 85.5 39.5s35.5 60.166 35.5 101.499z" />
    <glyph glyph-name="Umacron" unicode="&#x16a;" horiz-adv-x="1441" 
d="M440 1456v-54h-163v-933c0 -136.667 41.333 -243.5 124 -320.5s189.334 -115.5 320.001 -115.5c130 0 236.333 38.5 319 115.5s124 183.833 124 320.5v933h-163v54h217h163v-54h-163v-933c0 -158.667 -46 -280 -138 -364s-211.667 -126 -359 -126
c-148.667 0 -268.834 42.167 -360.501 126.5s-137.5 205.5 -137.5 363.5v933h-163v54h163h54h163zM1053 1721h-627v53h627v-53z" />
    <glyph glyph-name="umacron" unicode="&#x16b;" horiz-adv-x="1222" 
d="M918 194c-34 -68.667 -82.5 -121.666 -145.5 -158.999s-139.5 -56 -229.5 -56c-111.333 0 -198.5 39.5 -261.5 118.5s-94.5 201.5 -94.5 367.5v563h-143v54h143h54v-619c0 -146.667 27 -255 81 -325s127 -105 219 -105c112.667 0 199.167 27.667 259.5 83
s98.833 128.666 115.5 219.999v692h-163v54h163h55v-1028h163v-54h-208zM862 1391h-627v53h627v-53z" />
    <glyph glyph-name="Ubreve" unicode="&#x16c;" horiz-adv-x="1441" 
d="M440 1456v-54h-163v-933c0 -136.667 41.333 -243.5 124 -320.5s189.334 -115.5 320.001 -115.5c130 0 236.333 38.5 319 115.5s124 183.833 124 320.5v933h-163v54h217h163v-54h-163v-933c0 -158.667 -46 -280 -138 -364s-211.667 -126 -359 -126
c-148.667 0 -268.834 42.167 -360.501 126.5s-137.5 205.5 -137.5 363.5v933h-163v54h163h54h163zM997 1792l1.99902 -6.00098c2.66699 -71.333 -20.666 -129.5 -69.999 -174.5s-116.666 -67.5 -201.999 -67.5c-86 0 -153.833 22.5 -203.5 67.5
s-72.834 103.167 -69.501 174.5l2 6h46c0 -57.333 18 -103.666 54 -138.999s93 -53 171 -53c74.667 0 130.667 18 168 54s56 82 56 138h46z" />
    <glyph glyph-name="ubreve" unicode="&#x16d;" horiz-adv-x="1222" 
d="M918 194c-34 -68.667 -82.5 -121.666 -145.5 -158.999s-139.5 -56 -229.5 -56c-111.333 0 -198.5 39.5 -261.5 118.5s-94.5 201.5 -94.5 367.5v563h-143v54h143h54v-619c0 -146.667 27 -255 81 -325s127 -105 219 -105c112.667 0 199.167 27.667 259.5 83
s98.833 128.666 115.5 219.999v692h-163v54h163h55v-1028h163v-54h-208zM806 1461l1.99902 -6.00098c2.66699 -71.333 -20.666 -129.5 -69.999 -174.5s-116.666 -67.5 -201.999 -67.5c-86 0 -153.833 22.5 -203.5 67.5s-72.834 103.167 -69.501 174.5l2 6h46
c0 -57.333 18 -103.666 54 -138.999s93 -53 171 -53c74.667 0 130.667 18 168 54s56 82 56 138h46z" />
    <glyph glyph-name="Uring" unicode="&#x16e;" horiz-adv-x="1441" 
d="M440 1456v-54h-163v-933c0 -136.667 41.333 -243.5 124 -320.5s189.334 -115.5 320.001 -115.5c130 0 236.333 38.5 319 115.5s124 183.833 124 320.5v933h-163v54h217h163v-54h-163v-933c0 -158.667 -46 -280 -138 -364s-211.667 -126 -359 -126
c-148.667 0 -268.834 42.167 -360.501 126.5s-137.5 205.5 -137.5 363.5v933h-163v54h163h54h163zM591 1735c0 37.333 13.333 69.833 40 97.5s58.667 41.5 96 41.5c36 0 67.167 -13.667 93.5 -41s39.5 -60 39.5 -98s-13 -70 -39 -96s-57.333 -39 -94 -39
c-37.333 0 -69.333 13 -96 39s-40 58 -40 96zM648 1735c0 -22.667 7.66699 -41.5 23 -56.5s34 -22.5 56 -22.5c21.333 0 39.333 7.33301 54 22s22 33.667 22 57s-7.33301 42.833 -22 58.5s-32.667 23.5 -54 23.5c-22 0 -40.667 -7.83301 -56 -23.5s-23 -35.167 -23 -58.5z
" />
    <glyph glyph-name="uring" unicode="&#x16f;" horiz-adv-x="1222" 
d="M918 194c-34 -68.667 -82.5 -121.666 -145.5 -158.999s-139.5 -56 -229.5 -56c-111.333 0 -198.5 39.5 -261.5 118.5s-94.5 201.5 -94.5 367.5v563h-143v54h143h54v-619c0 -146.667 27 -255 81 -325s127 -105 219 -105c112.667 0 199.167 27.667 259.5 83
s98.833 128.666 115.5 219.999v692h-163v54h163h55v-1028h163v-54h-208zM400 1404c0 37.333 13.333 69.833 40 97.5s58.667 41.5 96 41.5c36 0 67.167 -13.667 93.5 -41s39.5 -60 39.5 -98s-13 -70 -39 -96s-57.333 -39 -94 -39c-37.333 0 -69.333 13 -96 39s-40 58 -40 96z
M457 1404c0 -22.667 7.66699 -41.5 23 -56.5s34 -22.5 56 -22.5c21.333 0 39.333 7.33301 54 22s22 33.667 22 57s-7.33301 42.833 -22 58.5s-32.667 23.5 -54 23.5c-22 0 -40.667 -7.83301 -56 -23.5s-23 -35.167 -23 -58.5z" />
    <glyph glyph-name="Uhungarumlaut" unicode="&#x170;" horiz-adv-x="1441" 
d="M440 1456v-54h-163v-933c0 -136.667 41.333 -243.5 124 -320.5s189.334 -115.5 320.001 -115.5c130 0 236.333 38.5 319 115.5s124 183.833 124 320.5v933h-163v54h217h163v-54h-163v-933c0 -158.667 -46 -280 -138 -364s-211.667 -126 -359 -126
c-148.667 0 -268.834 42.167 -360.501 126.5s-137.5 205.5 -137.5 363.5v933h-163v54h163h54h163zM1011 1855h72l2 -6l-292 -260h-65l-2 6zM741 1855h68l3 -6l-248 -260h-62l-2 5z" />
    <glyph glyph-name="uhungarumlaut" unicode="&#x171;" horiz-adv-x="1222" 
d="M918 194c-34 -68.667 -82.5 -121.666 -145.5 -158.999s-139.5 -56 -229.5 -56c-111.333 0 -198.5 39.5 -261.5 118.5s-94.5 201.5 -94.5 367.5v563h-143v54h143h54v-619c0 -146.667 27 -255 81 -325s127 -105 219 -105c112.667 0 199.167 27.667 259.5 83
s98.833 128.666 115.5 219.999v692h-163v54h163h55v-1028h163v-54h-208zM820 1524h72l2 -6l-292 -260h-65l-2 6zM550 1524h68l3 -6l-248 -260h-62l-2 5z" />
    <glyph glyph-name="Uogonek" unicode="&#x172;" horiz-adv-x="1441" 
d="M440 1456v-54h-163v-933c0 -136.667 41.333 -243.5 124 -320.5s189.334 -115.5 320.001 -115.5c130 0 236.333 38.5 319 115.5s124 183.833 124 320.5v933h-163v54h217h163v-54h-163v-933c0 -158.667 -46 -280 -138 -364s-211.667 -126 -359 -126
c-148.667 0 -268.834 42.167 -360.501 126.5s-137.5 205.5 -137.5 363.5v933h-163v54h163h54h163zM762 0c-50.667 -46 -88.002 -84.834 -112.002 -116.501s-36 -67.167 -36 -106.5c0 -15.333 5.33301 -32.5 16 -51.5s33.334 -28.5 68.001 -28.5c23.333 0 43.333 3.5 60 10.5
s33.334 16.167 50.001 27.5l16 -48c-16 -12 -34.167 -22.333 -54.5 -31s-44.166 -13 -71.499 -13c-40.667 0 -73.834 11.833 -99.501 35.5s-38.5 56.5 -38.5 98.5c0 40.667 14 81.834 42 123.501s64 81.5 108 119.5z" />
    <glyph glyph-name="uogonek" unicode="&#x173;" horiz-adv-x="1222" 
d="M918 194c-34 -68.667 -82.5 -121.666 -145.5 -158.999s-139.5 -56 -229.5 -56c-111.333 0 -198.5 39.5 -261.5 118.5s-94.5 201.5 -94.5 367.5v563h-143v54h143h54v-619c0 -146.667 27 -255 81 -325s127 -105 219 -105c112.667 0 199.167 27.667 259.5 83
s98.833 128.666 115.5 219.999v692h-163v54h163h55v-1028h163v-54h-208zM1134 0.000976562c-50.667 -46 -88.002 -84.834 -112.002 -116.501s-36 -67.167 -36 -106.5c0 -15.333 5.33301 -32.5 16 -51.5s33.334 -28.5 68.001 -28.5c23.333 0 43.333 3.5 60 10.5
s33.334 16.167 50.001 27.5l16 -48c-16 -12 -34.167 -22.333 -54.5 -31s-44.166 -13 -71.499 -13c-40.667 0 -73.834 11.833 -99.501 35.5s-38.5 56.5 -38.5 98.5c0 40.667 14 81.834 42 123.501s64 81.5 108 119.5z" />
    <glyph glyph-name="Wcircumflex" unicode="&#x174;" horiz-adv-x="1960" 
d="M367 1402h-150l269 -1072l63 -229h6l63 229l364 1126h60l362 -1126l62 -229h6l65 229l266 1072h-149v54h309v-54h-101l-358 -1402h-61l-381 1214l-48 145h-6l-46 -145l-384 -1214h-61l-359 1402h-101v54h310v-54zM1273 1614v-13h-70l-185 186l-183 -186h-66v17l210 206
h80z" />
    <glyph glyph-name="wcircumflex" unicode="&#x175;" horiz-adv-x="1687" 
d="M374 1028h-148l206 -715l56 -222l6 -1l71 223l243 769h55l242 -769l70 -223l6 1l58 222l204 715h-147v54h323v-54h-113l-299 -1028h-54l-267 813l-48 183h-6l-52 -183l-263 -813h-54l-299 1028h-112v54h322v-54zM1085 1271v-13h-70l-185 186l-183 -186h-66v17l210 206h80
z" />
    <glyph glyph-name="Ycircumflex" unicode="&#x176;" horiz-adv-x="1429" 
d="M371 1402h-131l449 -755l26 -50l27 50l451 755h-131v54h316v-54h-120l-514 -849v-499h163v-54h-381v54h163v499l-515 849h-119v54h316v-54zM979 1603v-13h-70l-185 186l-183 -186h-66v17l210 206h80z" />
    <glyph glyph-name="ycircumflex" unicode="&#x177;" horiz-adv-x="1185" 
d="M374 1028h-142l335 -832l40 -108h6l6 16l353 924h-142v54h320v-54h-118l-460 -1208c-29.333 -76 -63.5 -137.833 -102.5 -185.5s-101.167 -71.5 -186.5 -71.5c-12.667 0 -26.667 1.16699 -42 3.5s-26.666 4.83301 -33.999 7.5l9 51c7.33301 -2 18.333 -4 33 -6
s26 -3 34 -3c61.333 0 109.166 18 143.499 54s64.833 89.333 91.5 160l65 176l-410 1022h-118v54h319v-54zM865 1271v-13h-70l-185 186l-183 -186h-66v17l210 206h80z" />
    <glyph glyph-name="Ydieresis" unicode="&#x178;" horiz-adv-x="1429" 
d="M371 1402h-131l449 -755l26 -50l27 50l451 755h-131v54h316v-54h-120l-514 -849v-499h163v-54h-381v54h163v499l-515 849h-119v54h316v-54zM1031 1662h-136v118h136v-118zM562 1662h-137v118h137v-118z" />
    <glyph glyph-name="Zacute" unicode="&#x179;" horiz-adv-x="1220" 
d="M166 54h908v239h54v-293h-1036v44l929 1359h-835v-240h-54v293h964v-38zM764 1813h78l2 -5l-231 -261h-67l-2 5z" />
    <glyph glyph-name="zacute" unicode="&#x17a;" horiz-adv-x="1077" 
d="M120 0v44l711 983h-656v-238h-54v293h783v-48l-711 -980h716v239h54v-293h-843zM679 1471h78l2 -5l-231 -261h-67l-2 5z" />
    <glyph glyph-name="Zdotaccent" unicode="&#x17b;" horiz-adv-x="1220" 
d="M166 54h908v239h54v-293h-1036v44l929 1359h-835v-240h-54v293h964v-38zM658 1638h-95v138h95v-138z" />
    <glyph glyph-name="zdotaccent" unicode="&#x17c;" horiz-adv-x="1077" 
d="M120 0v44l711 983h-656v-238h-54v293h783v-48l-711 -980h716v239h54v-293h-843zM573 1296h-95v138h95v-138z" />
    <glyph glyph-name="Zcaron" unicode="&#x17d;" horiz-adv-x="1220" 
d="M166 54h908v239h54v-293h-1036v44l929 1359h-835v-240h-54v293h964v-38zM609 1612l184 187h67v-16l-212 -207h-79l-214 209v14h71z" />
    <glyph glyph-name="zcaron" unicode="&#x17e;" horiz-adv-x="1077" 
d="M120 0v44l711 983h-656v-238h-54v293h783v-48l-711 -980h716v239h54v-293h-843zM524 1270l184 187h67v-16l-212 -207h-79l-214 209v14h71z" />
    <glyph glyph-name="longs" unicode="&#x17f;" horiz-adv-x="699" 
d="M220 1260c0 102.667 24.667 181.834 74 237.501s118.666 83.5 207.999 83.5c22.667 0 44.834 -1.33301 66.501 -4s42.167 -7 61.5 -13l-8 -52c-20 5.33301 -38.5 9.16602 -55.5 11.499s-38.167 3.5 -63.5 3.5c-72 0 -128.167 -23.5 -168.5 -70.5
s-60.5 -112.5 -60.5 -196.5v-1206h163v-54h-380v54h163v1206v0z" />
    <glyph glyph-name="florin" unicode="&#x192;" horiz-adv-x="780" 
d="M680 1027l-286 -0.000976562v-1116c0 -111.333 -25 -197.166 -75 -257.499s-120 -90.5 -210 -90.5c-20 0 -38.667 1.66699 -56 5s-36 8.33301 -56 15l13 52c12 -4 27.167 -8 45.5 -12s36.166 -6 53.499 -6c73.333 0 130.166 25.5 170.499 76.5s60.5 123.5 60.5 217.5
v1116h-188v55h188v178c0 102 24.833 181 74.5 237s119.167 84 208.5 84c22 0 43.833 -1.33301 65.5 -4s42.5 -7 62.5 -13l-8 -52c-21.333 5.33301 -40.166 9.16602 -56.499 11.499s-37.166 3.5 -62.499 3.5c-72 0 -128.333 -23.667 -169 -71s-61 -112.666 -61 -195.999v-178
h286v-55z" />
    <glyph glyph-name="Ohorn" unicode="&#x1a0;" horiz-adv-x="1453" 
d="M1338 719c0 -224 -56.167 -403.33 -168.5 -537.997s-258.833 -202 -439.5 -202c-181.333 0 -328.333 67.5 -441 202.5s-169 314.167 -169 537.5v18c0 223.333 56 402.5 168 537.5s258.667 202.5 440 202.5c97.333 0 186.166 -20.667 266.499 -62
s147.833 -100.333 202.5 -177c94.667 1.33301 159.667 26.333 195 75s53 124.667 53 228h54c0 -112.667 -20.833 -198.334 -62.5 -257.001s-110.5 -91.667 -206.5 -99c34.667 -60.667 61.334 -128.834 80.001 -204.501s28 -156.834 28 -243.501v-18zM1284 739.003
c0 206 -50.501 371.5 -151.501 496.5s-235.833 187.5 -404.5 187.5c-168 0 -302.167 -62.5 -402.5 -187.5s-150.5 -290.5 -150.5 -496.5v-20c0 -207.333 50.333 -373.5 151 -498.5s235.334 -187.5 404.001 -187.5s303.167 62.5 403.5 187.5s150.5 291.167 150.5 498.5v20z
" />
    <glyph glyph-name="ohorn" unicode="&#x1a1;" horiz-adv-x="1241" 
d="M104 562c0 158.667 43.834 288.333 131.501 389s201.5 151 341.5 151c68.667 0 132 -13 190 -39s108.333 -62.667 151 -110c77.333 2.66699 129.5 23.5 156.5 62.5s40.5 99.167 40.5 180.5h55c0 -90.667 -16.333 -160.167 -49 -208.5s-87.334 -76.833 -164.001 -85.5
c30 -46 53.167 -97.833 69.5 -155.5s24.5 -119.167 24.5 -184.5v-42c0 -159.333 -43.833 -289.333 -131.5 -390s-201.167 -151 -340.5 -151c-140.667 0 -255 50.333 -343 151s-132 230.667 -132 390v42zM158.001 519.999c0 -136 38.001 -251.167 114.001 -345.5
s178.333 -141.5 307 -141.5c126.667 0 228 47.333 304 142s114 209.667 114 345v42c0 132.667 -38.333 246.834 -115 342.501s-178.334 143.5 -305.001 143.5c-127.333 0 -229 -47.833 -305 -143.5s-114 -209.834 -114 -342.501v-42z" />
    <glyph glyph-name="Uhorn" unicode="&#x1af;" horiz-adv-x="1509" 
d="M1218 1456v-198.001l6 -2c85.333 0.666992 144.333 25 177 73s49 122 49 222h47l3 -5c2 -113.333 -19 -199.166 -63 -257.499s-117 -89.833 -219 -94.5v-725c0 -158.667 -46 -280 -138 -364s-211.667 -126 -359 -126c-148.667 0 -268.834 42.167 -360.501 126.5
s-137.5 205.5 -137.5 363.5v933h-163v54h163h54h163v-54h-163v-933c0 -136.667 41.333 -243.5 124 -320.5s189.334 -115.5 320.001 -115.5c130 0 236.333 38.5 319 115.5s124 183.833 124 320.5v933h-163v54h163h54z" />
    <glyph glyph-name="uhorn" unicode="&#x1b0;" horiz-adv-x="1319" 
d="M999 944l5.99902 -1.99902c76.667 -1.33301 128.5 17.167 155.5 55.5s40.5 98.833 40.5 181.5h48l2 -5c2 -96 -16.167 -168.333 -54.5 -217s-104.166 -74 -197.499 -76v-827h163v-54h-208l-8 194c-34 -68.667 -82.5 -121.667 -145.5 -159s-139.5 -56 -229.5 -56
c-111.333 0 -198.5 39.5 -261.5 118.5s-94.5 201.5 -94.5 367.5v563h-143v54h143h54v-619c0 -146.667 27 -255 81 -325s127 -105 219 -105c112.667 0 199.167 27.667 259.5 83s98.833 128.666 115.5 219.999v692h-163v54h218v-138z" />
    <glyph glyph-name="uni01F0" unicode="&#x1f0;" horiz-adv-x="563" 
d="M393 -89c0 -111.333 -24.998 -197.167 -74.998 -257.5s-120 -90.5 -210 -90.5c-20 0 -38.667 1.66699 -56 5s-36 8.33301 -56 15l13 52c12 -4 27.167 -8 45.5 -12s36.166 -6 53.499 -6c73.333 0 130.166 25.5 170.499 76.5s60.5 123.5 60.5 217.5v1117h-163v54h217v-1171
zM367.002 1250l184 187h67v-16l-212 -207h-79l-214 209v14h71z" />
    <glyph glyph-name="Aringacute" unicode="&#x1fa;" 
d="M55 54h107l524 1402h66l525 -1402h107v-54h-309v54h143l-143 381h-712l-142 -381h143v-54h-309v54zM383 489h672l-305 820l-28 82h-6l-27 -82zM859 1928h72l3 -6l-179 -185h-59l-2 5zM575 1541c0 38.667 13.5 72 40.5 100s59.833 42 98.5 42c37.333 0 69.5 -14 96.5 -42
s40.5 -61.333 40.5 -100s-13.5 -71.334 -40.5 -98.001s-59.167 -40 -96.5 -40c-38.667 0 -71.5 13.333 -98.5 40s-40.5 59.334 -40.5 98.001zM626 1541c0 -25.333 8.5 -46.333 25.5 -63s37.833 -25 62.5 -25c24 0 44.333 8.33301 61 25s25 37.667 25 63
c0 26 -8.33301 47.667 -25 65s-37 26 -61 26c-24.667 0 -45.5 -8.66699 -62.5 -26s-25.5 -39 -25.5 -65z" />
    <glyph glyph-name="aringacute" unicode="&#x1fb;" horiz-adv-x="1132" 
d="M885 0c-8.66699 47.333 -14.498 82.835 -17.498 106.502s-4.5 49.167 -4.5 76.5v16c-41.333 -64.667 -99.166 -117.5 -173.499 -158.5s-161.833 -61.5 -262.5 -61.5c-100 0 -178.833 27.167 -236.5 81.5s-86.5 125.5 -86.5 213.5c0 97.333 44.333 176.666 133 237.999
s207.667 92 357 92h269v158c0 90 -28.833 160.167 -86.5 210.5s-138.834 75.5 -243.501 75.5c-68.667 0 -132.834 -9.66699 -192.501 -29s-110.5 -46 -152.5 -80l-1 -173h-54l1 206c51.333 38 111.833 69.167 181.5 93.5s142.167 36.5 217.5 36.5c116 0 209 -29.333 279 -88
s105 -143.334 105 -254.001v-542c0 -28 1.16699 -55.667 3.5 -83s6.16602 -54.333 11.499 -81h130v-54h-177zM427.002 32.002c102 0 190.667 23.001 266 69.001s132 109.667 170 191v257h-266c-132.667 0 -239 -25.833 -319 -77.5s-120 -118.834 -120 -201.501
c0 -67.333 24.667 -123.833 74 -169.5s114.333 -68.5 195 -68.5zM679.002 1611h72l3 -6l-179 -185h-59l-2 5zM395.002 1224c0 38.667 13.5 72 40.5 100s59.833 42 98.5 42c37.333 0 69.5 -14 96.5 -42s40.5 -61.333 40.5 -100s-13.5 -71.334 -40.5 -98.001
s-59.167 -40 -96.5 -40c-38.667 0 -71.5 13.333 -98.5 40s-40.5 59.334 -40.5 98.001zM446.002 1224c0 -25.333 8.5 -46.333 25.5 -63s37.833 -25 62.5 -25c24 0 44.333 8.33301 61 25s25 37.667 25 63c0 26 -8.33301 47.667 -25 65s-37 26 -61 26
c-24.667 0 -45.5 -8.66699 -62.5 -26s-25.5 -39 -25.5 -65z" />
    <glyph glyph-name="AEacute" unicode="&#x1fc;" horiz-adv-x="2026" 
d="M51 54h119l849 1402h776v-293h-54v239h-642l26 -616h588v-54h-586l28 -678h647v239h54v-293h-915v54h160l-15 371h-628l-223 -371h131v-54h-315v54zM490 478h594l-39 924l-5 1l-57 -105zM1230 1813h78l2 -5l-231 -261h-67l-2 5z" />
    <glyph glyph-name="aeacute" unicode="&#x1fd;" horiz-adv-x="1779" 
d="M1272 -21c-95.333 0 -176.996 21.999 -244.996 65.999s-119.667 105.667 -155 185v-12h1c-29.333 -63.333 -80.333 -119 -153 -167s-162 -72 -268 -72c-112.667 0 -200 27.333 -262 82s-93 129 -93 223c0 104.667 37.167 188.5 111.5 251.5s180.5 94.5 318.5 94.5h290v90
c0 105.333 -24.333 186.333 -73 243s-121.667 85 -219 85c-108 0 -192.833 -26 -254.5 -78s-92.5 -118.333 -92.5 -199l-45 6l-2 6c-3.33301 92 31.167 168.167 103.5 228.5s169.166 90.5 290.499 90.5c92 0 167.667 -24.5 227 -73.5s96.666 -120.5 111.999 -214.5
c35.333 88.667 87.666 158.834 156.999 210.501s148 77.5 236 77.5c125.333 0 224 -39.5 296 -118.5s108 -186.833 108 -323.5v-83h-787v-13v-64c0 -138.667 33 -251.167 99 -337.5s165.667 -129.5 299 -129.5c68 0 130.167 11.5 186.5 34.5s104.833 55.167 145.5 96.5
l30 -42c-43.333 -44 -92.833 -78.833 -148.5 -104.5s-126.834 -38.5 -213.501 -38.5zM451.004 30.999c86.667 0 165.667 21.833 237 65.5s114.333 86.5 129 128.5v350h-288c-123.333 0 -217 -28 -281 -84s-96 -126.333 -96 -211c0 -78 25.833 -139 77.5 -183
s125.5 -66 221.5 -66zM1257 1048c-106 0 -192.832 -38.832 -260.499 -116.499s-105.834 -175.834 -114.501 -294.501l2 -5h723v32c0 112 -30.5 204 -91.5 276s-147.167 108 -258.5 108zM1014 1492h78l2 -5l-231 -261h-67l-2 5z" />
    <glyph glyph-name="Oslashacute" unicode="&#x1fe;" horiz-adv-x="1411" 
d="M1338 719c0 -224 -56.168 -403.333 -168.501 -538s-258.833 -202 -439.5 -202c-70 0 -135.667 10.5 -197 31.5s-116.666 52.167 -165.999 93.5l-113 -179h-66l137 217c-66 65.333 -116.667 147 -152 245s-53 208.667 -53 332v18c0 223.333 56 402.5 168 537.5
s258.667 202.5 440 202.5c69.333 0 135 -11 197 -33s118 -53.333 168 -94l92 145h66l-116 -183c64 -66 113.833 -148 149.5 -246s53.5 -207.667 53.5 -329v-18zM174.999 719c0 -112.667 15.333 -213.833 46 -303.5s74.667 -163.167 132 -220.5l6 -1l705 1111
c-45.333 38 -96.333 67.167 -153 87.5s-117.667 30.5 -183 30.5c-168 0 -302.167 -62.5 -402.5 -187.5s-150.5 -290.5 -150.5 -496.5v-20zM1284 739.001c0 110.667 -15.333 210.668 -46 300.001s-74 162.666 -130 219.999l-6 1l-706 -1111c45.333 -38 96 -66.833 152 -86.5
s116.667 -29.5 182 -29.5c168.667 0 303.167 62.5 403.5 187.5s150.5 291.167 150.5 498.5v20zM866.999 1875h78l2 -5l-231 -261h-67l-2 5z" />
    <glyph glyph-name="oslashacute" unicode="&#x1ff;" horiz-adv-x="1155" 
d="M104 562c0 158.667 43.835 288.332 131.502 388.999s201.5 151 341.5 151c46 0 89.5 -5.83301 130.5 -17.5s79.167 -28.5 114.5 -50.5l98 185h63l-116 -218c58 -48.667 103.167 -110.667 135.5 -186s48.5 -159.666 48.5 -252.999v-42
c0 -159.333 -43.833 -289.333 -131.5 -390s-201.167 -151 -340.5 -151c-41.333 0 -80.833 4.66699 -118.5 14s-72.834 23 -105.501 41l-95 -179h-63l111 209c-64.667 46.667 -114.834 109.5 -150.501 188.5s-53.5 168.167 -53.5 267.5v42zM158.002 519.998
c0 -84 15.001 -161.499 45.001 -232.499s72.667 -126.833 128 -167.5h6l458 864c-31.333 20 -65.333 35.667 -102 47s-75.334 17 -116.001 17c-127.333 0 -229 -47.833 -305 -143.5s-114 -209.834 -114 -342.501v-42zM997.003 561.999c0 76 -13.666 147.833 -40.999 215.5
s-65 122.5 -113 164.5l-6 1l-456 -860c28 -16.667 58.667 -29.167 92 -37.5s68.666 -12.5 105.999 -12.5c126.667 0 228 47.333 304 142s114 209.667 114 345v42zM735.004 1490h78l2 -5l-231 -261h-67l-2 5z" />
    <glyph glyph-name="uni0218" unicode="&#x218;" horiz-adv-x="1198" 
d="M1077 1022l-54.001 0.00195312v204c-42.667 64.667 -99.834 113.667 -171.501 147s-156.5 50 -254.5 50c-132 0 -236.5 -29.5 -313.5 -88.5s-115.5 -129.833 -115.5 -212.5s31.833 -151.334 95.5 -206.001s178.834 -103.334 345.501 -146.001
c161.333 -42.667 283.166 -94.834 365.499 -156.501s123.5 -149.167 123.5 -262.5c0 -115.333 -47 -206.166 -141 -272.499s-211.667 -99.5 -353 -99.5c-97.333 0 -190.833 18.167 -280.5 54.5s-164.167 93.166 -223.5 170.499v240h54v-217
c52 -68 118.333 -117.333 199 -148s164.334 -46 251.001 -46c128 0 233.167 29.333 315.5 88s123.5 134.667 123.5 228c0 91.333 -33.5 164.333 -100.5 219s-183.167 104.667 -348.5 150c-166 44.667 -287.5 95.5 -364.5 152.5s-115.5 140.167 -115.5 249.5
c0 108.667 45.333 195.334 136 260.001s206.334 97 347.001 97c109.333 0 204.833 -18.833 286.5 -56.5s146.167 -94.167 193.5 -169.5v-229zM643.999 -264.998c0 -50 -7.66699 -95.167 -23 -135.5s-36.333 -75.833 -63 -106.5l-37 32c24 34.667 41.5 67.5 52.5 98.5
s16.5 67.5 16.5 109.5v99h54v-97z" />
    <glyph glyph-name="uni0219" unicode="&#x219;" horiz-adv-x="1009" 
d="M852 753l-53.999 0.00195312v175c-34.667 38.667 -78.834 68.334 -132.501 89.001s-115.834 31 -186.501 31c-101.333 0 -178 -21.833 -230 -65.5s-78 -94.167 -78 -151.5c0 -56.667 22 -105 66 -145s131.333 -75 262 -105c120.667 -28 212.167 -66.167 274.5 -114.5
s93.5 -115.833 93.5 -202.5c0 -84.667 -34.667 -153.334 -104 -206.001s-161.333 -79 -276 -79c-78.667 0 -151.167 12.667 -217.5 38s-121.833 60.333 -166.5 105v193h54v-163c39.333 -42 88 -72.333 146 -91s119.333 -28 184 -28c100 0 179.333 23.333 238 70
s88 100.667 88 162c0 57.333 -24.5 109.5 -73.5 156.5s-134.5 83.833 -256.5 110.5c-127.333 26.667 -220.166 62.167 -278.499 106.5s-87.5 107.833 -87.5 190.5c0 77.333 32.667 142.166 98 194.499s153.333 78.5 264 78.5c77.333 0 148.833 -13.333 214.5 -40
s118.5 -62.334 158.5 -107.001v-202zM510.001 -259.998c0 -50 -7.66699 -95.167 -23 -135.5s-36.333 -75.833 -63 -106.5l-37 32c24 34.667 41.5 67.5 52.5 98.5s16.5 67.5 16.5 109.5v99h54v-97z" />
    <glyph glyph-name="uni021A" unicode="&#x21a;" horiz-adv-x="1277" 
d="M1194 1456v-293h-54v239h-476v-1348h163v-54h-380v54h163v1348h-476v-239h-54v293h1114zM652 -255c0 -50 -7.66699 -95.167 -23 -135.5s-36.333 -75.833 -63 -106.5l-37 32c24 34.667 41.5 67.5 52.5 98.5s16.5 67.5 16.5 109.5v99h54v-97z" />
    <glyph glyph-name="uni021B" unicode="&#x21b;" horiz-adv-x="719" 
d="M320 1374l0.000976562 -291.997h266v-55h-266v-748c0 -88.667 15 -151.834 45 -189.501s69.667 -56.5 119 -56.5c21.333 0 40.333 0.666992 57 2s39.667 3.66602 69 6.99902l10 -49c-20 -5.33301 -40.5 -9 -61.5 -11s-44.833 -3 -71.5 -3
c-72.667 0 -127.834 23.667 -165.501 71s-56.5 123.666 -56.5 228.999v748h-200v55h200v292h55zM479.001 -254.997c0 -50 -7.66699 -95.167 -23 -135.5s-36.333 -75.833 -63 -106.5l-37 32c24 34.667 41.5 67.5 52.5 98.5s16.5 67.5 16.5 109.5v99h54v-97z" />
    <glyph glyph-name="uni0237" unicode="&#x237;" horiz-adv-x="563" 
d="M393 -89c0 -111.333 -24.998 -197.167 -74.998 -257.5s-120 -90.5 -210 -90.5c-20 0 -38.667 1.66699 -56 5s-36 8.33301 -56 15l13 52c12 -4 27.167 -8 45.5 -12s36.166 -6 53.499 -6c73.333 0 130.166 25.5 170.499 76.5s60.5 123.5 60.5 217.5v1117h-163v54h217v-1171
z" />
    <glyph glyph-name="schwa" unicode="&#x259;" horiz-adv-x="1032" 
d="M498 1102c122.667 0 229 -50.002 319 -150.002s135 -223.667 135 -371v-64c0 -156 -43.5 -284.667 -130.5 -386s-193.833 -152 -320.5 -152c-122.667 0 -222.334 39.833 -299.001 119.5s-115 187.167 -115 322.5v83h810c0 0.666992 0.166992 2.5 0.5 5.5s0.5 5.5 0.5 7.5
v64c0 130 -38.5 240.333 -115.5 331s-171.833 136 -284.5 136c-81.333 0 -149.166 -11.167 -203.499 -33.5s-100.5 -55.166 -138.5 -98.499l-29 42c42 46.667 93.5 82.334 154.5 107.001s133.167 37 216.5 37zM501 32.998c106.667 0 195.501 39.001 266.501 117.001
s111.5 176 121.5 294l-3 6h-745v-33c0 -110.667 33.167 -202.334 99.5 -275.001s153.166 -109 260.499 -109z" />
    <glyph glyph-name="uni02BC" unicode="&#x2bc;" horiz-adv-x="320" 
d="M220 1393c0 -59.333 -9.33301 -112.333 -28 -159s-44.667 -87.667 -78 -123l-37 32c30.667 40 53.167 78.833 67.5 116.5s21.5 81.5 21.5 131.5v169h54v-167z" />
    <glyph glyph-name="circumflex" unicode="&#x2c6;" horiz-adv-x="779" 
d="M608 1265v-13h-70l-185 186l-183 -186h-66v17l210 206h80z" />
    <glyph glyph-name="caron" unicode="&#x2c7;" horiz-adv-x="754" 
d="M344 1288l184 187h67v-16l-212 -207h-79l-214 209v14h71z" />
    <glyph glyph-name="breve" unicode="&#x2d8;" horiz-adv-x="819" 
d="M668 1456l1.99902 -6.00098c2.66699 -71.333 -20.666 -129.5 -69.999 -174.5s-116.666 -67.5 -201.999 -67.5c-86 0 -153.833 22.5 -203.5 67.5s-72.834 103.167 -69.501 174.5l2 6h46c0 -57.333 18 -103.666 54 -138.999s93 -53 171 -53c74.667 0 130.667 18 168 54
s56 82 56 138h46z" />
    <glyph glyph-name="dotaccent" unicode="&#x2d9;" horiz-adv-x="474" 
d="M247 1318h-95v138h95v-138z" />
    <glyph glyph-name="ring" unicode="&#x2da;" horiz-adv-x="623" 
d="M138 1338c0 37.333 13.333 69.833 40 97.5s58.667 41.5 96 41.5c36 0 67.167 -13.667 93.5 -41s39.5 -60 39.5 -98s-13 -70 -39 -96s-57.333 -39 -94 -39c-37.333 0 -69.333 13 -96 39s-40 58 -40 96zM195 1338c0 -22.667 7.66699 -41.5 23 -56.5s34 -22.5 56 -22.5
c21.333 0 39.333 7.33301 54 22s22 33.667 22 57s-7.33301 42.833 -22 58.5s-32.667 23.5 -54 23.5c-22 0 -40.667 -7.83301 -56 -23.5s-23 -35.167 -23 -58.5z" />
    <glyph glyph-name="ogonek" unicode="&#x2db;" horiz-adv-x="413" 
d="M256 0c-50.667 -46 -88.002 -84.834 -112.002 -116.501s-36 -67.167 -36 -106.5c0 -15.333 5.33301 -32.5 16 -51.5s33.334 -28.5 68.001 -28.5c23.333 0 43.333 3.5 60 10.5s33.334 16.167 50.001 27.5l16 -48c-16 -12 -34.167 -22.333 -54.5 -31
s-44.166 -13 -71.499 -13c-40.667 0 -73.834 11.833 -99.501 35.5s-38.5 56.5 -38.5 98.5c0 40.667 14 81.834 42 123.501s64 81.5 108 119.5z" />
    <glyph glyph-name="tilde" unicode="&#x2dc;" horiz-adv-x="923" 
d="M766 1472c0 -54.667 -17 -99.3311 -51 -133.998s-75.667 -52 -125 -52c-50.667 0 -102 20.833 -154 62.5s-96.333 62.5 -133 62.5c-34.667 0 -63.5 -12.333 -86.5 -37s-34.5 -57.334 -34.5 -98.001l-55 10c0 53.333 16.667 96.5 50 129.5s75.333 49.5 126 49.5
c48 0 99 -20.667 153 -62s98.667 -62 134 -62c33.333 0 61.833 13.167 85.5 39.5s35.5 60.166 35.5 101.499z" />
    <glyph glyph-name="hungarumlaut" unicode="&#x2dd;" horiz-adv-x="866" 
d="M620 1518h72l2 -6l-292 -260h-65l-2 6zM350 1518h68l3 -6l-248 -260h-62l-2 5z" />
    <glyph glyph-name="uni02F3" unicode="&#x2f3;" horiz-adv-x="429" 
d="M72 -239c0 33.333 13.667 63.333 41 90s59.333 40 96 40c35.333 0 66.333 -13.333 93 -40s40 -56.667 40 -90c0 -32.667 -13.167 -61.834 -39.5 -87.501s-57.5 -38.5 -93.5 -38.5c-36.667 0 -68.667 12.833 -96 38.5s-41 54.834 -41 87.501zM130 -239
c0 -17.333 7.83301 -33.333 23.5 -48s34.167 -22 55.5 -22c20.667 0 38.5 7.16699 53.5 21.5s22.5 30.5 22.5 48.5c0 18.667 -7.5 35.334 -22.5 50.001s-32.833 22 -53.5 22c-21.333 0 -39.833 -7.33301 -55.5 -22s-23.5 -31.334 -23.5 -50.001z" />
    <glyph glyph-name="gravecomb" unicode="&#x300;" horiz-adv-x="476" 
d="M315 1218h-66l-162 291h75z" />
    <glyph glyph-name="acutecomb" unicode="&#x301;" horiz-adv-x="466" 
d="M271 1511h67l-159 -291h-61z" />
    <glyph glyph-name="tildecomb" unicode="&#x303;" horiz-adv-x="0" 
d="M-131 1472c0 -54.667 -17 -99.3311 -51 -133.998s-75.667 -52 -125 -52c-50.667 0 -102 20.833 -154 62.5s-96.333 62.5 -133 62.5c-34.667 0 -63.5 -12.333 -86.5 -37s-34.5 -57.334 -34.5 -98.001l-55 10c0 53.333 16.667 96.5 50 129.5s75.333 49.5 126 49.5
c48 0 99 -20.667 153 -62s98.667 -62 134 -62c33.333 0 61.833 13.167 85.5 39.5s35.5 60.166 35.5 101.499z" />
    <glyph glyph-name="hook" unicode="&#x309;" horiz-adv-x="565" 
d="M182 1227l-0.000976562 99.002c66.667 5.33301 114.834 16.5 144.501 33.5s44.5 43.833 44.5 80.5c0 38 -23.5 65.833 -70.5 83.5s-102.167 26.5 -165.5 26.5l7 49c84 0 152.5 -14.333 205.5 -43s79.5 -67.334 79.5 -116.001c0 -50.667 -18 -88.834 -54 -114.501
s-83.667 -40.5 -143 -44.5v-54h-48z" />
    <glyph glyph-name="uni030F" unicode="&#x30f;" horiz-adv-x="866" 
d="M445 1258l-2 -6h-65l-292 260l2 6h72zM671 1257l-2 -5h-62l-248 260l3 6h68z" />
    <glyph glyph-name="dotbelow" unicode="&#x323;" horiz-adv-x="333" 
d="M212 -295h-95v138h95v-138z" />
    <glyph glyph-name="tonos" unicode="&#x384;" horiz-adv-x="462" 
d="M229 1578h106l-146 -273h-53z" />
    <glyph glyph-name="dieresistonos" unicode="&#x385;" horiz-adv-x="964" 
d="M757 1348h-126v108h126v-108zM278 1348h-127v108h127v-108zM452 1657h137l-118 -240h-42z" />
    <glyph glyph-name="Alphatonos" unicode="&#x386;" 
d="M55 54h107l524 1402h66l525 -1402h107v-54h-309v54h143l-143 381h-712l-142 -381h143v-54h-309v54zM383 489h672l-305 820l-28 82h-6l-27 -82zM192 1577h106l-146 -273h-53z" />
    <glyph glyph-name="anoteleia" unicode="&#x387;" horiz-adv-x="472" 
d="M277 624h-118v152h118v-152z" />
    <glyph glyph-name="Epsilontonos" unicode="&#x388;" horiz-adv-x="1370" 
d="M171 0v54h163v1348h-163v54h1049v-293h-54v239h-778v-616h630v-54h-630v-678h778v239h54v-293h-1049zM21 1579h106l-146 -273h-53z" />
    <glyph glyph-name="Etatonos" unicode="&#x389;" horiz-adv-x="1606" 
d="M171 1402v54h380v-54h-163v-653h930v653h-163v54h163h54h163v-54h-163v-1348h163v-54h-380v54h163v641h-930v-641h163v-54h-380v54h163v1348h-163zM-6 1579h106l-146 -273h-53z" />
    <glyph glyph-name="Iotatonos" unicode="&#x38a;" horiz-adv-x="698" 
d="M209 1402v54h380v-54h-163v-1348h163v-54h-380v54h163v1348h-163zM22 1578h106l-146 -273h-53z" />
    <glyph glyph-name="Omicrontonos" unicode="&#x38c;" horiz-adv-x="1508" 
d="M1368 719c0 -224 -56.167 -403.333 -168.5 -538s-258.833 -202 -439.5 -202c-181.333 0 -328.333 67.5 -441 202.5s-169 314.167 -169 537.5v18c0 223.333 56 402.5 168 537.5s258.667 202.5 440 202.5c180.667 0 327.5 -67.5 440.5 -202.5s169.5 -314.167 169.5 -537.5
v-18zM1314 739c0 206 -50.501 371.5 -151.501 496.5s-235.833 187.5 -404.5 187.5c-168 0 -302.167 -62.5 -402.5 -187.5s-150.5 -290.5 -150.5 -496.5v-20c0 -207.333 50.333 -373.5 151 -498.5s235.334 -187.5 404.001 -187.5s303.167 62.5 403.5 187.5
s150.5 291.167 150.5 498.5v20zM99.999 1577h106l-146 -273h-53z" />
    <glyph glyph-name="Upsilontonos" unicode="&#x38e;" horiz-adv-x="1529" 
d="M471 1402h-131l449 -755l26 -50l27 50l451 755h-131v54h316v-54h-120l-514 -849v-499h163v-54h-381v54h163v499l-515 849h-119v54h316v-54zM-61 1577h106l-146 -273h-53z" />
    <glyph glyph-name="Omegatonos" unicode="&#x38f;" horiz-adv-x="1356" 
d="M773 78c108 50 204.835 132.165 290.502 246.498s128.5 263.5 128.5 447.5v39c0 174.667 -48.333 320.334 -145 437.001s-223.334 175 -380.001 175c-157.333 0 -283.833 -58.333 -379.5 -175s-143.5 -262.334 -143.5 -437.001v-39c0 -184.667 43.5 -334 130.5 -448
s185.167 -196 294.5 -246v-78h-435v54h362c-110.667 60.667 -206 151.334 -286 272.001s-120 269.334 -120 446.001v37c0 190 53.667 348.833 161 476.5s246 191.5 416 191.5c169.333 0 308.166 -64 416.499 -192s162.5 -286.667 162.5 -476v-37
c0 -176 -40 -324.167 -120 -444.5s-174.667 -211.5 -284 -273.5h365v-54h-434v78zM134.002 1577h106l-146 -273h-53z" />
    <glyph glyph-name="iotadieresistonos" unicode="&#x390;" horiz-adv-x="594" 
d="M245 279c0 -90 16 -153.498 48 -190.498s77.667 -55.5 137 -55.5c18 0 34 0.666992 48 2s33.667 3.66602 59 6.99902l9 -50c-16 -4.66699 -33.5 -8 -52.5 -10s-39.167 -3 -60.5 -3c-84 0 -145.5 23.167 -184.5 69.5s-58.5 123.166 -58.5 230.499v749h-163v54h218v-803z
M539 1279h-126v108h126v-108zM60 1279h-127v108h127v-108zM234 1588h137l-118 -240h-42z" />
    <glyph glyph-name="Alpha" unicode="&#x391;" 
d="M55 54h107l524 1402h66l525 -1402h107v-54h-309v54h143l-143 381h-712l-142 -381h143v-54h-309v54zM383 489h672l-305 820l-28 82h-6l-27 -82z" />
    <glyph glyph-name="Beta" unicode="&#x392;" horiz-adv-x="1303" 
d="M617 1456c150.667 0 267.666 -31 350.999 -93s125 -155.333 125 -280c0 -86.667 -22.333 -159.667 -67 -219s-107.667 -96.333 -189 -111c90.667 -12 167 -51.667 229 -119s93 -145 93 -233c0 -127.333 -41.167 -226 -123.5 -296s-191.166 -105 -326.499 -105h-638v54
h163v1348h-163v54h163h383zM287.999 719l-0.000976562 -665.001h421c122.667 0 219.334 30.333 290.001 91s106 145.334 106 254.001c0 89.333 -33.833 165 -101.5 227s-162.5 93 -284.5 93h-431zM287.998 772.999h349c132.667 0 232.667 25.833 300 77.5
s101 130.5 101 236.5c0 104 -35.5 182.5 -106.5 235.5s-175.833 79.5 -314.5 79.5h-329v-629z" />
    <glyph glyph-name="Gamma" unicode="&#x393;" horiz-adv-x="1203" 
d="M77 54h163v1348h-163v54h1025v-293h-54v239h-754v-1348h163v-54h-380v54z" />
    <glyph glyph-name="Delta" unicode="&#x394;" horiz-adv-x="1404" 
d="M647 1456h65l617 -1456h-1298zM113 54h1133l-537 1271l-27 72h-6l-27 -72z" />
    <glyph glyph-name="Delta" unicode="&#x2206;" horiz-adv-x="1404" 
d="M647 1456h65l617 -1456h-1298zM113 54h1133l-537 1271l-27 72h-6l-27 -72z" />
    <glyph glyph-name="Epsilon" unicode="&#x395;" horiz-adv-x="1270" 
d="M71 0v54h163v1348h-163v54h1049v-293h-54v239h-778v-616h630v-54h-630v-678h778v239h54v-293h-1049z" />
    <glyph glyph-name="Zeta" unicode="&#x396;" horiz-adv-x="1220" 
d="M166 54h908v239h54v-293h-1036v44l929 1359h-835v-240h-54v293h964v-38z" />
    <glyph glyph-name="Eta" unicode="&#x397;" horiz-adv-x="1506" 
d="M71 1402v54h380v-54h-163v-653h930v653h-163v54h163h54h163v-54h-163v-1348h163v-54h-380v54h163v641h-930v-641h163v-54h-380v54h163v1348h-163z" />
    <glyph glyph-name="Theta" unicode="&#x398;" horiz-adv-x="1372" 
d="M971 691h-591v53h591v-53zM1338 719c0 -224 -56.167 -403.333 -168.5 -538s-258.833 -202 -439.5 -202c-181.333 0 -328.333 67.5 -441 202.5s-169 314.167 -169 537.5v18c0 223.333 56 402.5 168 537.5s258.667 202.5 440 202.5c180.667 0 327.5 -67.5 440.5 -202.5
s169.5 -314.167 169.5 -537.5v-18zM1284 739c0 206 -50.501 371.5 -151.501 496.5s-235.833 187.5 -404.5 187.5c-168 0 -302.167 -62.5 -402.5 -187.5s-150.5 -290.5 -150.5 -496.5v-20c0 -207.333 50.333 -373.5 151 -498.5s235.334 -187.5 404.001 -187.5
s303.167 62.5 403.5 187.5s150.5 291.167 150.5 498.5v20z" />
    <glyph glyph-name="Iota" unicode="&#x399;" horiz-adv-x="598" 
d="M109 1402v54h380v-54h-163v-1348h163v-54h-380v54h163v1348h-163z" />
    <glyph glyph-name="Kappa" unicode="&#x39a;" horiz-adv-x="1388" 
d="M71 54h163v1348h-163v54h380v-54h-163v-638h238l565 633l-2 5h-168v54h361v-54h-115l-596 -672l639 -676h118v-54h-361v54h163l3 6l-622 651h-223v-657h163v-54h-380v54z" />
    <glyph glyph-name="Lambda" unicode="&#x39b;" horiz-adv-x="1435" 
d="M52 54h107l514 1402h65l515 -1402h107v-54h-309v54h143l-459 1250l-27 84h-6l-27 -84l-457 -1250h143v-54h-309v54z" />
    <glyph glyph-name="Mu" unicode="&#x39c;" horiz-adv-x="1824" 
d="M932 0h-43l-595 1356l-6 -2v-1300h163v-54h-380v54h163v1348h-163v54h163h77l596 -1370h6l598 1370h242v-54h-163v-1348h163v-54h-380v54h163v1307l-6 2z" />
    <glyph glyph-name="Nu" unicode="&#x39d;" horiz-adv-x="1517" 
d="M1446 1456v-54h-163v-1402h-54l-934 1356l-6 -2v-1300h163v-54h-381v54h163v1348h-163v54h163h55l934 -1353l6 2v1297h-163v54h217h163z" />
    <glyph glyph-name="Xi" unicode="&#x39e;" horiz-adv-x="1208" 
d="M93 293h54v-239h917v239h54v-293h-1025v293zM1079 1163h-54v240h-857v-240h-54v293h965v-293zM301 741h601v-54h-601v54z" />
    <glyph glyph-name="Omicron" unicode="&#x39f;" horiz-adv-x="1488" 
d="M1348 719c0 -224 -56.167 -403.333 -168.5 -538s-258.833 -202 -439.5 -202c-181.333 0 -328.333 67.5 -441 202.5s-169 314.167 -169 537.5v18c0 223.333 56 402.5 168 537.5s258.667 202.5 440 202.5c180.667 0 327.5 -67.5 440.5 -202.5s169.5 -314.167 169.5 -537.5
v-18zM1294 739c0 206 -50.501 371.5 -151.501 496.5s-235.833 187.5 -404.5 187.5c-168 0 -302.167 -62.5 -402.5 -187.5s-150.5 -290.5 -150.5 -496.5v-20c0 -207.333 50.333 -373.5 151 -498.5s235.334 -187.5 404.001 -187.5s303.167 62.5 403.5 187.5
s150.5 291.167 150.5 498.5v20z" />
    <glyph glyph-name="Pi" unicode="&#x3a0;" horiz-adv-x="1548" 
d="M77 54h163v1348h-163v54h1364v-54h-163v-1348h163v-54h-380v54h163v1348h-930v-1348h163v-54h-380v54z" />
    <glyph glyph-name="Rho" unicode="&#x3a1;" horiz-adv-x="1255" 
d="M639 1456c150.667 0 266.667 -37.833 348 -113.5s122 -176.167 122 -301.5c0 -126.667 -40.5 -227.667 -121.5 -303s-197.167 -113 -348.5 -113h-351v-571h163v-54h-380v54h163v1348h-163v54h163h405zM288 679h351c138 0 241.833 34.333 311.5 103
s104.5 154.334 104.5 257.001c0 105.333 -34.667 192.166 -104 260.499s-173.333 102.5 -312 102.5h-351v-723z" />
    <glyph glyph-name="Sigma" unicode="&#x3a3;" horiz-adv-x="1167" 
d="M79 0v44l547 743l-547 625v44h37l2 -3v3h893v-293h-54v240h-788l-2 -5l511 -583v-47l-523 -714h862v239h54v-293h-992z" />
    <glyph glyph-name="Tau" unicode="&#x3a4;" horiz-adv-x="1277" 
d="M1194 1456v-293h-54v239h-476v-1348h163v-54h-380v54h163v1348h-476v-239h-54v293h1114z" />
    <glyph glyph-name="Upsilon" unicode="&#x3a5;" horiz-adv-x="1429" 
d="M371 1402h-131l449 -755l26 -50l27 50l451 755h-131v54h316v-54h-120l-514 -849v-499h163v-54h-381v54h163v499l-515 849h-119v54h316v-54z" />
    <glyph glyph-name="Phi" unicode="&#x3a6;" horiz-adv-x="1448" 
d="M681 209c-183.333 0.666992 -329.5 51.335 -438.5 152.002s-163.5 226 -163.5 376c0 148.667 54.667 273.667 164 375s255.333 152.666 438 153.999v136h-163v54h381v-54h-163v-136c182.667 -0.666992 329.167 -51.334 439.5 -152.001s165.5 -225.667 165.5 -375
c0 -150.667 -55.167 -276.667 -165.5 -378s-256.833 -152 -439.5 -152v-155h163v-54h-381v54h163v155zM1286 739.001c0 136.667 -49.667 249.333 -149 338s-231.333 132 -396 130l-5 -2v-935l5 -2c164.667 -2.66699 296.667 40.5 396 129.5s149 202.833 149 341.5zM134 737
c0 -138 49 -251.166 147 -339.499s229.667 -131.5 395 -129.5l5 2v935l-5 2c-164 1.33301 -295.333 -42.834 -394 -132.501s-148 -202.167 -148 -337.5z" />
    <glyph glyph-name="Chi" unicode="&#x3a7;" horiz-adv-x="1391" 
d="M63 54h115l486 689l-466 659h-115v54h338v-54h-156l432 -617l433 617h-155v54h337v-54h-115l-465 -659l486 -689h115v-54h-337v54h155l-454 647l-453 -647h155v-54h-336v54z" />
    <glyph glyph-name="Psi" unicode="&#x3a8;" horiz-adv-x="1620" 
d="M966 1456v-54h-163v-923l6 -3c138 0 251.333 42.833 340 128.5s133 199.5 133 341.5v510h54h163v-54h-163v-456c0 -163.333 -49.167 -291.833 -147.5 -385.5s-226.833 -141.834 -385.5 -144.501v-362h163v-54h-381v54h163v362c-158.667 4 -286.667 52.667 -384 146
s-146 221.333 -146 384v456h-163v54h163h55v-510c0 -140.667 43.667 -253.667 131 -339s200 -128.666 338 -129.999l6 2v923h-163v54h163h55h163z" />
    <glyph glyph-name="Omega" unicode="&#x3a9;" horiz-adv-x="1336" 
d="M753 78c108 50 204.835 132.165 290.502 246.498s128.5 263.5 128.5 447.5v39c0 174.667 -48.333 320.334 -145 437.001s-223.334 175 -380.001 175c-157.333 0 -283.833 -58.333 -379.5 -175s-143.5 -262.334 -143.5 -437.001v-39c0 -184.667 43.5 -334 130.5 -448
s185.167 -196 294.5 -246v-78h-435v54h362c-110.667 60.667 -206 151.334 -286 272.001s-120 269.334 -120 446.001v37c0 190 53.667 348.833 161 476.5s246 191.5 416 191.5c169.333 0 308.166 -64 416.499 -192s162.5 -286.667 162.5 -476v-37
c0 -176 -40 -324.167 -120 -444.5s-174.667 -211.5 -284 -273.5h365v-54h-434v78z" />
    <glyph glyph-name="Omega" unicode="&#x2126;" horiz-adv-x="1336" 
d="M753 78c108 50 204.835 132.165 290.502 246.498s128.5 263.5 128.5 447.5v39c0 174.667 -48.333 320.334 -145 437.001s-223.334 175 -380.001 175c-157.333 0 -283.833 -58.333 -379.5 -175s-143.5 -262.334 -143.5 -437.001v-39c0 -184.667 43.5 -334 130.5 -448
s185.167 -196 294.5 -246v-78h-435v54h362c-110.667 60.667 -206 151.334 -286 272.001s-120 269.334 -120 446.001v37c0 190 53.667 348.833 161 476.5s246 191.5 416 191.5c169.333 0 308.166 -64 416.499 -192s162.5 -286.667 162.5 -476v-37
c0 -176 -40 -324.167 -120 -444.5s-174.667 -211.5 -284 -273.5h365v-54h-434v78z" />
    <glyph glyph-name="Iotadieresis" unicode="&#x3aa;" horiz-adv-x="598" 
d="M109 1402v54h380v-54h-163v-1348h163v-54h-380v54h163v1348h-163zM616 1673h-136v118h136v-118zM147 1673h-137v118h137v-118z" />
    <glyph glyph-name="Upsilondieresis" unicode="&#x3ab;" horiz-adv-x="1429" 
d="M371 1402h-131l449 -755l26 -50l27 50l451 755h-131v54h316v-54h-120l-514 -849v-499h163v-54h-381v54h163v499l-515 849h-119v54h316v-54zM1031 1662h-136v118h136v-118zM562 1662h-137v118h137v-118z" />
    <glyph glyph-name="alphatonos" unicode="&#x3ac;" horiz-adv-x="1201" 
d="M932 1082v-827c0 -81.333 10.667 -138.833 32 -172.5s51.666 -50.5 90.999 -50.5c10.667 0 19.834 0.666992 27.501 2s20.167 4 37.5 8l11 -49c-11.333 -5.33301 -22.833 -9 -34.5 -11s-24.5 -3 -38.5 -3c-58 0 -101.5 18.5 -130.5 55.5s-45.167 97.833 -48.5 182.5
c-34.667 -72.667 -83.167 -130.5 -145.5 -173.5s-136.833 -64.5 -223.5 -64.5c-127.333 0 -226.833 48.667 -298.5 146s-107.5 229.333 -107.5 396v21c0 171.333 36 307.5 108 408.5s172 151.5 300 151.5c86.667 0 160.5 -23.5 221.5 -70.5s109.167 -111.833 144.5 -194.5
v17l6 228h48zM160 521c0 -149.333 29.501 -268.001 88.501 -356.001s145.833 -132 260.5 -132c98.667 0 178.667 28.167 240 84.5s104.333 131.5 129 225.5v351c-24 94.667 -66.167 177.334 -126.5 248.001s-140.5 106 -240.5 106
c-114.667 0 -201.834 -46.833 -261.501 -140.5s-89.5 -215.5 -89.5 -365.5v-21zM603.001 1522h106l-146 -273h-53z" />
    <glyph glyph-name="epsilontonos" unicode="&#x3ad;" horiz-adv-x="1089" 
d="M105 290c0 68.667 20.833 125.334 62.5 170.001s103.834 76 186.501 94c-74 20.667 -130.833 53 -170.5 97s-59.5 94.333 -59.5 151c0 94.667 37 167.667 111 219s175.333 77 304 77c120 0 221 -27.167 303 -81.5s121.333 -124.833 118 -211.5l-2 -6h-44
c0 73.333 -35.833 132.5 -107.5 177.5s-160.834 67.5 -267.501 67.5c-120.667 0 -210.667 -21.833 -270 -65.5s-89 -101.5 -89 -173.5s29.167 -127.5 87.5 -166.5s149.833 -58.5 274.5 -58.5h165v-55h-165c-126.667 0 -222.167 -19.167 -286.5 -57.5
s-96.5 -98.5 -96.5 -180.5c0 -78.667 33 -139.834 99 -183.501s159.667 -65.5 281 -65.5c116 0 210.333 24.5 283 73.5s109 112.167 109 189.5h45l2 -6c3.33301 -100 -39 -177 -127 -231s-192 -81 -312 -81c-129.333 0 -234 27.333 -314 82s-120 129.667 -120 225zM600 1521
h106l-146 -273h-53z" />
    <glyph glyph-name="etatonos" unicode="&#x3ae;" horiz-adv-x="1199" 
d="M225 0l0.999023 955.001c0 30 -6.5 51.333 -19.5 64s-32.5 19 -58.5 19c-23.333 0 -45.666 -2.83301 -66.999 -8.5s-43 -13.834 -65 -24.501l-20 46c18 10 40.833 19.333 68.5 28s55.5 13 83.5 13c48 0 82 -10.333 102 -31s30 -55.667 30 -105v-97
c32.667 77.333 80.5 137.166 143.5 179.499s140.5 63.5 232.5 63.5c118 0 206.5 -37.167 265.5 -111.5s88.5 -192.166 88.5 -353.499v-1053h-54v1055c0 150 -26.667 255.667 -80 317s-126.333 92 -219 92c-116 0 -204 -34.333 -264 -103s-97.667 -157 -113 -265v-680h-55z
M675.999 1522h106l-146 -273h-53z" />
    <glyph glyph-name="iotatonos" unicode="&#x3af;" horiz-adv-x="594" 
d="M245 279c0 -90 16 -153.498 48 -190.498s77.667 -55.5 137 -55.5c18 0 34 0.666992 48 2s33.667 3.66602 59 6.99902l9 -50c-16 -4.66699 -33.5 -8 -52.5 -10s-39.167 -3 -60.5 -3c-84 0 -145.5 23.167 -184.5 69.5s-58.5 123.166 -58.5 230.499v749h-163v54h218v-803z
M285 1501h106l-146 -273h-53z" />
    <glyph glyph-name="upsilondieresistonos" unicode="&#x3b0;" horiz-adv-x="1168" 
d="M283 385c0 -121.333 24.998 -210.331 74.998 -266.998s118.333 -85 205 -85c124 0 217.333 47 280 141s94 209.333 94 346c0 102.667 -10.167 200.5 -30.5 293.5s-47.5 182.5 -81.5 268.5h66c32 -92 56.5 -178.167 73.5 -258.5s25.5 -180.5 25.5 -300.5
c0 -162.667 -37.167 -294 -111.5 -394s-178.833 -150 -313.5 -150c-105.333 0 -187.666 33.167 -246.999 99.5s-89 169.166 -89 308.499v573c0 30 -6.5 51.333 -19.5 64s-32.5 19 -58.5 19c-23.333 0 -45.666 -2.83301 -66.999 -8.5s-43 -13.834 -65 -24.501l-20 46
c20 12 43.167 21.833 69.5 29.5s53.833 11.5 82.5 11.5c48 0 82 -10.333 102 -31s30 -55.667 30 -105v-576zM817.998 1279h-126v108h126v-108zM338.998 1279h-127v108h127v-108zM512.998 1588h137l-118 -240h-42z" />
    <glyph glyph-name="alpha" unicode="&#x3b1;" horiz-adv-x="1201" 
d="M932 1082v-827c0 -81.333 10.667 -138.833 32 -172.5s51.666 -50.5 90.999 -50.5c10.667 0 19.834 0.666992 27.501 2s20.167 4 37.5 8l11 -49c-11.333 -5.33301 -22.833 -9 -34.5 -11s-24.5 -3 -38.5 -3c-58 0 -101.5 18.5 -130.5 55.5s-45.167 97.833 -48.5 182.5
c-34.667 -72.667 -83.167 -130.5 -145.5 -173.5s-136.833 -64.5 -223.5 -64.5c-127.333 0 -226.833 48.667 -298.5 146s-107.5 229.333 -107.5 396v21c0 171.333 36 307.5 108 408.5s172 151.5 300 151.5c86.667 0 160.5 -23.5 221.5 -70.5s109.167 -111.833 144.5 -194.5
v17l6 228h48zM160 521c0 -149.333 29.501 -268.001 88.501 -356.001s145.833 -132 260.5 -132c98.667 0 178.667 28.167 240 84.5s104.333 131.5 129 225.5v351c-24 94.667 -66.167 177.334 -126.5 248.001s-140.5 106 -240.5 106
c-114.667 0 -201.834 -46.833 -261.501 -140.5s-89.5 -215.5 -89.5 -365.5v-21z" />
    <glyph glyph-name="beta" unicode="&#x3b2;" horiz-adv-x="1146" 
d="M533 1477c117.333 0 211.833 -34.833 283.5 -104.5s107.5 -159.5 107.5 -269.5c0 -75.333 -18.667 -142.666 -56 -201.999s-90 -103 -158 -131c104 -22 183.167 -67.5 237.5 -136.5s81.5 -151.833 81.5 -248.5c0 -127.333 -40.667 -226.833 -122 -298.5
s-189 -107.5 -323 -107.5c-72.667 0 -145 14.5 -217 43.5s-128 70.833 -168 125.5v-561h-54v697c-0.666992 7.33301 -1.16699 13.5 -1.5 18.5s-0.5 10.167 -0.5 15.5l2 1v735c0 121.333 37.667 222.166 113 302.499s167 120.5 275 120.5zM529 791
c116.667 0 202.667 27.332 258 81.999s83 133 83 235c0 86 -28.833 160 -86.5 222s-141.167 93 -250.5 93c-94.667 0 -174 -35 -238 -105s-96 -158 -96 -264v-810c26 -63.333 74.667 -114.333 146 -153s151 -58 239 -58c126 0 222.5 30.5 289.5 91.5
s100.5 146.5 100.5 256.5c0 110.667 -35 197.334 -105 260.001s-170 94 -300 94h-143v56h103z" />
    <glyph glyph-name="gamma" unicode="&#x3b3;" horiz-adv-x="1084" 
d="M1092 1028h-107.998l-398 -1023v-420h-54v415l-305 879c-24.667 70 -48.334 115 -71.001 135s-50.334 30 -83.001 30c-17.333 0 -33.5 -2.33301 -48.5 -7s-26.833 -9.66699 -35.5 -15l-19 41c14 7.33301 29 13.833 45 19.5s34 8.5 54 8.5c50 0 90.333 -14 121 -42
s57.667 -76.333 81 -145l237 -675l48 -146h6l52 146l312 799h-142v54h308v-54z" />
    <glyph glyph-name="delta" unicode="&#x3b4;" horiz-adv-x="1121" 
d="M215 1309c0 71.333 33.332 131.5 99.999 180.5s151 73.5 253 73.5c56.667 0 110.667 -6 162 -18s99.666 -31.667 144.999 -59l-18 -49c-54.667 26 -101 44.5 -139 55.5s-87.667 16.5 -149 16.5c-85.333 0 -156.666 -17.667 -213.999 -53s-86 -84.333 -86 -147
c0 -62 24.333 -113 73 -153s132 -72 250 -96c139.333 -31.333 247.833 -96 325.5 -194s116.5 -206 116.5 -324v-42c0 -153.333 -43.833 -278.5 -131.5 -375.5s-201.167 -145.5 -340.5 -145.5c-140.667 0 -255 48.5 -343 145.5s-132 222.167 -132 375.5v42
c0 136.667 37.833 248.667 113.5 336s161.5 137.666 257.5 150.999v11c-87.333 32.667 -149.666 72.334 -186.999 119.001s-56 96.667 -56 150zM140.999 500c0 -130 38 -240.333 114 -331s178.333 -136 307 -136c126.667 0 228 45.333 304 136s114 201 114 331v42
c0 118.667 -40 219.667 -120 303s-172.333 134 -277 152c-134 0 -241.167 -45.167 -321.5 -135.5s-120.5 -196.833 -120.5 -319.5v-42z" />
    <glyph glyph-name="epsilon" unicode="&#x3b5;" horiz-adv-x="1089" 
d="M105 290c0 68.667 20.833 125.334 62.5 170.001s103.834 76 186.501 94c-74 20.667 -130.833 53 -170.5 97s-59.5 94.333 -59.5 151c0 94.667 37 167.667 111 219s175.333 77 304 77c120 0 221 -27.167 303 -81.5s121.333 -124.833 118 -211.5l-2 -6h-44
c0 73.333 -35.833 132.5 -107.5 177.5s-160.834 67.5 -267.501 67.5c-120.667 0 -210.667 -21.833 -270 -65.5s-89 -101.5 -89 -173.5s29.167 -127.5 87.5 -166.5s149.833 -58.5 274.5 -58.5h165v-55h-165c-126.667 0 -222.167 -19.167 -286.5 -57.5
s-96.5 -98.5 -96.5 -180.5c0 -78.667 33 -139.834 99 -183.501s159.667 -65.5 281 -65.5c116 0 210.333 24.5 283 73.5s109 112.167 109 189.5h45l2 -6c3.33301 -100 -39 -177 -127 -231s-192 -81 -312 -81c-129.333 0 -234 27.333 -314 82s-120 129.667 -120 225z" />
    <glyph glyph-name="zeta" unicode="&#x3b6;" horiz-adv-x="954" 
d="M887 1456l0.000976562 -37.001l-442 -579c-82.667 -105.333 -139.834 -197.666 -171.501 -276.999s-47.5 -153.333 -47.5 -222s27 -123.167 81 -163.5s142.333 -75.833 265 -106.5l89 -24c74 -18.667 127.5 -41.667 160.5 -69s49.5 -65.333 49.5 -114
c0 -58 -17 -111.333 -51 -160s-68.667 -80.667 -104 -96l-37 31c31.333 15.333 62.333 44.666 93 87.999s46 89.333 46 138c0 36 -12.833 62.833 -38.5 80.5s-67.5 33.834 -125.5 48.501l-90 24c-139.333 34.667 -239.333 76.5 -300 125.5s-91 114.833 -91 197.5
c0 75.333 17.167 155.5 51.5 240.5s95.5 184.167 183.5 297.5l398 524h-768v53h849z" />
    <glyph glyph-name="eta" unicode="&#x3b7;" horiz-adv-x="1199" 
d="M225 0l0.999023 955.001c0 30 -6.5 51.333 -19.5 64s-32.5 19 -58.5 19c-23.333 0 -45.666 -2.83301 -66.999 -8.5s-43 -13.834 -65 -24.501l-20 46c18 10 40.833 19.333 68.5 28s55.5 13 83.5 13c48 0 82 -10.333 102 -31s30 -55.667 30 -105v-97
c32.667 77.333 80.5 137.166 143.5 179.499s140.5 63.5 232.5 63.5c118 0 206.5 -37.167 265.5 -111.5s88.5 -192.166 88.5 -353.499v-1053h-54v1055c0 150 -26.667 255.667 -80 317s-126.333 92 -219 92c-116 0 -204 -34.333 -264 -103s-97.667 -157 -113 -265v-680h-55z
" />
    <glyph glyph-name="theta" unicode="&#x3b8;" horiz-adv-x="1143" 
d="M1015 574c0 -190 -38.501 -336.667 -115.501 -440s-185.833 -155 -326.5 -155s-250 51.833 -328 155.5s-117 250.167 -117 439.5v308c0 189.333 38.667 335.833 116 439.5s186.333 155.5 327 155.5s249.834 -51.833 327.501 -155.5s116.5 -250.167 116.5 -439.5v-308z
M181.999 749h779.001v133c0 169.333 -33.333 301.833 -100 397.5s-163.334 143.5 -290.001 143.5s-223.167 -47.833 -289.5 -143.5s-99.5 -228.167 -99.5 -397.5v-133zM961 695l-779 -0.000976562v-119c0 -168 33.5 -300.5 100.5 -397.5s163.833 -145.5 290.5 -145.5
c126 0 222.167 48.333 288.5 145s99.5 229.334 99.5 398.001v119z" />
    <glyph glyph-name="iota" unicode="&#x3b9;" horiz-adv-x="594" 
d="M245 279c0 -90 16 -153.498 48 -190.498s77.667 -55.5 137 -55.5c18 0 34 0.666992 48 2s33.667 3.66602 59 6.99902l9 -50c-16 -4.66699 -33.5 -8 -52.5 -10s-39.167 -3 -60.5 -3c-84 0 -145.5 23.167 -184.5 69.5s-58.5 123.166 -58.5 230.499v749h-163v54h218v-803z
" />
    <glyph glyph-name="kappa" unicode="&#x3ba;" horiz-adv-x="1155" 
d="M62 54h163v973h-163v54h217v-474h127l430 415l-2 6h-119v54h321v-54h-122l-447 -439l489 -535h117v-54h-137l-509 553h-148v-499h163v-54h-380v54z" />
    <glyph glyph-name="lambda" unicode="&#x3bb;" horiz-adv-x="1135" 
d="M94 0l-59 -0.00195312l441 1075l-65 177c-21.333 70 -46 122.833 -74 158.5s-67.667 53.5 -119 53.5c-5.33301 0 -13.5 -0.666992 -24.5 -2s-18.833 -2.66602 -23.5 -3.99902l-9 50c5.33301 2.66699 13.833 5 25.5 7s21.834 3 30.501 3c73.333 0 126.833 -24 160.5 -72
s62.834 -110 87.501 -186l361 -982c28 -74 55.167 -130.833 81.5 -170.5s58.166 -59.5 95.499 -59.5c5.33301 0 13.333 0.666992 24 2s18.667 3 24 5l9 -51c-6 -2.66699 -14.833 -5 -26.5 -7s-21.834 -3 -30.501 -3c-62 0 -107.833 22.833 -137.5 68.5
s-59.5 108.834 -89.5 189.501l-264 726l-6 15h-6l-41 -106z" />
    <glyph glyph-name="uni03BC" unicode="&#x3bc;" horiz-adv-x="1282" 
d="M959 205c-32 -72.667 -78.001 -128.498 -138.001 -167.498s-135 -58.5 -225 -58.5c-68.667 0 -130.5 15 -185.5 45s-98.167 79 -129.5 147v-587h-52v1444h-163v54h163h52v-642c0 -148.667 28.333 -253.667 85 -315s130.334 -92 221.001 -92c122.667 0 212 31 268 93
s90 149.667 102 263v639h-163v54h217v-577h2c0 -10.667 -0.166992 -20.834 -0.5 -30.501s-0.833008 -21.834 -1.5 -36.501v-384h163v-54h-204z" />
    <glyph glyph-name="nu" unicode="&#x3bd;" horiz-adv-x="1165" 
d="M370 1028h-142l313 -799l51 -146h6l52 146l312 799h-142v54h318v-54h-118l-400 -1027l1 -1h-52l-399 1028h-118v54h318v-54z" />
    <glyph glyph-name="xi" unicode="&#x3be;" horiz-adv-x="1006" 
d="M923 1376c-36.667 14.667 -74.501 26 -113.501 34s-78.167 12 -117.5 12c-140 0 -244.667 -25 -314 -75s-104 -116.333 -104 -199s32.5 -146.167 97.5 -190.5s166.833 -66.5 305.5 -66.5h122v-56h-122c-141.333 0 -257.5 -32.167 -348.5 -96.5
s-136.5 -162.166 -136.5 -293.499c0 -112.667 38.333 -199 115 -259s189.334 -109.333 338.001 -148l42 -10c76 -18 132.167 -41 168.5 -69s54.5 -64.333 54.5 -109c0 -50.667 -17 -95.667 -51 -135s-67.667 -67.666 -101 -84.999l-33 33c30.667 18.667 60.334 44 89.001 76
s43 69.333 43 112c0 32 -13.833 57 -41.5 75s-72.834 34.333 -135.501 49l-42 10c-157.333 40 -280.166 94.667 -368.499 164s-132.5 169.333 -132.5 300c0 106.667 30.5 195.167 91.5 265.5s144.833 119.166 251.5 146.499c-84 22.667 -148.5 59.167 -193.5 109.5
s-67.5 108.166 -67.5 173.499c0 107.333 42.167 189.333 126.5 246s200.5 85 348.5 85c40.667 0 81.167 -4.33301 121.5 -13s78.166 -20.667 113.499 -36z" />
    <glyph glyph-name="omicron" unicode="&#x3bf;" horiz-adv-x="1155" 
d="M104 562c0 158.667 43.832 288.334 131.499 389.001s201.5 151 341.5 151c140.667 0 254.834 -50.333 342.501 -151s131.5 -230.334 131.5 -389.001v-42c0 -159.333 -43.833 -289.333 -131.5 -390s-201.167 -151 -340.5 -151c-140.667 0 -255 50.333 -343 151
s-132 230.667 -132 390v42zM157.999 520c0 -136 38.001 -251.167 114.001 -345.5s178.333 -141.5 307 -141.5c126.667 0 228 47.333 304 142s114 209.667 114 345v42c0 132.667 -38.333 246.834 -115 342.501s-178.334 143.5 -305.001 143.5
c-127.333 0 -229 -47.833 -305 -143.5s-114 -209.834 -114 -342.501v-42z" />
    <glyph glyph-name="pi" unicode="&#x3c0;" horiz-adv-x="1266" 
d="M1103 1027l-198 0.00195312v-748c0 -90 16 -153.5 48 -190.5s77.667 -55.5 137 -55.5c18 0 34 0.666992 48 2s33.667 3.66602 59 6.99902l9 -50c-16 -4.66699 -33.5 -8 -52.5 -10s-39.167 -3 -60.5 -3c-84 0 -145.5 23.167 -184.5 69.5s-58.5 123.166 -58.5 230.499v748
h-556v-1027h-54v1027h-165v55h1028v-55z" />
    </font>
</defs>
</svg>
